SplineFontDB: 1.0
FontName: GC2004D
FullName: GC2004D
FamilyName: GC2004D
Weight: Book
Copyright: GC2004D a diagram chess font by Linda&Rocky ©2004
Version:  4.2.6  4/28/04
ItalicAngle: 0
UnderlinePosition: -100
UnderlineWidth: 20
Ascent: 1600
Descent: 400
Order2: 1
XUID: [1021 555 146130107 8815836]
FSType: 1
OS2Version: 0
OS2_WeightWidthSlopeOnly: 0
OS2_UseTypoMetrics: 1
CreationTime: 1083773814
ModificationTime: 1083773814
PfmFamily: 81
TTFWeight: 400
TTFWidth: 5
LineGap: 0
VLineGap: 0
Panose: 0 0 4 0 0 0 0 0 0 0
OS2TypoAscent: -88
OS2TypoAOffset: 1
OS2TypoDescent: -100
OS2TypoDOffset: 1
OS2TypoLinegap: 0
OS2WinAscent: 0
OS2WinAOffset: 1
OS2WinDescent: 0
OS2WinDOffset: 1
HheadAscent: 0
HheadAOffset: 1
HheadDescent: 0
HheadDOffset: 1
OS2SubXSize: 1400
OS2SubYSize: 1300
OS2SubXOff: 0
OS2SubYOff: 286
OS2SupXSize: 1400
OS2SupYSize: 1300
OS2SupXOff: 0
OS2SupYOff: 906
OS2StrikeYSize: 100
OS2StrikeYPos: 518
OS2Vendor: 'Alts'
ScriptLang: 1
 1 latn 1 dflt 
TtfTable: prep 147
5VF#o)&X8.(Ddi&'bqDs',(uk&J5Qc%hB-[%1N^S$O[:K#mgkC#6t;3!<E0#!KFSis+NmT6q(cW
7;,(XBLG:&6q(cW7;,(XBLG:&6q(cW7;,(XBLG:&6q(cW7;,(XBLG:&6q(cW7;,(XBLG:&6q(cW
7;,)q"9V*n/$fE`7K=sD!s:u*7'Qn!7;,'h
EndTtf
TtfTable: fpgm 20
5QLj9G"!OX"!pA\@;$K&BOF4[
EndTtf
TtfTable: cvt  74
rX8s""l')O!&ssK!%e1*!:p2+!Jgi+!SRXs!YGL>!_ECJ!o*l#"+:4b"3:PO!oF%=!8UhY>,kc+
>,kc+>,kc+>,hQ.!"&]+
EndTtf
TtfTable: maxp 32
!!*'"!3H8T!%%[G!!!!#!!iQi!"&]+!3uW%!!*'#
EndTtf
LangName: 1033 "" "" "Regular" "Fontographer 4.2.6 GC2004D" "" " 4.2.6  4/28/04" 
Encoding: UnicodeBmp
UnicodeInterp: none
NameList: Adobe Glyph List
DisplaySize: -24
AntiAlias: 1
FitToEm: 1
WinInfo: 63 21 13
BeginChars: 65550 173
StartChar: .notdef
Encoding: 65536 -1 0
Width: 1000
Flags: W
Fore
125 0 m 1,0,-1
 125 1512 l 1,1,-1
 875 1512 l 1,2,-1
 875 0 l 1,3,-1
 125 0 l 1,0,-1
250 125 m 1,4,-1
 750 125 l 1,5,-1
 750 1387 l 1,6,-1
 250 1387 l 1,7,-1
 250 125 l 1,4,-1
EndSplineSet
EndChar
StartChar: zero
Encoding: 48 48 4
Width: 2000
Flags: W
Fore
1190 946 m 1,0,-1
 1190 1243 l 1,1,-1
 1044 1095 l 1,2,-1
 1190 946 l 1,0,-1
1154 1282 m 1,3,-1
 846 1282 l 1,4,-1
 1000 1136 l 1,5,-1
 1154 1282 l 1,3,-1
1828 736 m 0,6,7
 1835 820 1835 820 1783 896 c 0,8,9
 1712 1000 1712 1000 1564 999 c 0,10,11
 1313 997 1313 997 1145 711 c 0,12,13
 1075 592 1075 592 1027 425 c 1,14,15
 1134 423 1134 423 1232 410 c 0,16,17
 1458 380 1458 380 1563 308 c 1,18,19
 1810 506 1810 506 1828 736 c 0,6,7
1150 911 m 1,20,-1
 1000 1057 l 1,21,-1
 850 911 l 1,22,-1
 1150 911 l 1,20,-1
956 1095 m 1,23,-1
 810 1243 l 1,24,-1
 810 946 l 1,25,-1
 956 1095 l 1,23,-1
1159 840 m 1,26,-1
 841 840 l 1,27,28
 928 740 928 740 1000 571 c 1,29,30
 1074 743 1074 743 1159 840 c 1,26,-1
973 425 m 1,31,32
 925 592 925 592 855 711 c 0,33,34
 687 997 687 997 436 999 c 0,35,36
 287 1000 287 1000 216 896 c 0,37,38
 164 819 164 819 172 736 c 0,39,40
 194 506 194 506 437 308 c 1,41,42
 594 417 594 417 973 425 c 1,31,32
1520 243 m 1,43,44
 1298 350 1298 350 1000 350 c 256,45,46
 702 350 702 350 480 243 c 1,47,-1
 489 114 l 1,48,-1
 603 114 l 1,49,-1
 507 3 l 1,50,-1
 507 -95 l 1,51,52
 612 13 612 13 1000 13 c 256,53,54
 1388 13 1388 13 1493 -95 c 1,55,-1
 1493 3 l 1,56,-1
 1397 114 l 1,57,-1
 1511 114 l 1,58,-1
 1520 243 l 1,43,44
1474 -170 m 256,59,60
 1474 -108 1474 -108 1261 -78 c 0,61,62
 1126 -59 1126 -59 1000 -59 c 256,63,64
 874 -59 874 -59 739 -78 c 0,65,66
 526 -108 526 -108 526 -170 c 256,67,68
 526 -232 526 -232 739 -263 c 0,69,70
 877 -283 877 -283 1000 -283 c 256,71,72
 1123 -283 1123 -283 1261 -263 c 0,73,74
 1474 -232 1474 -232 1474 -170 c 256,59,60
1117 174 m 256,75,76
 1117 124 1117 124 1000 124 c 256,77,78
 883 124 883 124 883 174 c 256,79,80
 883 224 883 224 1000 224 c 256,81,82
 1117 224 1117 224 1117 174 c 256,75,76
1904 740 m 0,83,84
 1892 576 1892 576 1771 413 c 0,85,86
 1684 296 1684 296 1599 241 c 1,87,88
 1594 165 1594 165 1574 -195 c 1,89,90
 1512 -298 1512 -298 1308 -332 c 0,91,92
 1200 -350 1200 -350 1000 -350 c 256,93,94
 800 -350 800 -350 692 -332 c 0,95,96
 488 -298 488 -298 426 -195 c 1,97,-1
 401 241 l 1,98,99
 279 321 279 321 189 473 c 0,100,101
 94 631 94 631 94 770 c 0,102,103
 94 906 94 906 197 994 c 0,104,105
 294 1079 294 1079 432 1079 c 0,106,107
 588 1079 588 1079 739 967 c 1,108,-1
 739 1360 l 1,109,-1
 1261 1360 l 1,110,-1
 1261 967 l 1,111,112
 1412 1079 1412 1079 1566 1079 c 0,113,114
 1715 1079 1715 1079 1813 985 c 0,115,116
 1914 887 1914 887 1904 740 c 0,83,84
EndSplineSet
EndChar
StartChar: one
Encoding: 49 49 5
Width: 2000
Flags: W
Fore
2000 1344 m 1,0,-1
 1798 1142 l 1,1,-1
 1745 1157 l 1,2,-1
 2000 1412 l 1,3,-1
 2000 1344 l 1,0,-1
1884 1500 m 1,4,-1
 1595 1211 l 1,5,-1
 1514 1198 l 1,6,-1
 1816 1500 l 1,7,-1
 1884 1500 l 1,4,-1
2000 1074 m 1,8,-1
 1950 1024 l 1,9,-1
 1918 1060 l 1,10,-1
 2000 1142 l 1,11,-1
 2000 1074 l 1,8,-1
1614 1500 m 1,12,-1
 1378 1264 l 1,13,-1
 1378 1332 l 1,14,-1
 1546 1500 l 1,15,-1
 1614 1500 l 1,12,-1
1344 1500 m 1,16,-1
 1314 1470 l 1,17,-1
 1246 1470 l 1,18,-1
 1276 1500 l 1,19,-1
 1344 1500 l 1,16,-1
1074 1500 m 1,20,-1
 1044 1470 l 1,21,-1
 976 1470 l 1,22,-1
 1006 1500 l 1,23,-1
 1074 1500 l 1,20,-1
804 1500 m 1,24,-1
 774 1470 l 1,25,-1
 706 1470 l 1,26,-1
 736 1500 l 1,27,-1
 804 1500 l 1,24,-1
2000 264 m 1,28,-1
 1715 -21 l 1,29,-1
 1719 51 l 1,30,-1
 2000 332 l 1,31,-1
 2000 264 l 1,28,-1
605 1369 m 1,32,-1
 601 1297 l 1,33,-1
 485 1181 l 1,34,-1
 419 1183 l 1,35,-1
 605 1369 l 1,32,-1
1904 740 m 0,36,37
 1892 576 1892 576 1771 413 c 0,38,39
 1684 296 1684 296 1599 241 c 1,40,41
 1594 165 1594 165 1574 -195 c 1,42,43
 1512 -298 1512 -298 1308 -332 c 0,44,45
 1200 -350 1200 -350 1000 -350 c 256,46,47
 800 -350 800 -350 692 -332 c 0,48,49
 488 -298 488 -298 426 -195 c 1,50,-1
 401 241 l 1,51,52
 279 321 279 321 189 473 c 0,53,54
 94 631 94 631 94 770 c 0,55,56
 94 906 94 906 197 994 c 0,57,58
 294 1079 294 1079 432 1079 c 0,59,60
 588 1079 588 1079 739 967 c 1,61,-1
 739 1360 l 1,62,-1
 1261 1360 l 1,63,-1
 1261 967 l 1,64,65
 1412 1079 1412 1079 1566 1079 c 0,66,67
 1715 1079 1715 1079 1813 985 c 0,68,69
 1914 887 1914 887 1904 740 c 0,36,37
264 1500 m 1,70,-1
 0 1236 l 1,71,-1
 0 1304 l 1,72,-1
 196 1500 l 1,73,-1
 264 1500 l 1,70,-1
2000 -6 m 1,74,-1
 1506 -500 l 1,75,-1
 1438 -500 l 1,76,-1
 2000 62 l 1,77,-1
 2000 -6 l 1,74,-1
2000 -276 m 1,78,-1
 1776 -500 l 1,79,-1
 1708 -500 l 1,80,-1
 2000 -208 l 1,81,-1
 2000 -276 l 1,78,-1
534 1500 m 1,82,-1
 0 966 l 1,83,-1
 0 1034 l 1,84,-1
 466 1500 l 1,85,-1
 534 1500 l 1,82,-1
1293 -443 m 1,86,-1
 1236 -500 l 1,87,-1
 1168 -500 l 1,88,-1
 1216 -452 l 1,89,-1
 1293 -443 l 1,86,-1
30 456 m 1,90,-1
 0 426 l 1,91,-1
 0 494 l 1,92,-1
 12 506 l 1,93,-1
 30 456 l 1,90,-1
1001 -465 m 1,94,-1
 966 -500 l 1,95,-1
 898 -500 l 1,96,-1
 933 -465 l 1,97,-1
 1001 -465 l 1,94,-1
137 293 m 1,98,-1
 0 156 l 1,99,-1
 0 224 l 1,100,-1
 109 333 l 1,101,-1
 137 293 l 1,98,-1
737 -459 m 1,102,-1
 696 -500 l 1,103,-1
 628 -500 l 1,104,-1
 674 -454 l 1,105,-1
 737 -459 l 1,102,-1
283 169 m 1,106,-1
 0 -114 l 1,107,-1
 0 -46 l 1,108,-1
 250 204 l 1,109,-1
 283 169 l 1,106,-1
511 -415 m 1,110,-1
 426 -500 l 1,111,-1
 358 -500 l 1,112,-1
 464 -394 l 1,113,-1
 511 -415 l 1,110,-1
305 -79 m 1,114,-1
 0 -384 l 1,115,-1
 0 -316 l 1,116,-1
 301 -15 l 1,117,-1
 305 -79 l 1,114,-1
349 -307 m 1,118,-1
 156 -500 l 1,119,-1
 88 -500 l 1,120,-1
 315 -273 l 1,121,-1
 349 -307 l 1,118,-1
1190 946 m 1,122,-1
 1190 1243 l 1,123,-1
 1044 1095 l 1,124,-1
 1190 946 l 1,122,-1
1154 1282 m 1,125,-1
 846 1282 l 1,126,-1
 1000 1136 l 1,127,-1
 1154 1282 l 1,125,-1
1828 736 m 0,128,129
 1835 820 1835 820 1783 896 c 0,130,131
 1712 1000 1712 1000 1564 999 c 0,132,133
 1313 997 1313 997 1145 711 c 0,134,135
 1075 592 1075 592 1027 425 c 1,136,137
 1134 423 1134 423 1232 410 c 0,138,139
 1458 380 1458 380 1563 308 c 1,140,141
 1810 506 1810 506 1828 736 c 0,128,129
1150 911 m 1,142,-1
 1000 1057 l 1,143,-1
 850 911 l 1,144,-1
 1150 911 l 1,142,-1
956 1095 m 1,145,-1
 810 1243 l 1,146,-1
 810 946 l 1,147,-1
 956 1095 l 1,145,-1
1159 840 m 1,148,-1
 841 840 l 1,149,150
 928 740 928 740 1000 571 c 1,151,152
 1074 743 1074 743 1159 840 c 1,148,-1
973 425 m 1,153,154
 925 592 925 592 855 711 c 0,155,156
 687 997 687 997 436 999 c 0,157,158
 287 1000 287 1000 216 896 c 0,159,160
 164 819 164 819 172 736 c 0,161,162
 194 506 194 506 437 308 c 1,163,164
 594 417 594 417 973 425 c 1,153,154
1520 243 m 1,165,166
 1298 350 1298 350 1000 350 c 256,167,168
 702 350 702 350 480 243 c 1,169,-1
 489 114 l 1,170,-1
 603 114 l 1,171,-1
 507 3 l 1,172,-1
 507 -95 l 1,173,174
 612 13 612 13 1000 13 c 256,175,176
 1388 13 1388 13 1493 -95 c 1,177,-1
 1493 3 l 1,178,-1
 1397 114 l 1,179,-1
 1511 114 l 1,180,-1
 1520 243 l 1,165,166
1474 -170 m 256,181,182
 1474 -108 1474 -108 1261 -78 c 0,183,184
 1126 -59 1126 -59 1000 -59 c 256,185,186
 874 -59 874 -59 739 -78 c 0,187,188
 526 -108 526 -108 526 -170 c 256,189,190
 526 -232 526 -232 739 -263 c 0,191,192
 877 -283 877 -283 1000 -283 c 256,193,194
 1123 -283 1123 -283 1261 -263 c 0,195,196
 1474 -232 1474 -232 1474 -170 c 256,181,182
1117 174 m 256,197,198
 1117 124 1117 124 1000 124 c 256,199,200
 883 124 883 124 883 174 c 256,201,202
 883 224 883 224 1000 224 c 256,203,204
 1117 224 1117 224 1117 174 c 256,197,198
EndSplineSet
EndChar
StartChar: two
Encoding: 50 50 6
Width: 2000
Flags: W
Fore
1904 736 m 0,0,1
 1892 572 1892 572 1771 409 c 0,2,3
 1684 292 1684 292 1599 237 c 1,4,5
 1594 161 1594 161 1574 -199 c 1,6,7
 1512 -302 1512 -302 1308 -336 c 0,8,9
 1200 -354 1200 -354 1000 -354 c 256,10,11
 800 -354 800 -354 692 -336 c 0,12,13
 488 -302 488 -302 426 -199 c 1,14,-1
 401 237 l 1,15,16
 279 317 279 317 189 469 c 0,17,18
 94 627 94 627 94 766 c 0,19,20
 94 902 94 902 197 990 c 0,21,22
 294 1075 294 1075 432 1075 c 0,23,24
 588 1075 588 1075 739 963 c 1,25,-1
 739 1356 l 1,26,-1
 1261 1356 l 1,27,-1
 1261 963 l 1,28,29
 1412 1075 1412 1075 1566 1075 c 0,30,31
 1715 1075 1715 1075 1813 981 c 0,32,33
 1914 883 1914 883 1904 736 c 0,0,1
1186 1005 m 2,34,35
 1203 1025 1203 1025 1184 1041 c 2,36,-1
 1079 1134 l 1,37,-1
 1181 1226 l 2,38,39
 1199 1242 1199 1242 1182 1262 c 2,40,-1
 1150 1299 l 2,41,42
 1132 1320 1132 1320 1111 1301 c 2,43,-1
 1000 1201 l 1,44,-1
 889 1301 l 2,45,46
 868 1320 868 1320 850 1299 c 2,47,-1
 818 1262 l 2,48,49
 801 1242 801 1242 819 1226 c 2,50,-1
 921 1134 l 1,51,-1
 816 1041 l 2,52,53
 797 1025 797 1025 814 1005 c 2,54,-1
 846 967 l 2,55,56
 861 949 861 949 883 963 c 1,57,-1
 1000 1066 l 1,58,-1
 1117 963 l 1,59,60
 1139 949 1139 949 1154 967 c 2,61,-1
 1186 1005 l 2,34,35
1109 763 m 256,62,63
 1109 808 1109 808 1077 837.5 c 128,-1,64
 1045 867 1045 867 1000 867 c 256,65,66
 955 867 955 867 923 837.5 c 128,-1,67
 891 808 891 808 891 763 c 256,68,69
 891 718 891 718 923 688.5 c 128,-1,70
 955 659 955 659 1000 659 c 256,71,72
 1045 659 1045 659 1077 688.5 c 128,-1,73
 1109 718 1109 718 1109 763 c 256,62,63
1505 55 m 0,74,75
 1513 85 1513 85 1453 101 c 0,76,77
 1397 116 1397 116 1386 87 c 1,78,79
 1379 55 1379 55 1438 39 c 0,80,81
 1496 23 1496 23 1505 55 c 0,74,75
1674 656 m 0,82,83
 1677 807 1677 807 1493 811 c 0,84,85
 1413 802 1413 802 1345 759 c 0,86,87
 1180 655 1180 655 1094 396 c 1,88,-1
 906 396 l 1,89,90
 778 781 778 781 507 811 c 0,91,92
 323 807 323 807 326 656 c 0,93,94
 358 447 358 447 533 331 c 1,95,-1
 482 289 l 1,96,97
 477 277 477 277 477 263 c 0,98,99
 476 229 476 229 510 214 c 1,100,101
 783 293 783 293 1000 293 c 256,102,103
 1217 293 1217 293 1490 214 c 1,104,105
 1524 229 1524 229 1523 263 c 0,106,107
 1523 277 1523 277 1518 289 c 1,108,-1
 1467 331 l 1,109,110
 1641 447 1641 447 1674 656 c 0,82,83
1102 145 m 256,111,112
 1102 199 1102 199 1000 199 c 256,113,114
 898 199 898 199 898 145 c 256,115,116
 898 91 898 91 1000 91 c 256,117,118
 1102 91 1102 91 1102 145 c 256,111,112
1000 -16 m 0,120,121
 863 -16 863 -16 734 -30 c 0,122,123
 514 -54 514 -54 514 -106 c 0,124,125
 514 -122 514 -122 530.5 -137.5 c 128,-1,126
 547 -153 547 -153 562 -149 c 0,127,128
 749 -96 749 -96 901 -96 c 0,129,130
 951 -96 951 -96 1000 -101 c 1,131,132
 1049 -96 1049 -96 1099 -96 c 0,133,134
 1251 -96 1251 -96 1438 -149 c 0,135,136
 1453 -153 1453 -153 1469.5 -137.5 c 128,-1,137
 1486 -122 1486 -122 1486 -106 c 0,138,139
 1486 -64 1486 -64 1337.5 -40 c 128,-1,119
 1189 -16 1189 -16 1000 -16 c 0,120,121
614 87 m 1,140,141
 603 116 603 116 547 101 c 0,142,143
 487 85 487 85 495 55 c 0,144,145
 504 23 504 23 562 39 c 0,146,147
 621 55 621 55 614 87 c 1,140,141
1538 623 m 0,148,149
 1540 562 1540 562 1363 369 c 1,150,151
 1304 383 1304 383 1217 396 c 1,152,153
 1318 680 1318 680 1491 680 c 0,154,155
 1536 680 1536 680 1538 623 c 0,148,149
783 396 m 1,156,157
 742 390 742 390 637 369 c 1,158,159
 460 562 460 562 462 623 c 0,160,161
 464 686 464 686 522 679 c 0,162,163
 575 672 575 672 614 647 c 0,164,165
 718 579 718 579 783 396 c 1,156,157
EndSplineSet
EndChar
StartChar: three
Encoding: 51 51 7
Width: 2000
Flags: W
Fore
2000 1344 m 1,0,-1
 1798 1142 l 1,1,-1
 1745 1157 l 1,2,-1
 2000 1412 l 1,3,-1
 2000 1344 l 1,0,-1
1884 1500 m 1,4,-1
 1595 1211 l 1,5,-1
 1514 1198 l 1,6,-1
 1816 1500 l 1,7,-1
 1884 1500 l 1,4,-1
2000 1074 m 1,8,-1
 1950 1024 l 1,9,-1
 1918 1060 l 1,10,-1
 2000 1142 l 1,11,-1
 2000 1074 l 1,8,-1
1614 1500 m 1,12,-1
 1378 1264 l 1,13,-1
 1378 1332 l 1,14,-1
 1546 1500 l 1,15,-1
 1614 1500 l 1,12,-1
1344 1500 m 1,16,-1
 1314 1470 l 1,17,-1
 1246 1470 l 1,18,-1
 1276 1500 l 1,19,-1
 1344 1500 l 1,16,-1
1074 1500 m 1,20,-1
 1044 1470 l 1,21,-1
 976 1470 l 1,22,-1
 1006 1500 l 1,23,-1
 1074 1500 l 1,20,-1
804 1500 m 1,24,-1
 774 1470 l 1,25,-1
 706 1470 l 1,26,-1
 736 1500 l 1,27,-1
 804 1500 l 1,24,-1
2000 264 m 1,28,-1
 1715 -21 l 1,29,-1
 1719 51 l 1,30,-1
 2000 332 l 1,31,-1
 2000 264 l 1,28,-1
605 1369 m 1,32,-1
 601 1297 l 1,33,-1
 485 1181 l 1,34,-1
 419 1183 l 1,35,-1
 605 1369 l 1,32,-1
1904 740 m 0,36,37
 1892 576 1892 576 1771 413 c 0,38,39
 1684 296 1684 296 1599 241 c 1,40,41
 1594 165 1594 165 1574 -195 c 1,42,43
 1512 -298 1512 -298 1308 -332 c 0,44,45
 1200 -350 1200 -350 1000 -350 c 256,46,47
 800 -350 800 -350 692 -332 c 0,48,49
 488 -298 488 -298 426 -195 c 1,50,-1
 401 241 l 1,51,52
 279 321 279 321 189 473 c 0,53,54
 94 631 94 631 94 770 c 0,55,56
 94 906 94 906 197 994 c 0,57,58
 294 1079 294 1079 432 1079 c 0,59,60
 588 1079 588 1079 739 967 c 1,61,-1
 739 1360 l 1,62,-1
 1261 1360 l 1,63,-1
 1261 967 l 1,64,65
 1412 1079 1412 1079 1566 1079 c 0,66,67
 1715 1079 1715 1079 1813 985 c 0,68,69
 1914 887 1914 887 1904 740 c 0,36,37
264 1500 m 1,70,-1
 0 1236 l 1,71,-1
 0 1304 l 1,72,-1
 196 1500 l 1,73,-1
 264 1500 l 1,70,-1
534 1500 m 1,74,-1
 0 966 l 1,75,-1
 0 1034 l 1,76,-1
 466 1500 l 1,77,-1
 534 1500 l 1,74,-1
2000 -6 m 1,78,-1
 1506 -500 l 1,79,-1
 1438 -500 l 1,80,-1
 2000 62 l 1,81,-1
 2000 -6 l 1,78,-1
2000 -276 m 1,82,-1
 1776 -500 l 1,83,-1
 1708 -500 l 1,84,-1
 2000 -208 l 1,85,-1
 2000 -276 l 1,82,-1
1293 -443 m 1,86,-1
 1236 -500 l 1,87,-1
 1168 -500 l 1,88,-1
 1216 -452 l 1,89,-1
 1293 -443 l 1,86,-1
30 456 m 1,90,-1
 0 426 l 1,91,-1
 0 494 l 1,92,-1
 12 506 l 1,93,-1
 30 456 l 1,90,-1
1001 -465 m 1,94,-1
 966 -500 l 1,95,-1
 898 -500 l 1,96,-1
 933 -465 l 1,97,-1
 1001 -465 l 1,94,-1
137 293 m 1,98,-1
 0 156 l 1,99,-1
 0 224 l 1,100,-1
 109 333 l 1,101,-1
 137 293 l 1,98,-1
737 -459 m 1,102,-1
 696 -500 l 1,103,-1
 628 -500 l 1,104,-1
 674 -454 l 1,105,-1
 737 -459 l 1,102,-1
283 169 m 1,106,-1
 0 -114 l 1,107,-1
 0 -46 l 1,108,-1
 250 204 l 1,109,-1
 283 169 l 1,106,-1
511 -415 m 1,110,-1
 426 -500 l 1,111,-1
 358 -500 l 1,112,-1
 464 -394 l 1,113,-1
 511 -415 l 1,110,-1
305 -79 m 1,114,-1
 0 -384 l 1,115,-1
 0 -316 l 1,116,-1
 301 -15 l 1,117,-1
 305 -79 l 1,114,-1
349 -307 m 1,118,-1
 156 -500 l 1,119,-1
 88 -500 l 1,120,-1
 315 -273 l 1,121,-1
 349 -307 l 1,118,-1
1186 1005 m 2,122,123
 1203 1025 1203 1025 1184 1041 c 2,124,-1
 1079 1134 l 1,125,-1
 1181 1226 l 2,126,127
 1199 1242 1199 1242 1182 1262 c 2,128,-1
 1150 1299 l 2,129,130
 1132 1320 1132 1320 1111 1301 c 2,131,-1
 1000 1201 l 1,132,-1
 889 1301 l 2,133,134
 868 1320 868 1320 850 1299 c 2,135,-1
 818 1262 l 2,136,137
 801 1242 801 1242 819 1226 c 2,138,-1
 921 1134 l 1,139,-1
 816 1041 l 2,140,141
 797 1025 797 1025 814 1005 c 2,142,-1
 846 967 l 2,143,144
 861 949 861 949 883 963 c 1,145,-1
 1000 1066 l 1,146,-1
 1117 963 l 1,147,148
 1139 949 1139 949 1154 967 c 2,149,-1
 1186 1005 l 2,122,123
1109 763 m 256,150,151
 1109 808 1109 808 1077 837.5 c 128,-1,152
 1045 867 1045 867 1000 867 c 256,153,154
 955 867 955 867 923 837.5 c 128,-1,155
 891 808 891 808 891 763 c 256,156,157
 891 718 891 718 923 688.5 c 128,-1,158
 955 659 955 659 1000 659 c 256,159,160
 1045 659 1045 659 1077 688.5 c 128,-1,161
 1109 718 1109 718 1109 763 c 256,150,151
1505 55 m 0,162,163
 1513 85 1513 85 1453 101 c 0,164,165
 1397 116 1397 116 1386 87 c 1,166,167
 1379 55 1379 55 1438 39 c 0,168,169
 1496 23 1496 23 1505 55 c 0,162,163
1674 656 m 0,170,171
 1677 807 1677 807 1493 811 c 0,172,173
 1413 802 1413 802 1345 759 c 0,174,175
 1180 655 1180 655 1094 396 c 1,176,-1
 906 396 l 1,177,178
 778 781 778 781 507 811 c 0,179,180
 323 807 323 807 326 656 c 0,181,182
 358 447 358 447 533 331 c 1,183,-1
 482 289 l 1,184,185
 477 277 477 277 477 263 c 0,186,187
 476 229 476 229 510 214 c 1,188,189
 783 293 783 293 1000 293 c 256,190,191
 1217 293 1217 293 1490 214 c 1,192,193
 1524 229 1524 229 1523 263 c 0,194,195
 1523 277 1523 277 1518 289 c 1,196,-1
 1467 331 l 1,197,198
 1641 447 1641 447 1674 656 c 0,170,171
1102 145 m 256,199,200
 1102 199 1102 199 1000 199 c 256,201,202
 898 199 898 199 898 145 c 256,203,204
 898 91 898 91 1000 91 c 256,205,206
 1102 91 1102 91 1102 145 c 256,199,200
1000 -16 m 0,208,209
 863 -16 863 -16 734 -30 c 0,210,211
 514 -54 514 -54 514 -106 c 0,212,213
 514 -122 514 -122 530.5 -137.5 c 128,-1,214
 547 -153 547 -153 562 -149 c 0,215,216
 749 -96 749 -96 901 -96 c 0,217,218
 951 -96 951 -96 1000 -101 c 1,219,220
 1049 -96 1049 -96 1099 -96 c 0,221,222
 1251 -96 1251 -96 1438 -149 c 0,223,224
 1453 -153 1453 -153 1469.5 -137.5 c 128,-1,225
 1486 -122 1486 -122 1486 -106 c 0,226,227
 1486 -64 1486 -64 1337.5 -40 c 128,-1,207
 1189 -16 1189 -16 1000 -16 c 0,208,209
614 87 m 1,228,229
 603 116 603 116 547 101 c 0,230,231
 487 85 487 85 495 55 c 0,232,233
 504 23 504 23 562 39 c 0,234,235
 621 55 621 55 614 87 c 1,228,229
1538 623 m 0,236,237
 1540 562 1540 562 1363 369 c 1,238,239
 1304 383 1304 383 1217 396 c 1,240,241
 1318 680 1318 680 1491 680 c 0,242,243
 1536 680 1536 680 1538 623 c 0,236,237
783 396 m 1,244,245
 742 390 742 390 637 369 c 1,246,247
 460 562 460 562 462 623 c 0,248,249
 464 686 464 686 522 679 c 0,250,251
 575 672 575 672 614 647 c 0,252,253
 718 579 718 579 783 396 c 1,244,245
EndSplineSet
EndChar
StartChar: four
Encoding: 52 52 8
Width: 2000
Flags: W
Fore
1230 1404 m 0,0,1
 1066 1392 1066 1392 903 1271 c 0,2,3
 786 1184 786 1184 731 1099 c 1,4,5
 655 1094 655 1094 295 1074 c 1,6,7
 192 1012 192 1012 158 808 c 0,8,9
 140 700 140 700 140 500 c 256,10,11
 140 300 140 300 158 192 c 0,12,13
 192 -12 192 -12 295 -74 c 1,14,-1
 731 -99 l 1,15,16
 811 -221 811 -221 963 -311 c 0,17,18
 1121 -406 1121 -406 1260 -406 c 256,19,20
 1399 -406 1399 -406 1486 -305 c 0,21,22
 1569 -208 1569 -208 1569 -67 c 0,23,24
 1569 88 1569 88 1457 239 c 1,25,-1
 1850 239 l 1,26,-1
 1850 761 l 1,27,-1
 1457 761 l 1,28,29
 1569 912 1569 912 1569 1066 c 0,30,31
 1569 1215 1569 1215 1475 1313 c 0,32,33
 1377 1414 1377 1414 1230 1404 c 0,0,1
1436 690 m 1,34,-1
 1733 690 l 1,35,-1
 1585 544 l 1,36,-1
 1436 690 l 1,34,-1
1772 654 m 1,37,-1
 1772 346 l 1,38,-1
 1626 500 l 1,39,-1
 1772 654 l 1,37,-1
1226 1328 m 0,40,41
 1310 1335 1310 1335 1386 1283 c 0,42,43
 1490 1212 1490 1212 1489 1064 c 0,44,45
 1487 813 1487 813 1201 645 c 0,46,47
 1082 575 1082 575 915 527 c 1,48,49
 913 634 913 634 900 732 c 0,50,51
 870 958 870 958 798 1063 c 1,52,53
 996 1310 996 1310 1226 1328 c 0,40,41
1401 650 m 1,54,-1
 1547 500 l 1,55,-1
 1401 350 l 1,56,-1
 1401 650 l 1,54,-1
1585 456 m 1,57,-1
 1733 310 l 1,58,-1
 1436 310 l 1,59,-1
 1585 456 l 1,57,-1
1330 659 m 1,60,-1
 1330 341 l 1,61,62
 1230 428 1230 428 1061 500 c 1,63,64
 1233 574 1233 574 1330 659 c 1,60,-1
915 473 m 1,65,66
 1082 425 1082 425 1201 355 c 0,67,68
 1487 187 1487 187 1489 -64 c 0,69,70
 1490 -213 1490 -213 1386 -284 c 0,71,72
 1309 -336 1309 -336 1226 -328 c 0,73,74
 996 -306 996 -306 798 -63 c 1,75,76
 907 94 907 94 915 473 c 1,65,66
733 1020 m 1,77,78
 840 798 840 798 840 500 c 256,79,80
 840 202 840 202 733 -20 c 1,81,-1
 604 -11 l 1,82,-1
 604 103 l 1,83,-1
 493 7 l 1,84,-1
 395 7 l 1,85,86
 503 112 503 112 503 500 c 256,87,88
 503 888 503 888 395 993 c 1,89,-1
 493 993 l 1,90,-1
 604 897 l 1,91,-1
 604 1011 l 1,92,-1
 733 1020 l 1,77,78
320 974 m 256,93,94
 382 974 382 974 412 761 c 0,95,96
 431 626 431 626 431 500 c 256,97,98
 431 374 431 374 412 239 c 0,99,100
 382 26 382 26 320 26 c 256,101,102
 258 26 258 26 227 239 c 0,103,104
 207 377 207 377 207 500 c 256,105,106
 207 623 207 623 227 761 c 0,107,108
 258 974 258 974 320 974 c 256,93,94
664 617 m 256,109,110
 614 617 614 617 614 500 c 256,111,112
 614 383 614 383 664 383 c 256,113,114
 714 383 714 383 714 500 c 256,115,116
 714 617 714 617 664 617 c 256,109,110
EndSplineSet
EndChar
StartChar: five
Encoding: 53 53 9
Width: 2000
Flags: W
Fore
0 -316 m 1,0,-1
 191 -125 l 1,1,-1
 228 -156 l 1,2,-1
 0 -384 l 1,3,-1
 0 -316 l 1,0,-1
88 -500 m 1,4,-1
 391 -197 l 1,5,-1
 457 -199 l 1,6,-1
 156 -500 l 1,7,-1
 88 -500 l 1,4,-1
0 -46 m 1,8,-1
 76 30 l 1,9,-1
 96 -18 l 1,10,-1
 0 -114 l 1,11,-1
 0 -46 l 1,8,-1
358 -500 m 1,12,-1
 660 -198 l 1,13,-1
 692 -234 l 1,14,-1
 426 -500 l 1,15,-1
 358 -500 l 1,12,-1
0 224 m 1,16,-1
 44 268 l 1,17,-1
 49 205 l 1,18,-1
 0 156 l 1,19,-1
 0 224 l 1,16,-1
628 -500 m 1,20,-1
 787 -341 l 1,21,-1
 824 -372 l 1,22,-1
 696 -500 l 1,23,-1
 628 -500 l 1,20,-1
898 -500 m 1,24,-1
 956 -442 l 1,25,-1
 1005 -461 l 1,26,-1
 966 -500 l 1,27,-1
 898 -500 l 1,24,-1
0 494 m 1,28,-1
 32 526 l 1,29,-1
 32 458 l 1,30,-1
 0 426 l 1,31,-1
 0 494 l 1,28,-1
0 764 m 1,32,-1
 55 819 l 1,33,-1
 46 742 l 1,34,-1
 0 696 l 1,35,-1
 0 764 l 1,32,-1
0 1034 m 1,36,-1
 466 1500 l 1,37,-1
 534 1500 l 1,38,-1
 0 966 l 1,39,-1
 0 1034 l 1,36,-1
0 1304 m 1,40,-1
 196 1500 l 1,41,-1
 264 1500 l 1,42,-1
 0 1236 l 1,43,-1
 0 1304 l 1,40,-1
1712 -500 m 1,44,-1
 2000 -208 l 1,45,-1
 2000 -276 l 1,46,-1
 1776 -500 l 1,47,-1
 1712 -500 l 1,44,-1
1442 -500 m 1,48,-1
 2000 62 l 1,49,-1
 2000 -6 l 1,50,-1
 1506 -500 l 1,51,-1
 1442 -500 l 1,48,-1
150 500 m 256,52,53
 150 700 150 700 168 808 c 0,54,55
 202 1012 202 1012 305 1074 c 1,56,-1
 741 1099 l 1,57,58
 821 1221 821 1221 973 1311 c 0,59,60
 1131 1406 1131 1406 1270 1406 c 0,61,62
 1406 1406 1406 1406 1494 1303 c 0,63,64
 1579 1206 1579 1206 1579 1068 c 0,65,66
 1579 912 1579 912 1467 761 c 1,67,-1
 1860 761 l 1,68,-1
 1860 239 l 1,69,-1
 1467 239 l 1,70,71
 1579 88 1579 88 1579 -66 c 0,72,73
 1579 -216 1579 -216 1485 -313 c 0,74,75
 1388 -414 1388 -414 1240 -404 c 0,76,77
 1076 -392 1076 -392 913 -271 c 0,78,79
 796 -184 796 -184 741 -99 c 1,80,81
 665 -94 665 -94 305 -74 c 1,82,83
 202 -12 202 -12 168 192 c 0,84,85
 150 300 150 300 150 500 c 256,52,53
1676 -60 m 1,86,-1
 1676 6 l 1,87,-1
 1798 129 l 1,88,-1
 1864 128 l 1,89,-1
 1676 -60 l 1,86,-1
435 1199 m 1,90,-1
 736 1500 l 1,91,-1
 804 1500 l 1,92,-1
 509 1205 l 1,93,-1
 435 1199 l 1,90,-1
1979 243 m 1,94,-1
 1979 311 l 1,95,-1
 2000 332 l 1,96,-1
 2000 264 l 1,97,-1
 1979 243 l 1,94,-1
949 1443 m 1,98,-1
 1006 1500 l 1,99,-1
 1074 1500 l 1,100,-1
 949 1443 l 1,98,-1
1979 581 m 1,101,-1
 2000 602 l 1,102,-1
 2000 534 l 1,103,-1
 1979 513 l 1,104,-1
 1979 581 l 1,101,-1
1979 783 m 1,105,-1
 1979 851 l 1,106,-1
 2000 872 l 1,107,-1
 2000 804 l 1,108,-1
 1979 783 l 1,105,-1
1748 890 m 1,109,-1
 2000 1142 l 1,110,-1
 2000 1074 l 1,111,-1
 1816 890 l 1,112,-1
 1748 890 l 1,109,-1
1509 1463 m 1,113,-1
 1546 1500 l 1,114,-1
 1614 1500 l 1,115,-1
 1547 1433 l 1,116,-1
 1509 1463 l 1,113,-1
1683 1027 m 1,117,-1
 1691 1103 l 1,118,-1
 2000 1412 l 1,119,-1
 2000 1344 l 1,120,-1
 1683 1027 l 1,117,-1
1632 1316 m 1,121,-1
 1816 1500 l 1,122,-1
 1884 1500 l 1,123,-1
 1652 1268 l 1,124,-1
 1632 1316 l 1,121,-1
217 500 m 256,125,126
 217 377 217 377 237 239 c 0,127,128
 268 26 268 26 330 26 c 256,129,130
 392 26 392 26 422 239 c 0,131,132
 441 374 441 374 441 500 c 256,133,134
 441 626 441 626 422 761 c 0,135,136
 392 974 392 974 330 974 c 256,137,138
 268 974 268 974 237 761 c 0,139,140
 217 623 217 623 217 500 c 256,125,126
405 993 m 1,141,142
 513 888 513 888 513 500 c 256,143,144
 513 112 513 112 405 7 c 1,145,-1
 503 7 l 1,146,-1
 614 103 l 1,147,-1
 614 -11 l 1,148,-1
 743 -20 l 1,149,150
 850 202 850 202 850 500 c 256,151,152
 850 798 850 798 743 1020 c 1,153,-1
 614 1011 l 1,154,-1
 614 897 l 1,155,-1
 503 993 l 1,156,-1
 405 993 l 1,141,142
808 -63 m 1,157,158
 1006 -310 1006 -310 1236 -328 c 0,159,160
 1320 -335 1320 -335 1396 -283 c 0,161,162
 1500 -212 1500 -212 1499 -64 c 0,163,164
 1497 187 1497 187 1211 355 c 0,165,166
 1092 425 1092 425 925 473 c 1,167,168
 923 366 923 366 910 268 c 0,169,170
 880 42 880 42 808 -63 c 1,157,158
1071 500 m 1,171,172
 1243 426 1243 426 1340 341 c 1,173,-1
 1340 659 l 1,174,175
 1240 572 1240 572 1071 500 c 1,171,172
1446 310 m 1,176,-1
 1743 310 l 1,177,-1
 1595 456 l 1,178,-1
 1446 310 l 1,176,-1
1411 650 m 1,179,-1
 1411 350 l 1,180,-1
 1557 500 l 1,181,-1
 1411 650 l 1,179,-1
808 1063 m 1,182,183
 917 906 917 906 925 527 c 1,184,185
 1092 575 1092 575 1211 645 c 0,186,187
 1497 813 1497 813 1499 1064 c 0,188,189
 1500 1213 1500 1213 1396 1284 c 0,190,191
 1319 1336 1319 1336 1236 1328 c 0,192,193
 1006 1306 1006 1306 808 1063 c 1,182,183
1636 500 m 1,194,-1
 1782 346 l 1,195,-1
 1782 654 l 1,196,-1
 1636 500 l 1,194,-1
1446 690 m 1,197,-1
 1595 544 l 1,198,-1
 1743 690 l 1,199,-1
 1446 690 l 1,197,-1
624 500 m 256,200,201
 624 617 624 617 674 617 c 256,202,203
 724 617 724 617 724 500 c 256,204,205
 724 383 724 383 674 383 c 256,206,207
 624 383 624 383 624 500 c 256,200,201
EndSplineSet
EndChar
StartChar: six
Encoding: 54 54 10
Width: 2000
Flags: W
Fore
140 500 m 256,0,1
 140 300 140 300 158 192 c 0,2,3
 192 -12 192 -12 295 -74 c 1,4,-1
 731 -99 l 1,5,6
 811 -221 811 -221 963 -311 c 0,7,8
 1121 -406 1121 -406 1260 -406 c 0,9,10
 1396 -406 1396 -406 1484 -303 c 0,11,12
 1569 -206 1569 -206 1569 -68 c 0,13,14
 1569 88 1569 88 1457 239 c 1,15,-1
 1850 239 l 1,16,-1
 1850 761 l 1,17,-1
 1457 761 l 1,18,19
 1569 912 1569 912 1569 1066 c 0,20,21
 1569 1215 1569 1215 1475 1313 c 0,22,23
 1377 1414 1377 1414 1230 1404 c 0,24,25
 1066 1392 1066 1392 903 1271 c 0,26,27
 786 1184 786 1184 731 1099 c 1,28,29
 655 1094 655 1094 295 1074 c 1,30,31
 192 1012 192 1012 158 808 c 0,32,33
 140 700 140 700 140 500 c 256,0,1
529 938 m 0,34,35
 513 996 513 996 545 1005 c 0,36,37
 575 1013 575 1013 591 953 c 0,38,39
 606 897 606 897 577 886 c 1,40,41
 545 879 545 879 529 938 c 0,34,35
341 62 m 0,42,43
 394 249 394 249 394 401 c 0,44,45
 394 451 394 451 389 500 c 1,46,47
 394 549 394 549 394 599 c 0,48,49
 394 751 394 751 341 938 c 0,50,51
 337 953 337 953 352.5 969.5 c 128,-1,52
 368 986 368 986 384 986 c 0,53,54
 436 986 436 986 460 766 c 0,55,56
 474 637 474 637 474 500 c 256,57,58
 474 363 474 363 460 234 c 0,59,60
 436 14 436 14 384 14 c 0,61,62
 368 14 368 14 352.5 30.5 c 128,-1,63
 337 47 337 47 341 62 c 0,42,43
581 500 m 256,64,65
 581 602 581 602 635 602 c 256,66,67
 689 602 689 602 689 500 c 256,68,69
 689 398 689 398 635 398 c 256,70,71
 581 398 581 398 581 500 c 256,64,65
704 10 m 1,72,73
 783 283 783 283 783 500 c 256,74,75
 783 717 783 717 704 990 c 1,76,77
 719 1024 719 1024 753 1023 c 0,78,79
 767 1023 767 1023 779 1018 c 1,80,-1
 821 967 l 1,81,82
 937 1141 937 1141 1146 1174 c 0,83,84
 1297 1177 1297 1177 1301 993 c 0,85,86
 1292 913 1292 913 1249 845 c 0,87,88
 1145 680 1145 680 886 594 c 1,89,-1
 886 406 l 1,90,91
 1271 278 1271 278 1301 7 c 0,92,93
 1297 -177 1297 -177 1146 -174 c 0,94,95
 937 -142 937 -142 821 33 c 1,96,-1
 779 -18 l 1,97,98
 767 -23 767 -23 753 -23 c 0,99,100
 719 -24 719 -24 704 10 c 1,72,73
529 62 m 0,101,102
 545 121 545 121 577 114 c 1,103,104
 606 103 606 103 591 47 c 0,105,106
 575 -13 575 -13 545 -5 c 0,107,108
 513 4 513 4 529 62 c 0,101,102
1149 500 m 256,109,110
 1149 545 1149 545 1178.5 577 c 128,-1,111
 1208 609 1208 609 1253 609 c 256,112,113
 1298 609 1298 609 1327.5 577 c 128,-1,114
 1357 545 1357 545 1357 500 c 256,115,116
 1357 455 1357 455 1327.5 423 c 128,-1,117
 1298 391 1298 391 1253 391 c 256,118,119
 1208 391 1208 391 1178.5 423 c 128,-1,120
 1149 455 1149 455 1149 500 c 256,109,110
1453 383 m 1,121,-1
 1556 500 l 1,122,-1
 1453 617 l 1,123,124
 1439 639 1439 639 1457 654 c 2,125,-1
 1495 686 l 2,126,127
 1515 703 1515 703 1531 684 c 2,128,-1
 1624 579 l 1,129,-1
 1716 681 l 2,130,131
 1732 699 1732 699 1752 682 c 2,132,-1
 1789 650 l 2,133,134
 1810 632 1810 632 1791 611 c 2,135,-1
 1691 500 l 1,136,-1
 1791 389 l 2,137,138
 1810 368 1810 368 1789 350 c 2,139,-1
 1752 318 l 2,140,141
 1732 301 1732 301 1716 319 c 2,142,-1
 1624 421 l 1,143,-1
 1531 316 l 2,144,145
 1515 297 1515 297 1495 314 c 2,146,-1
 1457 346 l 2,147,148
 1439 361 1439 361 1453 383 c 1,121,-1
859 863 m 1,149,150
 873 804 873 804 886 717 c 1,151,152
 1170 818 1170 818 1170 991 c 0,153,154
 1170 1036 1170 1036 1113 1038 c 0,155,156
 1052 1040 1052 1040 859 863 c 1,149,150
859 137 m 1,157,158
 1052 -40 1052 -40 1113 -38 c 0,159,160
 1176 -36 1176 -36 1169 22 c 0,161,162
 1162 75 1162 75 1137 114 c 0,163,164
 1069 218 1069 218 886 283 c 1,165,166
 880 242 880 242 859 137 c 1,157,158
EndSplineSet
EndChar
StartChar: seven
Encoding: 55 55 11
Width: 2000
Flags: W
Fore
233 -316 m 1,0,-1
 424 -125 l 1,1,-1
 461 -156 l 1,2,-1
 233 -384 l 1,3,-1
 233 -316 l 1,0,-1
321 -500 m 1,4,-1
 624 -197 l 1,5,-1
 690 -199 l 1,6,-1
 389 -500 l 1,7,-1
 321 -500 l 1,4,-1
233 -46 m 1,8,-1
 309 30 l 1,9,-1
 329 -18 l 1,10,-1
 233 -114 l 1,11,-1
 233 -46 l 1,8,-1
591 -500 m 1,12,-1
 893 -198 l 1,13,-1
 925 -234 l 1,14,-1
 659 -500 l 1,15,-1
 591 -500 l 1,12,-1
233 224 m 1,16,-1
 277 268 l 1,17,-1
 282 205 l 1,18,-1
 233 156 l 1,19,-1
 233 224 l 1,16,-1
861 -500 m 1,20,-1
 1020 -341 l 1,21,-1
 1057 -372 l 1,22,-1
 929 -500 l 1,23,-1
 861 -500 l 1,20,-1
1131 -500 m 1,24,-1
 1189 -442 l 1,25,-1
 1238 -461 l 1,26,-1
 1199 -500 l 1,27,-1
 1131 -500 l 1,24,-1
233 494 m 1,28,-1
 265 526 l 1,29,-1
 265 458 l 1,30,-1
 233 426 l 1,31,-1
 233 494 l 1,28,-1
233 764 m 1,32,-1
 288 819 l 1,33,-1
 279 742 l 1,34,-1
 233 696 l 1,35,-1
 233 764 l 1,32,-1
233 1034 m 1,36,-1
 699 1500 l 1,37,-1
 767 1500 l 1,38,-1
 233 966 l 1,39,-1
 233 1034 l 1,36,-1
233 1304 m 1,40,-1
 429 1500 l 1,41,-1
 497 1500 l 1,42,-1
 233 1236 l 1,43,-1
 233 1304 l 1,40,-1
1945 -500 m 1,44,-1
 2233 -208 l 1,45,-1
 2233 -276 l 1,46,-1
 2009 -500 l 1,47,-1
 1945 -500 l 1,44,-1
1675 -500 m 1,48,-1
 2233 62 l 1,49,-1
 2233 -6 l 1,50,-1
 1739 -500 l 1,51,-1
 1675 -500 l 1,48,-1
383 500 m 256,52,53
 383 700 383 700 401 808 c 0,54,55
 435 1012 435 1012 538 1074 c 1,56,-1
 974 1099 l 1,57,58
 1054 1221 1054 1221 1206 1311 c 0,59,60
 1364 1406 1364 1406 1503 1406 c 0,61,62
 1639 1406 1639 1406 1727 1303 c 0,63,64
 1812 1206 1812 1206 1812 1068 c 0,65,66
 1812 912 1812 912 1700 761 c 1,67,-1
 2093 761 l 1,68,-1
 2093 239 l 1,69,-1
 1700 239 l 1,70,71
 1812 88 1812 88 1812 -66 c 0,72,73
 1812 -215 1812 -215 1718 -313 c 0,74,75
 1620 -414 1620 -414 1473 -404 c 0,76,77
 1309 -392 1309 -392 1146 -271 c 0,78,79
 1029 -184 1029 -184 974 -99 c 1,80,81
 898 -94 898 -94 538 -74 c 1,82,83
 435 -12 435 -12 401 192 c 0,84,85
 383 300 383 300 383 500 c 256,52,53
1909 -60 m 1,86,-1
 1909 6 l 1,87,-1
 2031 129 l 1,88,-1
 2097 128 l 1,89,-1
 1909 -60 l 1,86,-1
668 1199 m 1,90,-1
 969 1500 l 1,91,-1
 1037 1500 l 1,92,-1
 742 1205 l 1,93,-1
 668 1199 l 1,90,-1
2212 243 m 1,94,-1
 2212 311 l 1,95,-1
 2233 332 l 1,96,-1
 2233 264 l 1,97,-1
 2212 243 l 1,94,-1
1182 1443 m 1,98,-1
 1239 1500 l 1,99,-1
 1307 1500 l 1,100,-1
 1182 1443 l 1,98,-1
2212 581 m 1,101,-1
 2233 602 l 1,102,-1
 2233 534 l 1,103,-1
 2212 513 l 1,104,-1
 2212 581 l 1,101,-1
2212 783 m 1,105,-1
 2212 851 l 1,106,-1
 2233 872 l 1,107,-1
 2233 804 l 1,108,-1
 2212 783 l 1,105,-1
1981 890 m 1,109,-1
 2233 1142 l 1,110,-1
 2233 1074 l 1,111,-1
 2049 890 l 1,112,-1
 1981 890 l 1,109,-1
1742 1463 m 1,113,-1
 1779 1500 l 1,114,-1
 1847 1500 l 1,115,-1
 1780 1433 l 1,116,-1
 1742 1463 l 1,113,-1
1916 1027 m 1,117,-1
 1924 1103 l 1,118,-1
 2233 1412 l 1,119,-1
 2233 1344 l 1,120,-1
 1916 1027 l 1,117,-1
1865 1316 m 1,121,-1
 2049 1500 l 1,122,-1
 2117 1500 l 1,123,-1
 1885 1268 l 1,124,-1
 1865 1316 l 1,121,-1
772 62 m 0,125,126
 756 4 756 4 788 -5 c 0,127,128
 818 -13 818 -13 834 47 c 0,129,130
 849 103 849 103 820 114 c 1,131,132
 788 121 788 121 772 62 c 0,125,126
584 938 m 0,133,134
 637 751 637 751 637 599 c 0,135,136
 637 549 637 549 632 500 c 1,137,138
 637 451 637 451 637 401 c 0,139,140
 637 249 637 249 584 62 c 0,141,142
 580 47 580 47 595.5 30.5 c 128,-1,143
 611 14 611 14 627 14 c 0,144,145
 679 14 679 14 703 234 c 0,146,147
 717 363 717 363 717 500 c 256,148,149
 717 637 717 637 703 766 c 0,150,151
 679 986 679 986 627 986 c 0,152,153
 611 986 611 986 595.5 969.5 c 128,-1,154
 580 953 580 953 584 938 c 0,133,134
824 500 m 256,155,156
 824 398 824 398 878 398 c 256,157,158
 932 398 932 398 932 500 c 256,159,160
 932 602 932 602 878 602 c 256,161,162
 824 602 824 602 824 500 c 256,155,156
947 990 m 1,163,164
 1026 717 1026 717 1026 500 c 256,165,166
 1026 283 1026 283 947 10 c 1,167,168
 962 -24 962 -24 996 -23 c 0,169,170
 1010 -23 1010 -23 1022 -18 c 1,171,-1
 1064 33 l 1,172,173
 1180 -141 1180 -141 1389 -174 c 0,174,175
 1540 -177 1540 -177 1544 7 c 0,176,177
 1535 87 1535 87 1492 155 c 0,178,179
 1388 320 1388 320 1129 406 c 1,180,-1
 1129 594 l 1,181,182
 1514 722 1514 722 1544 993 c 0,183,184
 1540 1177 1540 1177 1389 1174 c 0,185,186
 1180 1142 1180 1142 1064 967 c 1,187,-1
 1022 1018 l 1,188,189
 1010 1023 1010 1023 996 1023 c 0,190,191
 962 1024 962 1024 947 990 c 1,163,164
772 938 m 0,192,193
 788 879 788 879 820 886 c 1,194,195
 849 897 849 897 834 953 c 0,196,197
 818 1013 818 1013 788 1005 c 0,198,199
 756 996 756 996 772 938 c 0,192,193
1392 500 m 256,200,201
 1392 455 1392 455 1421.5 423 c 128,-1,202
 1451 391 1451 391 1496 391 c 256,203,204
 1541 391 1541 391 1570.5 423 c 128,-1,205
 1600 455 1600 455 1600 500 c 256,206,207
 1600 545 1600 545 1570.5 577 c 128,-1,208
 1541 609 1541 609 1496 609 c 256,209,210
 1451 609 1451 609 1421.5 577 c 128,-1,211
 1392 545 1392 545 1392 500 c 256,200,201
1696 617 m 1,212,-1
 1799 500 l 1,213,-1
 1696 383 l 1,214,215
 1682 361 1682 361 1700 346 c 2,216,-1
 1738 314 l 2,217,218
 1758 297 1758 297 1774 316 c 2,219,-1
 1867 421 l 1,220,-1
 1959 319 l 2,221,222
 1975 301 1975 301 1995 318 c 2,223,-1
 2032 350 l 2,224,225
 2053 368 2053 368 2034 389 c 2,226,-1
 1934 500 l 1,227,-1
 2034 611 l 2,228,229
 2053 632 2053 632 2032 650 c 2,230,-1
 1995 682 l 2,231,232
 1975 699 1975 699 1959 681 c 2,233,-1
 1867 579 l 1,234,-1
 1774 684 l 2,235,236
 1758 703 1758 703 1738 686 c 2,237,-1
 1700 654 l 2,238,239
 1682 639 1682 639 1696 617 c 1,212,-1
1102 137 m 1,240,241
 1116 196 1116 196 1129 283 c 1,242,243
 1413 182 1413 182 1413 9 c 0,244,245
 1413 -36 1413 -36 1356 -38 c 0,246,247
 1295 -40 1295 -40 1102 137 c 1,240,241
1102 863 m 1,248,249
 1295 1040 1295 1040 1356 1038 c 0,250,251
 1419 1036 1419 1036 1412 978 c 0,252,253
 1405 925 1405 925 1380 886 c 0,254,255
 1312 782 1312 782 1129 717 c 1,256,257
 1123 758 1123 758 1102 863 c 1,248,249
EndSplineSet
EndChar
StartChar: eight
Encoding: 56 56 12
Width: 2000
Flags: W
Fore
1190 64 m 1,0,-1
 1190 -233 l 1,1,-1
 1044 -85 l 1,2,-1
 1190 64 l 1,0,-1
1154 -272 m 1,3,-1
 846 -272 l 1,4,-1
 1000 -126 l 1,5,-1
 1154 -272 l 1,3,-1
1828 274 m 0,6,7
 1835 190 1835 190 1783 114 c 0,8,9
 1712 10 1712 10 1564 11 c 0,10,11
 1313 13 1313 13 1145 299 c 0,12,13
 1075 418 1075 418 1027 585 c 1,14,15
 1134 587 1134 587 1232 600 c 0,16,17
 1458 630 1458 630 1563 702 c 1,18,19
 1810 504 1810 504 1828 274 c 0,6,7
1150 99 m 1,20,-1
 1000 -47 l 1,21,-1
 850 99 l 1,22,-1
 1150 99 l 1,20,-1
956 -85 m 1,23,-1
 810 -233 l 1,24,-1
 810 64 l 1,25,-1
 956 -85 l 1,23,-1
1159 170 m 1,26,-1
 841 170 l 1,27,28
 928 270 928 270 1000 439 c 1,29,30
 1074 267 1074 267 1159 170 c 1,26,-1
973 585 m 1,31,32
 925 418 925 418 855 299 c 0,33,34
 687 13 687 13 436 11 c 0,35,36
 287 10 287 10 216 114 c 0,37,38
 164 191 164 191 172 274 c 0,39,40
 194 504 194 504 437 702 c 1,41,42
 594 593 594 593 973 585 c 1,31,32
1520 767 m 1,43,44
 1298 660 1298 660 1000 660 c 256,45,46
 702 660 702 660 480 767 c 1,47,-1
 489 896 l 1,48,-1
 603 896 l 1,49,-1
 507 1007 l 1,50,-1
 507 1105 l 1,51,52
 612 997 612 997 1000 997 c 256,53,54
 1388 997 1388 997 1493 1105 c 1,55,-1
 1493 1007 l 1,56,-1
 1397 896 l 1,57,-1
 1511 896 l 1,58,-1
 1520 767 l 1,43,44
1474 1180 m 256,59,60
 1474 1118 1474 1118 1261 1088 c 0,61,62
 1126 1069 1126 1069 1000 1069 c 256,63,64
 874 1069 874 1069 739 1088 c 0,65,66
 526 1118 526 1118 526 1180 c 256,67,68
 526 1242 526 1242 739 1273 c 0,69,70
 877 1293 877 1293 1000 1293 c 256,71,72
 1123 1293 1123 1293 1261 1273 c 0,73,74
 1474 1242 1474 1242 1474 1180 c 256,59,60
1117 836 m 256,75,76
 1117 886 1117 886 1000 886 c 256,77,78
 883 886 883 886 883 836 c 256,79,80
 883 786 883 786 1000 786 c 256,81,82
 1117 786 1117 786 1117 836 c 256,75,76
1904 270 m 0,83,84
 1892 434 1892 434 1771 597 c 0,85,86
 1684 714 1684 714 1599 769 c 1,87,88
 1594 845 1594 845 1574 1205 c 1,89,90
 1512 1308 1512 1308 1308 1342 c 0,91,92
 1200 1360 1200 1360 1000 1360 c 256,93,94
 800 1360 800 1360 692 1342 c 0,95,96
 488 1308 488 1308 426 1205 c 1,97,-1
 401 769 l 1,98,99
 279 689 279 689 189 537 c 0,100,101
 94 379 94 379 94 240 c 0,102,103
 94 104 94 104 197 16 c 0,104,105
 294 -69 294 -69 432 -69 c 0,106,107
 588 -69 588 -69 739 43 c 1,108,-1
 739 -350 l 1,109,-1
 1261 -350 l 1,110,-1
 1261 43 l 1,111,112
 1412 -69 1412 -69 1566 -69 c 0,113,114
 1715 -69 1715 -69 1813 25 c 0,115,116
 1914 123 1914 123 1904 270 c 0,83,84
EndSplineSet
EndChar
StartChar: nine
Encoding: 57 57 13
Width: 2000
Flags: W
Fore
0 -344 m 1,0,-1
 202 -142 l 1,1,-1
 255 -157 l 1,2,-1
 0 -412 l 1,3,-1
 0 -344 l 1,0,-1
116 -500 m 1,4,-1
 405 -211 l 1,5,-1
 486 -198 l 1,6,-1
 184 -500 l 1,7,-1
 116 -500 l 1,4,-1
0 -74 m 1,8,-1
 50 -24 l 1,9,-1
 82 -60 l 1,10,-1
 0 -142 l 1,11,-1
 0 -74 l 1,8,-1
386 -500 m 1,12,-1
 622 -264 l 1,13,-1
 622 -332 l 1,14,-1
 454 -500 l 1,15,-1
 386 -500 l 1,12,-1
656 -500 m 1,16,-1
 686 -470 l 1,17,-1
 754 -470 l 1,18,-1
 724 -500 l 1,19,-1
 656 -500 l 1,16,-1
926 -500 m 1,20,-1
 956 -470 l 1,21,-1
 1024 -470 l 1,22,-1
 994 -500 l 1,23,-1
 926 -500 l 1,20,-1
1196 -500 m 1,24,-1
 1226 -470 l 1,25,-1
 1294 -470 l 1,26,-1
 1264 -500 l 1,27,-1
 1196 -500 l 1,24,-1
0 736 m 1,28,-1
 285 1021 l 1,29,-1
 281 949 l 1,30,-1
 0 668 l 1,31,-1
 0 736 l 1,28,-1
1395 -369 m 1,32,-1
 1399 -297 l 1,33,-1
 1515 -181 l 1,34,-1
 1581 -183 l 1,35,-1
 1395 -369 l 1,32,-1
96 260 m 0,36,37
 108 424 108 424 229 587 c 0,38,39
 316 704 316 704 401 759 c 1,40,41
 406 835 406 835 426 1195 c 1,42,43
 488 1298 488 1298 692 1332 c 0,44,45
 800 1350 800 1350 1000 1350 c 256,46,47
 1200 1350 1200 1350 1308 1332 c 0,48,49
 1512 1298 1512 1298 1574 1195 c 1,50,-1
 1599 759 l 1,51,52
 1721 679 1721 679 1811 527 c 0,53,54
 1906 369 1906 369 1906 230 c 0,55,56
 1906 94 1906 94 1803 6 c 0,57,58
 1706 -79 1706 -79 1568 -79 c 0,59,60
 1412 -79 1412 -79 1261 33 c 1,61,-1
 1261 -360 l 1,62,-1
 739 -360 l 1,63,-1
 739 33 l 1,64,65
 588 -79 588 -79 434 -79 c 0,66,67
 285 -79 285 -79 187 15 c 0,68,69
 86 113 86 113 96 260 c 0,36,37
1736 -500 m 1,70,-1
 2000 -236 l 1,71,-1
 2000 -304 l 1,72,-1
 1804 -500 l 1,73,-1
 1736 -500 l 1,70,-1
0 1006 m 1,74,-1
 494 1500 l 1,75,-1
 562 1500 l 1,76,-1
 0 938 l 1,77,-1
 0 1006 l 1,74,-1
0 1276 m 1,78,-1
 224 1500 l 1,79,-1
 292 1500 l 1,80,-1
 0 1208 l 1,81,-1
 0 1276 l 1,78,-1
1466 -500 m 1,82,-1
 2000 34 l 1,83,-1
 2000 -34 l 1,84,-1
 1534 -500 l 1,85,-1
 1466 -500 l 1,82,-1
707 1443 m 1,86,-1
 764 1500 l 1,87,-1
 832 1500 l 1,88,-1
 784 1452 l 1,89,-1
 707 1443 l 1,86,-1
1970 544 m 1,90,-1
 2000 574 l 1,91,-1
 2000 506 l 1,92,-1
 1988 494 l 1,93,-1
 1970 544 l 1,90,-1
999 1465 m 1,94,-1
 1034 1500 l 1,95,-1
 1102 1500 l 1,96,-1
 1067 1465 l 1,97,-1
 999 1465 l 1,94,-1
1863 707 m 1,98,-1
 2000 844 l 1,99,-1
 2000 776 l 1,100,-1
 1891 667 l 1,101,-1
 1863 707 l 1,98,-1
1263 1459 m 1,102,-1
 1304 1500 l 1,103,-1
 1372 1500 l 1,104,-1
 1326 1454 l 1,105,-1
 1263 1459 l 1,102,-1
1717 831 m 1,106,-1
 2000 1114 l 1,107,-1
 2000 1046 l 1,108,-1
 1750 796 l 1,109,-1
 1717 831 l 1,106,-1
1489 1415 m 1,110,-1
 1574 1500 l 1,111,-1
 1642 1500 l 1,112,-1
 1536 1394 l 1,113,-1
 1489 1415 l 1,110,-1
1695 1079 m 1,114,-1
 2000 1384 l 1,115,-1
 2000 1316 l 1,116,-1
 1699 1015 l 1,117,-1
 1695 1079 l 1,114,-1
1651 1307 m 1,118,-1
 1844 1500 l 1,119,-1
 1912 1500 l 1,120,-1
 1685 1273 l 1,121,-1
 1651 1307 l 1,118,-1
810 54 m 1,122,-1
 810 -243 l 1,123,-1
 956 -95 l 1,124,-1
 810 54 l 1,122,-1
846 -282 m 1,125,-1
 1154 -282 l 1,126,-1
 1000 -136 l 1,127,-1
 846 -282 l 1,125,-1
172 264 m 0,128,129
 165 180 165 180 217 104 c 0,130,131
 288 0 288 0 436 1 c 0,132,133
 687 3 687 3 855 289 c 0,134,135
 925 408 925 408 973 575 c 1,136,137
 866 577 866 577 768 590 c 0,138,139
 542 620 542 620 437 692 c 1,140,141
 190 494 190 494 172 264 c 0,128,129
850 89 m 1,142,-1
 1000 -57 l 1,143,-1
 1150 89 l 1,144,-1
 850 89 l 1,142,-1
1044 -95 m 1,145,-1
 1190 -243 l 1,146,-1
 1190 54 l 1,147,-1
 1044 -95 l 1,145,-1
841 160 m 1,148,-1
 1159 160 l 1,149,150
 1072 260 1072 260 1000 429 c 1,151,152
 926 257 926 257 841 160 c 1,148,-1
1027 575 m 1,153,154
 1075 408 1075 408 1145 289 c 0,155,156
 1313 3 1313 3 1564 1 c 0,157,158
 1713 0 1713 0 1784 104 c 0,159,160
 1836 181 1836 181 1828 264 c 0,161,162
 1806 494 1806 494 1563 692 c 1,163,164
 1406 583 1406 583 1027 575 c 1,153,154
480 757 m 1,165,166
 702 650 702 650 1000 650 c 256,167,168
 1298 650 1298 650 1520 757 c 1,169,-1
 1511 886 l 1,170,-1
 1397 886 l 1,171,-1
 1493 997 l 1,172,-1
 1493 1095 l 1,173,174
 1388 987 1388 987 1000 987 c 256,175,176
 612 987 612 987 507 1095 c 1,177,-1
 507 997 l 1,178,-1
 603 886 l 1,179,-1
 489 886 l 1,180,-1
 480 757 l 1,165,166
526 1170 m 256,181,182
 526 1108 526 1108 739 1078 c 0,183,184
 874 1059 874 1059 1000 1059 c 256,185,186
 1126 1059 1126 1059 1261 1078 c 0,187,188
 1474 1108 1474 1108 1474 1170 c 256,189,190
 1474 1232 1474 1232 1261 1263 c 0,191,192
 1123 1283 1123 1283 1000 1283 c 256,193,194
 877 1283 877 1283 739 1263 c 0,195,196
 526 1232 526 1232 526 1170 c 256,181,182
883 826 m 256,197,198
 883 876 883 876 1000 876 c 256,199,200
 1117 876 1117 876 1117 826 c 256,201,202
 1117 776 1117 776 1000 776 c 256,203,204
 883 776 883 776 883 826 c 256,197,198
EndSplineSet
EndChar
StartChar: A
Encoding: 65 65 14
Width: 2000
Flags: W
Fore
1904 266 m 0,0,1
 1892 430 1892 430 1771 593 c 0,2,3
 1684 710 1684 710 1599 765 c 1,4,5
 1594 841 1594 841 1574 1201 c 1,6,7
 1512 1304 1512 1304 1308 1338 c 0,8,9
 1200 1356 1200 1356 1000 1356 c 256,10,11
 800 1356 800 1356 692 1338 c 0,12,13
 488 1304 488 1304 426 1201 c 1,14,-1
 401 765 l 1,15,16
 279 685 279 685 189 533 c 0,17,18
 94 375 94 375 94 236 c 0,19,20
 94 100 94 100 197 12 c 0,21,22
 294 -73 294 -73 432 -73 c 0,23,24
 588 -73 588 -73 739 39 c 1,25,-1
 739 -354 l 1,26,-1
 1261 -354 l 1,27,-1
 1261 39 l 1,28,29
 1412 -73 1412 -73 1566 -73 c 0,30,31
 1715 -73 1715 -73 1813 21 c 0,32,33
 1914 119 1914 119 1904 266 c 0,0,1
1186 -3 m 2,34,35
 1203 -23 1203 -23 1184 -39 c 2,36,-1
 1079 -132 l 1,37,-1
 1181 -224 l 2,38,39
 1199 -240 1199 -240 1182 -260 c 2,40,-1
 1150 -297 l 2,41,42
 1132 -318 1132 -318 1111 -299 c 2,43,-1
 1000 -199 l 1,44,-1
 889 -299 l 2,45,46
 868 -318 868 -318 850 -297 c 2,47,-1
 818 -260 l 2,48,49
 801 -240 801 -240 819 -224 c 2,50,-1
 921 -132 l 1,51,-1
 816 -39 l 2,52,53
 797 -23 797 -23 814 -3 c 2,54,-1
 846 35 l 2,55,56
 861 53 861 53 883 39 c 1,57,-1
 1000 -64 l 1,58,-1
 1117 39 l 1,59,60
 1139 53 1139 53 1154 35 c 2,61,-1
 1186 -3 l 2,34,35
1109 239 m 256,62,63
 1109 194 1109 194 1077 164.5 c 128,-1,64
 1045 135 1045 135 1000 135 c 256,65,66
 955 135 955 135 923 164.5 c 128,-1,67
 891 194 891 194 891 239 c 256,68,69
 891 284 891 284 923 313.5 c 128,-1,70
 955 343 955 343 1000 343 c 256,71,72
 1045 343 1045 343 1077 313.5 c 128,-1,73
 1109 284 1109 284 1109 239 c 256,62,63
1505 947 m 0,74,75
 1513 917 1513 917 1453 901 c 0,76,77
 1397 886 1397 886 1386 915 c 1,78,79
 1379 947 1379 947 1438 963 c 0,80,81
 1496 979 1496 979 1505 947 c 0,74,75
1674 346 m 0,82,83
 1677 195 1677 195 1493 191 c 0,84,85
 1413 200 1413 200 1345 243 c 0,86,87
 1180 347 1180 347 1094 606 c 1,88,-1
 906 606 l 1,89,90
 778 221 778 221 507 191 c 0,91,92
 323 195 323 195 326 346 c 0,93,94
 358 555 358 555 533 671 c 1,95,-1
 482 713 l 1,96,97
 477 725 477 725 477 739 c 0,98,99
 476 773 476 773 510 788 c 1,100,101
 783 709 783 709 1000 709 c 256,102,103
 1217 709 1217 709 1490 788 c 1,104,105
 1524 773 1524 773 1523 739 c 0,106,107
 1523 725 1523 725 1518 713 c 1,108,-1
 1467 671 l 1,109,110
 1641 555 1641 555 1674 346 c 0,82,83
1102 857 m 256,111,112
 1102 803 1102 803 1000 803 c 256,113,114
 898 803 898 803 898 857 c 256,115,116
 898 911 898 911 1000 911 c 256,117,118
 1102 911 1102 911 1102 857 c 256,111,112
1000 1018 m 0,120,121
 863 1018 863 1018 734 1032 c 0,122,123
 514 1056 514 1056 514 1108 c 0,124,125
 514 1124 514 1124 530.5 1139.5 c 128,-1,126
 547 1155 547 1155 562 1151 c 0,127,128
 749 1098 749 1098 901 1098 c 0,129,130
 951 1098 951 1098 1000 1103 c 1,131,132
 1049 1098 1049 1098 1099 1098 c 0,133,134
 1251 1098 1251 1098 1438 1151 c 0,135,136
 1453 1155 1453 1155 1469.5 1139.5 c 128,-1,137
 1486 1124 1486 1124 1486 1108 c 0,138,139
 1486 1066 1486 1066 1337.5 1042 c 128,-1,119
 1189 1018 1189 1018 1000 1018 c 0,120,121
614 915 m 1,140,141
 603 886 603 886 547 901 c 0,142,143
 487 917 487 917 495 947 c 0,144,145
 504 979 504 979 562 963 c 0,146,147
 621 947 621 947 614 915 c 1,140,141
1538 379 m 0,148,149
 1540 440 1540 440 1363 633 c 1,150,151
 1304 619 1304 619 1217 606 c 1,152,153
 1318 322 1318 322 1491 322 c 0,154,155
 1536 322 1536 322 1538 379 c 0,148,149
783 606 m 1,156,157
 742 612 742 612 637 633 c 1,158,159
 460 440 460 440 462 379 c 0,160,161
 464 316 464 316 522 323 c 0,162,163
 575 330 575 330 614 355 c 0,164,165
 718 423 718 423 783 606 c 1,156,157
EndSplineSet
EndChar
StartChar: B
Encoding: 66 66 15
Width: 2000
Flags: W
Fore
0 -344 m 1,0,-1
 202 -142 l 1,1,-1
 255 -157 l 1,2,-1
 0 -412 l 1,3,-1
 0 -344 l 1,0,-1
116 -500 m 1,4,-1
 405 -211 l 1,5,-1
 486 -198 l 1,6,-1
 184 -500 l 1,7,-1
 116 -500 l 1,4,-1
0 -74 m 1,8,-1
 50 -24 l 1,9,-1
 82 -60 l 1,10,-1
 0 -142 l 1,11,-1
 0 -74 l 1,8,-1
386 -500 m 1,12,-1
 622 -264 l 1,13,-1
 622 -332 l 1,14,-1
 454 -500 l 1,15,-1
 386 -500 l 1,12,-1
656 -500 m 1,16,-1
 686 -470 l 1,17,-1
 754 -470 l 1,18,-1
 724 -500 l 1,19,-1
 656 -500 l 1,16,-1
926 -500 m 1,20,-1
 956 -470 l 1,21,-1
 1024 -470 l 1,22,-1
 994 -500 l 1,23,-1
 926 -500 l 1,20,-1
1196 -500 m 1,24,-1
 1226 -470 l 1,25,-1
 1294 -470 l 1,26,-1
 1264 -500 l 1,27,-1
 1196 -500 l 1,24,-1
0 736 m 1,28,-1
 285 1021 l 1,29,-1
 281 949 l 1,30,-1
 0 668 l 1,31,-1
 0 736 l 1,28,-1
1395 -369 m 1,32,-1
 1399 -297 l 1,33,-1
 1515 -181 l 1,34,-1
 1581 -183 l 1,35,-1
 1395 -369 l 1,32,-1
96 260 m 0,36,37
 108 424 108 424 229 587 c 0,38,39
 316 704 316 704 401 759 c 1,40,41
 406 835 406 835 426 1195 c 1,42,43
 488 1298 488 1298 692 1332 c 0,44,45
 800 1350 800 1350 1000 1350 c 256,46,47
 1200 1350 1200 1350 1308 1332 c 0,48,49
 1512 1298 1512 1298 1574 1195 c 1,50,-1
 1599 759 l 1,51,52
 1721 679 1721 679 1811 527 c 0,53,54
 1906 369 1906 369 1906 230 c 0,55,56
 1906 94 1906 94 1803 6 c 0,57,58
 1706 -79 1706 -79 1568 -79 c 0,59,60
 1412 -79 1412 -79 1261 33 c 1,61,-1
 1261 -360 l 1,62,-1
 739 -360 l 1,63,-1
 739 33 l 1,64,65
 588 -79 588 -79 434 -79 c 0,66,67
 285 -79 285 -79 187 15 c 0,68,69
 86 113 86 113 96 260 c 0,36,37
1736 -500 m 1,70,-1
 2000 -236 l 1,71,-1
 2000 -304 l 1,72,-1
 1804 -500 l 1,73,-1
 1736 -500 l 1,70,-1
1466 -500 m 1,74,-1
 2000 34 l 1,75,-1
 2000 -34 l 1,76,-1
 1534 -500 l 1,77,-1
 1466 -500 l 1,74,-1
0 1006 m 1,78,-1
 494 1500 l 1,79,-1
 562 1500 l 1,80,-1
 0 938 l 1,81,-1
 0 1006 l 1,78,-1
0 1276 m 1,82,-1
 224 1500 l 1,83,-1
 292 1500 l 1,84,-1
 0 1208 l 1,85,-1
 0 1276 l 1,82,-1
707 1443 m 1,86,-1
 764 1500 l 1,87,-1
 832 1500 l 1,88,-1
 784 1452 l 1,89,-1
 707 1443 l 1,86,-1
1970 544 m 1,90,-1
 2000 574 l 1,91,-1
 2000 506 l 1,92,-1
 1988 494 l 1,93,-1
 1970 544 l 1,90,-1
999 1465 m 1,94,-1
 1034 1500 l 1,95,-1
 1102 1500 l 1,96,-1
 1067 1465 l 1,97,-1
 999 1465 l 1,94,-1
1863 707 m 1,98,-1
 2000 844 l 1,99,-1
 2000 776 l 1,100,-1
 1891 667 l 1,101,-1
 1863 707 l 1,98,-1
1263 1459 m 1,102,-1
 1304 1500 l 1,103,-1
 1372 1500 l 1,104,-1
 1326 1454 l 1,105,-1
 1263 1459 l 1,102,-1
1717 831 m 1,106,-1
 2000 1114 l 1,107,-1
 2000 1046 l 1,108,-1
 1750 796 l 1,109,-1
 1717 831 l 1,106,-1
1489 1415 m 1,110,-1
 1574 1500 l 1,111,-1
 1642 1500 l 1,112,-1
 1536 1394 l 1,113,-1
 1489 1415 l 1,110,-1
1695 1079 m 1,114,-1
 2000 1384 l 1,115,-1
 2000 1316 l 1,116,-1
 1699 1015 l 1,117,-1
 1695 1079 l 1,114,-1
1651 1307 m 1,118,-1
 1844 1500 l 1,119,-1
 1912 1500 l 1,120,-1
 1685 1273 l 1,121,-1
 1651 1307 l 1,118,-1
814 -5 m 2,122,123
 797 -25 797 -25 816 -41 c 2,124,-1
 921 -134 l 1,125,-1
 819 -226 l 2,126,127
 801 -242 801 -242 818 -262 c 2,128,-1
 850 -299 l 2,129,130
 868 -320 868 -320 889 -301 c 2,131,-1
 1000 -201 l 1,132,-1
 1111 -301 l 2,133,134
 1132 -320 1132 -320 1150 -299 c 2,135,-1
 1182 -262 l 2,136,137
 1199 -242 1199 -242 1181 -226 c 2,138,-1
 1079 -134 l 1,139,-1
 1184 -41 l 2,140,141
 1203 -25 1203 -25 1186 -5 c 2,142,-1
 1154 33 l 2,143,144
 1139 51 1139 51 1117 37 c 1,145,-1
 1000 -66 l 1,146,-1
 883 37 l 1,147,148
 861 51 861 51 846 33 c 2,149,-1
 814 -5 l 2,122,123
891 237 m 256,150,151
 891 192 891 192 923 162.5 c 128,-1,152
 955 133 955 133 1000 133 c 256,153,154
 1045 133 1045 133 1077 162.5 c 128,-1,155
 1109 192 1109 192 1109 237 c 256,156,157
 1109 282 1109 282 1077 311.5 c 128,-1,158
 1045 341 1045 341 1000 341 c 256,159,160
 955 341 955 341 923 311.5 c 128,-1,161
 891 282 891 282 891 237 c 256,150,151
495 945 m 0,162,163
 487 915 487 915 547 899 c 0,164,165
 603 884 603 884 614 913 c 1,166,167
 621 945 621 945 562 961 c 0,168,169
 504 977 504 977 495 945 c 0,162,163
326 344 m 0,170,171
 323 193 323 193 507 189 c 0,172,173
 587 198 587 198 655 241 c 0,174,175
 820 345 820 345 906 604 c 1,176,-1
 1094 604 l 1,177,178
 1222 219 1222 219 1493 189 c 0,179,180
 1677 193 1677 193 1674 344 c 0,181,182
 1642 553 1642 553 1467 669 c 1,183,-1
 1518 711 l 1,184,185
 1523 723 1523 723 1523 737 c 0,186,187
 1524 771 1524 771 1490 786 c 1,188,189
 1217 707 1217 707 1000 707 c 256,190,191
 783 707 783 707 510 786 c 1,192,193
 476 771 476 771 477 737 c 0,194,195
 477 723 477 723 482 711 c 1,196,-1
 533 669 l 1,197,198
 359 553 359 553 326 344 c 0,170,171
898 855 m 256,199,200
 898 801 898 801 1000 801 c 256,201,202
 1102 801 1102 801 1102 855 c 256,203,204
 1102 909 1102 909 1000 909 c 256,205,206
 898 909 898 909 898 855 c 256,199,200
1000 1016 m 0,208,209
 1137 1016 1137 1016 1266 1030 c 0,210,211
 1486 1054 1486 1054 1486 1106 c 0,212,213
 1486 1122 1486 1122 1469.5 1137.5 c 128,-1,214
 1453 1153 1453 1153 1438 1149 c 0,215,216
 1251 1096 1251 1096 1099 1096 c 0,217,218
 1049 1096 1049 1096 1000 1101 c 1,219,220
 951 1096 951 1096 901 1096 c 0,221,222
 749 1096 749 1096 562 1149 c 0,223,224
 547 1153 547 1153 530.5 1137.5 c 128,-1,225
 514 1122 514 1122 514 1106 c 0,226,227
 514 1064 514 1064 662.5 1040 c 128,-1,207
 811 1016 811 1016 1000 1016 c 0,208,209
1386 913 m 1,228,229
 1397 884 1397 884 1453 899 c 0,230,231
 1513 915 1513 915 1505 945 c 0,232,233
 1496 977 1496 977 1438 961 c 0,234,235
 1379 945 1379 945 1386 913 c 1,228,229
462 377 m 0,236,237
 460 438 460 438 637 631 c 1,238,239
 696 617 696 617 783 604 c 1,240,241
 682 320 682 320 509 320 c 0,242,243
 464 320 464 320 462 377 c 0,236,237
1217 604 m 1,244,245
 1258 610 1258 610 1363 631 c 1,246,247
 1540 438 1540 438 1538 377 c 0,248,249
 1536 314 1536 314 1478 321 c 0,250,251
 1425 328 1425 328 1386 353 c 0,252,253
 1282 421 1282 421 1217 604 c 1,244,245
EndSplineSet
EndChar
StartChar: C
Encoding: 67 67 16
Width: 2000
Flags: W
Fore
760 1404 m 0,0,1
 924 1392 924 1392 1087 1271 c 0,2,3
 1204 1184 1204 1184 1259 1099 c 1,4,5
 1335 1094 1335 1094 1695 1074 c 1,6,7
 1798 1012 1798 1012 1832 808 c 0,8,9
 1850 700 1850 700 1850 500 c 256,10,11
 1850 300 1850 300 1832 192 c 0,12,13
 1798 -12 1798 -12 1695 -74 c 1,14,-1
 1259 -99 l 1,15,16
 1179 -221 1179 -221 1027 -311 c 0,17,18
 869 -406 869 -406 730 -406 c 256,19,20
 591 -406 591 -406 504 -305 c 0,21,22
 421 -208 421 -208 421 -67 c 0,23,24
 421 88 421 88 533 239 c 1,25,-1
 140 239 l 1,26,-1
 140 761 l 1,27,-1
 533 761 l 1,28,29
 421 912 421 912 421 1066 c 0,30,31
 421 1215 421 1215 515 1313 c 0,32,33
 613 1414 613 1414 760 1404 c 0,0,1
554 690 m 1,34,-1
 257 690 l 1,35,-1
 405 544 l 1,36,-1
 554 690 l 1,34,-1
218 654 m 1,37,-1
 218 346 l 1,38,-1
 364 500 l 1,39,-1
 218 654 l 1,37,-1
764 1328 m 0,40,41
 680 1335 680 1335 604 1283 c 0,42,43
 500 1212 500 1212 501 1064 c 0,44,45
 503 813 503 813 789 645 c 0,46,47
 908 575 908 575 1075 527 c 1,48,49
 1077 634 1077 634 1090 732 c 0,50,51
 1120 958 1120 958 1192 1063 c 1,52,53
 994 1310 994 1310 764 1328 c 0,40,41
589 650 m 1,54,-1
 443 500 l 1,55,-1
 589 350 l 1,56,-1
 589 650 l 1,54,-1
405 456 m 1,57,-1
 257 310 l 1,58,-1
 554 310 l 1,59,-1
 405 456 l 1,57,-1
660 659 m 1,60,-1
 660 341 l 1,61,62
 760 428 760 428 929 500 c 1,63,64
 757 574 757 574 660 659 c 1,60,-1
1075 473 m 1,65,66
 908 425 908 425 789 355 c 0,67,68
 503 187 503 187 501 -64 c 0,69,70
 500 -213 500 -213 604 -284 c 0,71,72
 681 -336 681 -336 764 -328 c 0,73,74
 994 -306 994 -306 1192 -63 c 1,75,76
 1083 94 1083 94 1075 473 c 1,65,66
1257 1020 m 1,77,78
 1150 798 1150 798 1150 500 c 256,79,80
 1150 202 1150 202 1257 -20 c 1,81,-1
 1386 -11 l 1,82,-1
 1386 103 l 1,83,-1
 1497 7 l 1,84,-1
 1595 7 l 1,85,86
 1487 112 1487 112 1487 500 c 256,87,88
 1487 888 1487 888 1595 993 c 1,89,-1
 1497 993 l 1,90,-1
 1386 897 l 1,91,-1
 1386 1011 l 1,92,-1
 1257 1020 l 1,77,78
1670 974 m 256,93,94
 1608 974 1608 974 1578 761 c 0,95,96
 1559 626 1559 626 1559 500 c 256,97,98
 1559 374 1559 374 1578 239 c 0,99,100
 1608 26 1608 26 1670 26 c 256,101,102
 1732 26 1732 26 1763 239 c 0,103,104
 1783 377 1783 377 1783 500 c 256,105,106
 1783 623 1783 623 1763 761 c 0,107,108
 1732 974 1732 974 1670 974 c 256,93,94
1326 617 m 256,109,110
 1376 617 1376 617 1376 500 c 256,111,112
 1376 383 1376 383 1326 383 c 256,113,114
 1276 383 1276 383 1276 500 c 256,115,116
 1276 617 1276 617 1326 617 c 256,109,110
EndSplineSet
EndChar
StartChar: D
Encoding: 68 68 17
Width: 2000
Flags: W
Fore
2000 1316 m 1,0,-1
 1809 1125 l 1,1,-1
 1772 1156 l 1,2,-1
 2000 1384 l 1,3,-1
 2000 1316 l 1,0,-1
1912 1500 m 1,4,-1
 1609 1197 l 1,5,-1
 1543 1199 l 1,6,-1
 1844 1500 l 1,7,-1
 1912 1500 l 1,4,-1
2000 1046 m 1,8,-1
 1924 970 l 1,9,-1
 1904 1018 l 1,10,-1
 2000 1114 l 1,11,-1
 2000 1046 l 1,8,-1
1642 1500 m 1,12,-1
 1340 1198 l 1,13,-1
 1308 1234 l 1,14,-1
 1574 1500 l 1,15,-1
 1642 1500 l 1,12,-1
2000 776 m 1,16,-1
 1956 732 l 1,17,-1
 1951 795 l 1,18,-1
 2000 844 l 1,19,-1
 2000 776 l 1,16,-1
1372 1500 m 1,20,-1
 1213 1341 l 1,21,-1
 1176 1372 l 1,22,-1
 1304 1500 l 1,23,-1
 1372 1500 l 1,20,-1
1102 1500 m 1,24,-1
 1044 1442 l 1,25,-1
 995 1461 l 1,26,-1
 1034 1500 l 1,27,-1
 1102 1500 l 1,24,-1
2000 506 m 1,28,-1
 1968 474 l 1,29,-1
 1968 542 l 1,30,-1
 2000 574 l 1,31,-1
 2000 506 l 1,28,-1
2000 236 m 1,32,-1
 1945 181 l 1,33,-1
 1954 258 l 1,34,-1
 2000 304 l 1,35,-1
 2000 236 l 1,32,-1
2000 -34 m 1,36,-1
 1534 -500 l 1,37,-1
 1466 -500 l 1,38,-1
 2000 34 l 1,39,-1
 2000 -34 l 1,36,-1
2000 -304 m 1,40,-1
 1804 -500 l 1,41,-1
 1736 -500 l 1,42,-1
 2000 -236 l 1,43,-1
 2000 -304 l 1,40,-1
288 1500 m 1,44,-1
 0 1208 l 1,45,-1
 0 1276 l 1,46,-1
 224 1500 l 1,47,-1
 288 1500 l 1,44,-1
558 1500 m 1,48,-1
 0 938 l 1,49,-1
 0 1006 l 1,50,-1
 494 1500 l 1,51,-1
 558 1500 l 1,48,-1
1850 500 m 256,52,53
 1850 300 1850 300 1832 192 c 0,54,55
 1798 -12 1798 -12 1695 -74 c 1,56,-1
 1259 -99 l 1,57,58
 1179 -221 1179 -221 1027 -311 c 0,59,60
 869 -406 869 -406 730 -406 c 0,61,62
 594 -406 594 -406 506 -303 c 0,63,64
 421 -206 421 -206 421 -68 c 0,65,66
 421 88 421 88 533 239 c 1,67,-1
 140 239 l 1,68,-1
 140 761 l 1,69,-1
 533 761 l 1,70,71
 421 912 421 912 421 1066 c 0,72,73
 421 1216 421 1216 515 1313 c 0,74,75
 612 1414 612 1414 760 1404 c 0,76,77
 924 1392 924 1392 1087 1271 c 0,78,79
 1204 1184 1204 1184 1259 1099 c 1,80,81
 1335 1094 1335 1094 1695 1074 c 1,82,83
 1798 1012 1798 1012 1832 808 c 0,84,85
 1850 700 1850 700 1850 500 c 256,52,53
324 1060 m 1,86,-1
 324 994 l 1,87,-1
 202 871 l 1,88,-1
 136 872 l 1,89,-1
 324 1060 l 1,86,-1
1565 -199 m 1,90,-1
 1264 -500 l 1,91,-1
 1196 -500 l 1,92,-1
 1491 -205 l 1,93,-1
 1565 -199 l 1,90,-1
21 757 m 1,94,-1
 21 689 l 1,95,-1
 0 668 l 1,96,-1
 0 736 l 1,97,-1
 21 757 l 1,94,-1
1051 -443 m 1,98,-1
 994 -500 l 1,99,-1
 926 -500 l 1,100,-1
 1051 -443 l 1,98,-1
21 419 m 1,101,-1
 0 398 l 1,102,-1
 0 466 l 1,103,-1
 21 487 l 1,104,-1
 21 419 l 1,101,-1
21 217 m 1,105,-1
 21 149 l 1,106,-1
 0 128 l 1,107,-1
 0 196 l 1,108,-1
 21 217 l 1,105,-1
252 110 m 1,109,-1
 0 -142 l 1,110,-1
 0 -74 l 1,111,-1
 184 110 l 1,112,-1
 252 110 l 1,109,-1
491 -463 m 1,113,-1
 454 -500 l 1,114,-1
 386 -500 l 1,115,-1
 453 -433 l 1,116,-1
 491 -463 l 1,113,-1
317 -27 m 1,117,-1
 309 -103 l 1,118,-1
 0 -412 l 1,119,-1
 0 -344 l 1,120,-1
 317 -27 l 1,117,-1
368 -316 m 1,121,-1
 184 -500 l 1,122,-1
 116 -500 l 1,123,-1
 348 -268 l 1,124,-1
 368 -316 l 1,121,-1
1783 500 m 256,125,126
 1783 623 1783 623 1763 761 c 0,127,128
 1732 974 1732 974 1670 974 c 256,129,130
 1608 974 1608 974 1578 761 c 0,131,132
 1559 626 1559 626 1559 500 c 256,133,134
 1559 374 1559 374 1578 239 c 0,135,136
 1608 26 1608 26 1670 26 c 256,137,138
 1732 26 1732 26 1763 239 c 0,139,140
 1783 377 1783 377 1783 500 c 256,125,126
1595 7 m 1,141,142
 1487 112 1487 112 1487 500 c 256,143,144
 1487 888 1487 888 1595 993 c 1,145,-1
 1497 993 l 1,146,-1
 1386 897 l 1,147,-1
 1386 1011 l 1,148,-1
 1257 1020 l 1,149,150
 1150 798 1150 798 1150 500 c 256,151,152
 1150 202 1150 202 1257 -20 c 1,153,-1
 1386 -11 l 1,154,-1
 1386 103 l 1,155,-1
 1497 7 l 1,156,-1
 1595 7 l 1,141,142
1192 1063 m 1,157,158
 994 1310 994 1310 764 1328 c 0,159,160
 680 1335 680 1335 604 1283 c 0,161,162
 500 1212 500 1212 501 1064 c 0,163,164
 503 813 503 813 789 645 c 0,165,166
 908 575 908 575 1075 527 c 1,167,168
 1077 634 1077 634 1090 732 c 0,169,170
 1120 958 1120 958 1192 1063 c 1,157,158
929 500 m 1,171,172
 757 574 757 574 660 659 c 1,173,-1
 660 341 l 1,174,175
 760 428 760 428 929 500 c 1,171,172
554 690 m 1,176,-1
 257 690 l 1,177,-1
 405 544 l 1,178,-1
 554 690 l 1,176,-1
589 350 m 1,179,-1
 589 650 l 1,180,-1
 443 500 l 1,181,-1
 589 350 l 1,179,-1
1192 -63 m 1,182,183
 1083 94 1083 94 1075 473 c 1,184,185
 908 425 908 425 789 355 c 0,186,187
 503 187 503 187 501 -64 c 0,188,189
 500 -213 500 -213 604 -284 c 0,190,191
 681 -336 681 -336 764 -328 c 0,192,193
 994 -306 994 -306 1192 -63 c 1,182,183
364 500 m 1,194,-1
 218 654 l 1,195,-1
 218 346 l 1,196,-1
 364 500 l 1,194,-1
554 310 m 1,197,-1
 405 456 l 1,198,-1
 257 310 l 1,199,-1
 554 310 l 1,197,-1
1376 500 m 256,200,201
 1376 383 1376 383 1326 383 c 256,202,203
 1276 383 1276 383 1276 500 c 256,204,205
 1276 617 1276 617 1326 617 c 256,206,207
 1376 617 1376 617 1376 500 c 256,200,201
EndSplineSet
EndChar
StartChar: E
Encoding: 69 69 18
Width: 2000
Flags: W
Fore
1850 500 m 256,0,1
 1850 300 1850 300 1832 192 c 0,2,3
 1798 -12 1798 -12 1695 -74 c 1,4,-1
 1259 -99 l 1,5,6
 1179 -221 1179 -221 1027 -311 c 0,7,8
 869 -406 869 -406 730 -406 c 0,9,10
 594 -406 594 -406 506 -303 c 0,11,12
 421 -206 421 -206 421 -68 c 0,13,14
 421 88 421 88 533 239 c 1,15,-1
 140 239 l 1,16,-1
 140 761 l 1,17,-1
 533 761 l 1,18,19
 421 912 421 912 421 1066 c 0,20,21
 421 1215 421 1215 515 1313 c 0,22,23
 613 1414 613 1414 760 1404 c 0,24,25
 924 1392 924 1392 1087 1271 c 0,26,27
 1204 1184 1204 1184 1259 1099 c 1,28,29
 1335 1094 1335 1094 1695 1074 c 1,30,31
 1798 1012 1798 1012 1832 808 c 0,32,33
 1850 700 1850 700 1850 500 c 256,0,1
1461 938 m 0,34,35
 1477 996 1477 996 1445 1005 c 0,36,37
 1415 1013 1415 1013 1399 953 c 0,38,39
 1384 897 1384 897 1413 886 c 1,40,41
 1445 879 1445 879 1461 938 c 0,34,35
1649 62 m 0,42,43
 1596 249 1596 249 1596 401 c 0,44,45
 1596 451 1596 451 1601 500 c 1,46,47
 1596 549 1596 549 1596 599 c 0,48,49
 1596 751 1596 751 1649 938 c 0,50,51
 1653 953 1653 953 1637.5 969.5 c 128,-1,52
 1622 986 1622 986 1606 986 c 0,53,54
 1554 986 1554 986 1530 766 c 0,55,56
 1516 637 1516 637 1516 500 c 256,57,58
 1516 363 1516 363 1530 234 c 0,59,60
 1554 14 1554 14 1606 14 c 0,61,62
 1622 14 1622 14 1637.5 30.5 c 128,-1,63
 1653 47 1653 47 1649 62 c 0,42,43
1409 500 m 256,64,65
 1409 602 1409 602 1355 602 c 256,66,67
 1301 602 1301 602 1301 500 c 256,68,69
 1301 398 1301 398 1355 398 c 256,70,71
 1409 398 1409 398 1409 500 c 256,64,65
1286 10 m 1,72,73
 1207 283 1207 283 1207 500 c 256,74,75
 1207 717 1207 717 1286 990 c 1,76,77
 1271 1024 1271 1024 1237 1023 c 0,78,79
 1223 1023 1223 1023 1211 1018 c 1,80,-1
 1169 967 l 1,81,82
 1053 1141 1053 1141 844 1174 c 0,83,84
 693 1177 693 1177 689 993 c 0,85,86
 698 913 698 913 741 845 c 0,87,88
 845 680 845 680 1104 594 c 1,89,-1
 1104 406 l 1,90,91
 719 278 719 278 689 7 c 0,92,93
 693 -177 693 -177 844 -174 c 0,94,95
 1053 -142 1053 -142 1169 33 c 1,96,-1
 1211 -18 l 1,97,98
 1223 -23 1223 -23 1237 -23 c 0,99,100
 1271 -24 1271 -24 1286 10 c 1,72,73
1461 62 m 0,101,102
 1445 121 1445 121 1413 114 c 1,103,104
 1384 103 1384 103 1399 47 c 0,105,106
 1415 -13 1415 -13 1445 -5 c 0,107,108
 1477 4 1477 4 1461 62 c 0,101,102
841 500 m 256,109,110
 841 545 841 545 811.5 577 c 128,-1,111
 782 609 782 609 737 609 c 256,112,113
 692 609 692 609 662.5 577 c 128,-1,114
 633 545 633 545 633 500 c 256,115,116
 633 455 633 455 662.5 423 c 128,-1,117
 692 391 692 391 737 391 c 256,118,119
 782 391 782 391 811.5 423 c 128,-1,120
 841 455 841 455 841 500 c 256,109,110
537 383 m 1,121,-1
 434 500 l 1,122,-1
 537 617 l 1,123,124
 551 639 551 639 533 654 c 2,125,-1
 495 686 l 2,126,127
 475 703 475 703 459 684 c 2,128,-1
 366 579 l 1,129,-1
 274 681 l 2,130,131
 258 699 258 699 238 682 c 2,132,-1
 201 650 l 2,133,134
 180 632 180 632 199 611 c 2,135,-1
 299 500 l 1,136,-1
 199 389 l 2,137,138
 180 368 180 368 201 350 c 2,139,-1
 238 318 l 2,140,141
 258 301 258 301 274 319 c 2,142,-1
 366 421 l 1,143,-1
 459 316 l 2,144,145
 475 297 475 297 495 314 c 2,146,-1
 533 346 l 2,147,148
 551 361 551 361 537 383 c 1,121,-1
1131 863 m 1,149,150
 1117 804 1117 804 1104 717 c 1,151,152
 820 818 820 818 820 991 c 0,153,154
 820 1036 820 1036 877 1038 c 0,155,156
 938 1040 938 1040 1131 863 c 1,149,150
1131 137 m 1,157,158
 938 -40 938 -40 877 -38 c 0,159,160
 814 -36 814 -36 821 22 c 0,161,162
 828 75 828 75 853 114 c 0,163,164
 921 218 921 218 1104 283 c 1,165,166
 1110 242 1110 242 1131 137 c 1,157,158
EndSplineSet
EndChar
StartChar: F
Encoding: 70 70 19
Width: 2000
Flags: W
Fore
2000 1316 m 1,0,-1
 1809 1125 l 1,1,-1
 1772 1156 l 1,2,-1
 2000 1384 l 1,3,-1
 2000 1316 l 1,0,-1
1912 1500 m 1,4,-1
 1609 1197 l 1,5,-1
 1543 1199 l 1,6,-1
 1844 1500 l 1,7,-1
 1912 1500 l 1,4,-1
2000 1046 m 1,8,-1
 1924 970 l 1,9,-1
 1904 1018 l 1,10,-1
 2000 1114 l 1,11,-1
 2000 1046 l 1,8,-1
1642 1500 m 1,12,-1
 1340 1198 l 1,13,-1
 1308 1234 l 1,14,-1
 1574 1500 l 1,15,-1
 1642 1500 l 1,12,-1
2000 776 m 1,16,-1
 1956 732 l 1,17,-1
 1951 795 l 1,18,-1
 2000 844 l 1,19,-1
 2000 776 l 1,16,-1
1372 1500 m 1,20,-1
 1213 1341 l 1,21,-1
 1176 1372 l 1,22,-1
 1304 1500 l 1,23,-1
 1372 1500 l 1,20,-1
1102 1500 m 1,24,-1
 1044 1442 l 1,25,-1
 995 1461 l 1,26,-1
 1034 1500 l 1,27,-1
 1102 1500 l 1,24,-1
2000 506 m 1,28,-1
 1968 474 l 1,29,-1
 1968 542 l 1,30,-1
 2000 574 l 1,31,-1
 2000 506 l 1,28,-1
2000 236 m 1,32,-1
 1945 181 l 1,33,-1
 1954 258 l 1,34,-1
 2000 304 l 1,35,-1
 2000 236 l 1,32,-1
2000 -34 m 1,36,-1
 1534 -500 l 1,37,-1
 1466 -500 l 1,38,-1
 2000 34 l 1,39,-1
 2000 -34 l 1,36,-1
2000 -304 m 1,40,-1
 1804 -500 l 1,41,-1
 1736 -500 l 1,42,-1
 2000 -236 l 1,43,-1
 2000 -304 l 1,40,-1
288 1500 m 1,44,-1
 0 1208 l 1,45,-1
 0 1276 l 1,46,-1
 224 1500 l 1,47,-1
 288 1500 l 1,44,-1
558 1500 m 1,48,-1
 0 938 l 1,49,-1
 0 1006 l 1,50,-1
 494 1500 l 1,51,-1
 558 1500 l 1,48,-1
1850 500 m 256,52,53
 1850 300 1850 300 1832 192 c 0,54,55
 1798 -12 1798 -12 1695 -74 c 1,56,-1
 1259 -99 l 1,57,58
 1179 -221 1179 -221 1027 -311 c 0,59,60
 869 -406 869 -406 730 -406 c 0,61,62
 594 -406 594 -406 506 -303 c 0,63,64
 421 -206 421 -206 421 -68 c 0,65,66
 421 88 421 88 533 239 c 1,67,-1
 140 239 l 1,68,-1
 140 761 l 1,69,-1
 533 761 l 1,70,71
 421 912 421 912 421 1066 c 0,72,73
 421 1215 421 1215 515 1313 c 0,74,75
 613 1414 613 1414 760 1404 c 0,76,77
 924 1392 924 1392 1087 1271 c 0,78,79
 1204 1184 1204 1184 1259 1099 c 1,80,81
 1335 1094 1335 1094 1695 1074 c 1,82,83
 1798 1012 1798 1012 1832 808 c 0,84,85
 1850 700 1850 700 1850 500 c 256,52,53
324 1060 m 1,86,-1
 324 994 l 1,87,-1
 202 871 l 1,88,-1
 136 872 l 1,89,-1
 324 1060 l 1,86,-1
1565 -199 m 1,90,-1
 1264 -500 l 1,91,-1
 1196 -500 l 1,92,-1
 1491 -205 l 1,93,-1
 1565 -199 l 1,90,-1
21 757 m 1,94,-1
 21 689 l 1,95,-1
 0 668 l 1,96,-1
 0 736 l 1,97,-1
 21 757 l 1,94,-1
1051 -443 m 1,98,-1
 994 -500 l 1,99,-1
 926 -500 l 1,100,-1
 1051 -443 l 1,98,-1
21 419 m 1,101,-1
 0 398 l 1,102,-1
 0 466 l 1,103,-1
 21 487 l 1,104,-1
 21 419 l 1,101,-1
21 217 m 1,105,-1
 21 149 l 1,106,-1
 0 128 l 1,107,-1
 0 196 l 1,108,-1
 21 217 l 1,105,-1
252 110 m 1,109,-1
 0 -142 l 1,110,-1
 0 -74 l 1,111,-1
 184 110 l 1,112,-1
 252 110 l 1,109,-1
491 -463 m 1,113,-1
 454 -500 l 1,114,-1
 386 -500 l 1,115,-1
 453 -433 l 1,116,-1
 491 -463 l 1,113,-1
317 -27 m 1,117,-1
 309 -103 l 1,118,-1
 0 -412 l 1,119,-1
 0 -344 l 1,120,-1
 317 -27 l 1,117,-1
368 -316 m 1,121,-1
 184 -500 l 1,122,-1
 116 -500 l 1,123,-1
 348 -268 l 1,124,-1
 368 -316 l 1,121,-1
1461 938 m 0,125,126
 1477 996 1477 996 1445 1005 c 0,127,128
 1415 1013 1415 1013 1399 953 c 0,129,130
 1384 897 1384 897 1413 886 c 1,131,132
 1445 879 1445 879 1461 938 c 0,125,126
1649 62 m 0,133,134
 1596 249 1596 249 1596 401 c 0,135,136
 1596 451 1596 451 1601 500 c 1,137,138
 1596 549 1596 549 1596 599 c 0,139,140
 1596 751 1596 751 1649 938 c 0,141,142
 1653 953 1653 953 1637.5 969.5 c 128,-1,143
 1622 986 1622 986 1606 986 c 0,144,145
 1554 986 1554 986 1530 766 c 0,146,147
 1516 637 1516 637 1516 500 c 256,148,149
 1516 363 1516 363 1530 234 c 0,150,151
 1554 14 1554 14 1606 14 c 0,152,153
 1622 14 1622 14 1637.5 30.5 c 128,-1,154
 1653 47 1653 47 1649 62 c 0,133,134
1409 500 m 256,155,156
 1409 602 1409 602 1355 602 c 256,157,158
 1301 602 1301 602 1301 500 c 256,159,160
 1301 398 1301 398 1355 398 c 256,161,162
 1409 398 1409 398 1409 500 c 256,155,156
1286 10 m 1,163,164
 1207 283 1207 283 1207 500 c 256,165,166
 1207 717 1207 717 1286 990 c 1,167,168
 1271 1024 1271 1024 1237 1023 c 0,169,170
 1223 1023 1223 1023 1211 1018 c 1,171,-1
 1169 967 l 1,172,173
 1053 1141 1053 1141 844 1174 c 0,174,175
 693 1177 693 1177 689 993 c 0,176,177
 698 913 698 913 741 845 c 0,178,179
 845 680 845 680 1104 594 c 1,180,-1
 1104 406 l 1,181,182
 719 278 719 278 689 7 c 0,183,184
 693 -177 693 -177 844 -174 c 0,185,186
 1053 -142 1053 -142 1169 33 c 1,187,-1
 1211 -18 l 1,188,189
 1223 -23 1223 -23 1237 -23 c 0,190,191
 1271 -24 1271 -24 1286 10 c 1,163,164
1461 62 m 0,192,193
 1445 121 1445 121 1413 114 c 1,194,195
 1384 103 1384 103 1399 47 c 0,196,197
 1415 -13 1415 -13 1445 -5 c 0,198,199
 1477 4 1477 4 1461 62 c 0,192,193
841 500 m 256,200,201
 841 545 841 545 811.5 577 c 128,-1,202
 782 609 782 609 737 609 c 256,203,204
 692 609 692 609 662.5 577 c 128,-1,205
 633 545 633 545 633 500 c 256,206,207
 633 455 633 455 662.5 423 c 128,-1,208
 692 391 692 391 737 391 c 256,209,210
 782 391 782 391 811.5 423 c 128,-1,211
 841 455 841 455 841 500 c 256,200,201
537 383 m 1,212,-1
 434 500 l 1,213,-1
 537 617 l 1,214,215
 551 639 551 639 533 654 c 2,216,-1
 495 686 l 2,217,218
 475 703 475 703 459 684 c 2,219,-1
 366 579 l 1,220,-1
 274 681 l 2,221,222
 258 699 258 699 238 682 c 2,223,-1
 201 650 l 2,224,225
 180 632 180 632 199 611 c 2,226,-1
 299 500 l 1,227,-1
 199 389 l 2,228,229
 180 368 180 368 201 350 c 2,230,-1
 238 318 l 2,231,232
 258 301 258 301 274 319 c 2,233,-1
 366 421 l 1,234,-1
 459 316 l 2,235,236
 475 297 475 297 495 314 c 2,237,-1
 533 346 l 2,238,239
 551 361 551 361 537 383 c 1,212,-1
1131 863 m 1,240,241
 1117 804 1117 804 1104 717 c 1,242,243
 820 818 820 818 820 991 c 0,244,245
 820 1036 820 1036 877 1038 c 0,246,247
 938 1040 938 1040 1131 863 c 1,240,241
1131 137 m 1,248,249
 938 -40 938 -40 877 -38 c 0,250,251
 814 -36 814 -36 821 22 c 0,252,253
 828 75 828 75 853 114 c 0,254,255
 921 218 921 218 1104 283 c 1,256,257
 1110 242 1110 242 1131 137 c 1,248,249
EndSplineSet
EndChar
StartChar: G
Encoding: 71 71 20
Width: 2000
Flags: W
Fore
1905 813 m 256,0,1
 1905 768 1905 768 1873.5 735.5 c 128,-1,2
 1842 703 1842 703 1797 703 c 1,3,-1
 1597 264 l 1,4,-1
 1551 -211 l 1,5,6
 1365 -347 1365 -347 1000 -347 c 0,7,8
 603 -347 603 -347 459 -211 c 1,9,-1
 403 264 l 1,10,-1
 213 703 l 1,11,12
 168 703 168 703 136.5 735.5 c 128,-1,13
 105 768 105 768 105 813 c 256,14,15
 105 858 105 858 136.5 890 c 128,-1,16
 168 922 168 922 213 922 c 0,17,18
 259 922 259 922 290.5 890.5 c 128,-1,19
 322 859 322 859 322 813 c 0,20,21
 322 783 322 783 307 759 c 1,22,-1
 549 565 l 1,23,-1
 687 1089 l 1,24,25
 599 1119 599 1119 599 1208 c 0,26,27
 599 1261 599 1261 637 1297 c 128,-1,28
 675 1333 675 1333 728 1333 c 0,29,30
 783 1333 783 1333 820.5 1298 c 128,-1,31
 858 1263 858 1263 858 1208 c 0,32,33
 858 1161 858 1161 824 1124 c 1,34,-1
 1000 767 l 1,35,-1
 1186 1124 l 1,36,37
 1152 1161 1152 1161 1152 1208 c 0,38,39
 1152 1263 1152 1263 1189.5 1298 c 128,-1,40
 1227 1333 1227 1333 1282 1333 c 0,41,42
 1338 1333 1338 1333 1375.5 1298 c 128,-1,43
 1413 1263 1413 1263 1413 1208 c 0,44,45
 1413 1119 1413 1119 1323 1089 c 1,46,-1
 1451 565 l 1,47,-1
 1703 759 l 1,48,49
 1688 783 1688 783 1688 813 c 0,50,51
 1688 859 1688 859 1719.5 890.5 c 128,-1,52
 1751 922 1751 922 1797 922 c 0,53,54
 1842 922 1842 922 1873.5 890 c 128,-1,55
 1905 858 1905 858 1905 813 c 256,0,1
1847 807 m 256,56,57
 1847 859 1847 859 1795 859 c 256,58,59
 1743 859 1743 859 1743 807 c 256,60,61
 1743 755 1743 755 1795 755 c 256,62,63
 1847 755 1847 755 1847 807 c 256,56,57
1350 1208 m 0,64,65
 1350 1273 1350 1273 1282 1273 c 0,66,67
 1217 1273 1217 1273 1217 1208 c 0,68,69
 1217 1141 1217 1141 1282 1141 c 0,70,71
 1350 1141 1350 1141 1350 1208 c 0,64,65
797 1208 m 0,72,73
 797 1273 797 1273 731 1273 c 0,74,75
 704 1273 704 1273 684 1254 c 128,-1,76
 664 1235 664 1235 664 1208 c 0,77,78
 664 1141 664 1141 731 1141 c 0,79,80
 797 1141 797 1141 797 1208 c 0,72,73
1728 699 m 1,81,-1
 1420 457 l 1,82,-1
 1263 1066 l 1,83,-1
 1220 1077 l 1,84,-1
 1000 630 l 1,85,-1
 786 1075 l 1,86,-1
 749 1066 l 1,87,-1
 581 457 l 1,88,-1
 267 719 l 1,89,-1
 455 312 l 1,90,91
 723 419 723 419 1000 419 c 0,92,93
 1297 419 1297 419 1545 312 c 1,94,-1
 1728 699 l 1,81,-1
1517 244 m 1,95,96
 1299 353 1299 353 1000 353 c 0,97,98
 704 353 704 353 484 244 c 1,99,-1
 493 114 l 1,100,-1
 607 114 l 1,101,-1
 509 4 l 1,102,-1
 509 -94 l 1,103,104
 672 9 672 9 1000 4 c 0,105,106
 1356 -1 1356 -1 1492 -95 c 1,107,-1
 1492 4 l 1,108,-1
 1394 114 l 1,109,-1
 1507 114 l 1,110,-1
 1517 244 l 1,95,96
263 813 m 256,111,112
 263 865 263 865 211 865 c 256,113,114
 159 865 159 865 159 813 c 256,115,116
 159 761 159 761 211 761 c 256,117,118
 263 761 263 761 263 813 c 256,111,112
1469 -170 m 256,119,120
 1469 -108 1469 -108 1258 -77 c 0,121,122
 1122 -57 1122 -57 1000 -57 c 0,123,124
 877 -57 877 -57 740 -77 c 0,125,126
 528 -108 528 -108 528 -170 c 256,127,128
 528 -232 528 -232 740 -262 c 0,129,130
 881 -282 881 -282 1000 -282 c 0,131,132
 1118 -282 1118 -282 1258 -262 c 0,133,134
 1469 -232 1469 -232 1469 -170 c 256,119,120
1113 170 m 256,135,136
 1113 125 1113 125 1000 125 c 0,137,138
 888 125 888 125 888 170 c 256,139,140
 888 215 888 215 1000 215 c 0,141,142
 1113 215 1113 215 1113 170 c 256,135,136
EndSplineSet
EndChar
StartChar: H
Encoding: 72 72 21
Width: 2000
Flags: W
Fore
1884 1500 m 1,0,-1
 1513 1129 l 1,1,-1
 1521 1205 l 1,2,-1
 1816 1500 l 1,3,-1
 1884 1500 l 1,0,-1
2000 1074 m 1,4,-1
 1922 996 l 1,5,-1
 1879 1021 l 1,6,-1
 2000 1142 l 1,7,-1
 2000 1074 l 1,4,-1
1614 1500 m 1,8,-1
 1483 1369 l 1,9,-1
 1451 1405 l 1,10,-1
 1546 1500 l 1,11,-1
 1614 1500 l 1,8,-1
2000 1344 m 1,12,-1
 1509 853 l 1,13,-1
 1495 907 l 1,14,-1
 2000 1412 l 1,15,-1
 2000 1344 l 1,12,-1
1344 1500 m 1,16,-1
 1296 1452 l 1,17,-1
 1225 1449 l 1,18,-1
 1276 1500 l 1,19,-1
 1344 1500 l 1,16,-1
1074 1500 m 1,20,-1
 944 1370 l 1,21,-1
 912 1406 l 1,22,-1
 1006 1500 l 1,23,-1
 1074 1500 l 1,20,-1
2000 534 m 1,24,-1
 1730 264 l 1,25,-1
 1736 338 l 1,26,-1
 2000 602 l 1,27,-1
 2000 534 l 1,24,-1
1078 1302 m 1,28,-1
 1055 1211 l 1,29,-1
 960 1116 l 1,30,-1
 964 1188 l 1,31,-1
 1078 1302 l 1,28,-1
804 1500 m 1,32,-1
 747 1443 l 1,33,-1
 667 1431 l 1,34,-1
 736 1500 l 1,35,-1
 804 1500 l 1,32,-1
2000 264 m 1,36,-1
 1706 -30 l 1,37,-1
 1712 44 l 1,38,-1
 2000 332 l 1,39,-1
 2000 264 l 1,36,-1
264 1500 m 1,40,-1
 0 1236 l 1,41,-1
 0 1304 l 1,42,-1
 196 1500 l 1,43,-1
 264 1500 l 1,40,-1
534 1500 m 1,44,-1
 0 966 l 1,45,-1
 0 1034 l 1,46,-1
 466 1500 l 1,47,-1
 534 1500 l 1,44,-1
479 1175 m 1,48,-1
 320 1016 l 1,49,-1
 266 1030 l 1,50,-1
 475 1239 l 1,51,-1
 479 1175 l 1,48,-1
2000 -6 m 1,52,-1
 1506 -500 l 1,53,-1
 1438 -500 l 1,54,-1
 2000 62 l 1,55,-1
 2000 -6 l 1,52,-1
2000 -276 m 1,56,-1
 1776 -500 l 1,57,-1
 1708 -500 l 1,58,-1
 2000 -208 l 1,59,-1
 2000 -276 l 1,56,-1
1905 813 m 256,60,61
 1905 768 1905 768 1873.5 735.5 c 128,-1,62
 1842 703 1842 703 1797 703 c 1,63,-1
 1597 264 l 1,64,-1
 1551 -211 l 1,65,66
 1366 -347 1366 -347 1000 -347 c 0,67,68
 603 -347 603 -347 459 -211 c 1,69,-1
 403 264 l 1,70,-1
 213 703 l 1,71,72
 168 703 168 703 136.5 735.5 c 128,-1,73
 105 768 105 768 105 813 c 256,74,75
 105 858 105 858 136.5 890 c 128,-1,76
 168 922 168 922 213 922 c 0,77,78
 259 922 259 922 290.5 890.5 c 128,-1,79
 322 859 322 859 322 813 c 0,80,81
 322 783 322 783 307 759 c 1,82,-1
 549 565 l 1,83,-1
 687 1089 l 1,84,85
 599 1118 599 1118 599 1208 c 0,86,87
 599 1261 599 1261 637 1297 c 128,-1,88
 675 1333 675 1333 728 1333 c 0,89,90
 783 1333 783 1333 820.5 1298 c 128,-1,91
 858 1263 858 1263 858 1208 c 0,92,93
 858 1161 858 1161 824 1124 c 1,94,-1
 1000 767 l 1,95,-1
 1186 1124 l 1,96,97
 1152 1161 1152 1161 1152 1208 c 0,98,99
 1152 1263 1152 1263 1189.5 1298 c 128,-1,100
 1227 1333 1227 1333 1282 1333 c 0,101,102
 1338 1333 1338 1333 1375.5 1298 c 128,-1,103
 1413 1263 1413 1263 1413 1208 c 0,104,105
 1413 1119 1413 1119 1323 1089 c 1,106,-1
 1451 565 l 1,107,-1
 1703 759 l 1,108,109
 1688 783 1688 783 1688 813 c 0,110,111
 1688 859 1688 859 1719.5 890.5 c 128,-1,112
 1751 922 1751 922 1797 922 c 0,113,114
 1842 922 1842 922 1873.5 890 c 128,-1,115
 1905 858 1905 858 1905 813 c 256,60,61
575 1001 m 1,116,-1
 425 851 l 1,117,-1
 420 914 l 1,118,-1
 543 1037 l 1,119,-1
 575 1001 l 1,116,-1
1304 -432 m 1,120,-1
 1236 -500 l 1,121,-1
 1168 -500 l 1,122,-1
 1220 -448 l 1,123,-1
 1304 -432 l 1,120,-1
19 715 m 1,124,-1
 0 696 l 1,125,-1
 0 764 l 1,126,-1
 19 715 l 1,124,-1
140 566 m 1,127,-1
 0 426 l 1,128,-1
 0 494 l 1,129,-1
 121 615 l 1,130,-1
 140 566 l 1,127,-1
1000 -466 m 1,131,-1
 966 -500 l 1,132,-1
 898 -500 l 1,133,-1
 930 -468 l 1,134,-1
 1000 -466 l 1,131,-1
214 370 m 1,135,-1
 0 156 l 1,136,-1
 0 224 l 1,137,-1
 195 419 l 1,138,-1
 214 370 l 1,135,-1
738 -458 m 1,139,-1
 696 -500 l 1,140,-1
 628 -500 l 1,141,-1
 679 -449 l 1,142,-1
 738 -458 l 1,139,-1
275 161 m 1,143,-1
 0 -114 l 1,144,-1
 0 -46 l 1,145,-1
 268 222 l 1,146,-1
 275 161 l 1,143,-1
507 -419 m 1,147,-1
 426 -500 l 1,148,-1
 358 -500 l 1,149,-1
 463 -395 l 1,150,-1
 507 -419 l 1,147,-1
302 -82 m 1,151,-1
 0 -384 l 1,152,-1
 0 -316 l 1,153,-1
 295 -21 l 1,154,-1
 302 -82 l 1,151,-1
330 -326 m 1,155,-1
 156 -500 l 1,156,-1
 88 -500 l 1,157,-1
 323 -265 l 1,158,-1
 330 -326 l 1,155,-1
1847 807 m 256,159,160
 1847 859 1847 859 1795 859 c 256,161,162
 1743 859 1743 859 1743 807 c 256,163,164
 1743 755 1743 755 1795 755 c 256,165,166
 1847 755 1847 755 1847 807 c 256,159,160
1350 1208 m 0,167,168
 1350 1273 1350 1273 1282 1273 c 0,169,170
 1217 1273 1217 1273 1217 1208 c 0,171,172
 1217 1141 1217 1141 1282 1141 c 0,173,174
 1350 1141 1350 1141 1350 1208 c 0,167,168
797 1208 m 0,175,176
 797 1273 797 1273 731 1273 c 0,177,178
 664 1273 664 1273 664 1208 c 0,179,180
 664 1141 664 1141 731 1141 c 0,181,182
 797 1141 797 1141 797 1208 c 0,175,176
1728 699 m 1,183,-1
 1420 457 l 1,184,-1
 1263 1066 l 1,185,-1
 1220 1077 l 1,186,-1
 1000 630 l 1,187,-1
 786 1075 l 1,188,-1
 749 1066 l 1,189,-1
 581 457 l 1,190,-1
 267 719 l 1,191,-1
 455 312 l 1,192,193
 722 419 722 419 1000 419 c 0,194,195
 1298 419 1298 419 1545 312 c 1,196,-1
 1728 699 l 1,183,-1
1517 244 m 1,197,198
 1299 353 1299 353 1000 353 c 0,199,200
 704 353 704 353 484 244 c 1,201,-1
 493 114 l 1,202,-1
 607 114 l 1,203,-1
 509 4 l 1,204,-1
 509 -94 l 1,205,206
 673 9 673 9 1000 4 c 0,207,208
 1357 -1 1357 -1 1492 -95 c 1,209,-1
 1492 4 l 1,210,-1
 1394 114 l 1,211,-1
 1507 114 l 1,212,-1
 1517 244 l 1,197,198
263 813 m 256,213,214
 263 865 263 865 211 865 c 256,215,216
 159 865 159 865 159 813 c 256,217,218
 159 761 159 761 211 761 c 256,219,220
 263 761 263 761 263 813 c 256,213,214
1469 -170 m 256,221,222
 1469 -108 1469 -108 1258 -77 c 0,223,224
 1122 -57 1122 -57 1000 -57 c 0,225,226
 877 -57 877 -57 740 -77 c 0,227,228
 528 -108 528 -108 528 -170 c 256,229,230
 528 -232 528 -232 740 -262 c 0,231,232
 881 -282 881 -282 1000 -282 c 0,233,234
 1118 -282 1118 -282 1258 -262 c 0,235,236
 1469 -232 1469 -232 1469 -170 c 256,221,222
1113 170 m 256,237,238
 1113 125 1113 125 1000 125 c 0,239,240
 888 125 888 125 888 170 c 256,241,242
 888 215 888 215 1000 215 c 0,243,244
 1113 215 1113 215 1113 170 c 256,237,238
EndSplineSet
EndChar
StartChar: I
Encoding: 73 73 22
Width: 2000
Flags: W
Fore
1905 813 m 256,0,1
 1905 768 1905 768 1873.5 735.5 c 128,-1,2
 1842 703 1842 703 1797 703 c 1,3,-1
 1597 264 l 1,4,-1
 1551 -211 l 1,5,6
 1366 -347 1366 -347 1000 -347 c 0,7,8
 603 -347 603 -347 459 -211 c 1,9,-1
 403 264 l 1,10,-1
 213 703 l 1,11,12
 168 703 168 703 136.5 735.5 c 128,-1,13
 105 768 105 768 105 813 c 256,14,15
 105 858 105 858 136.5 890 c 128,-1,16
 168 922 168 922 213 922 c 0,17,18
 259 922 259 922 290.5 890.5 c 128,-1,19
 322 859 322 859 322 813 c 0,20,21
 322 783 322 783 307 759 c 1,22,-1
 549 565 l 1,23,-1
 687 1089 l 1,24,25
 599 1118 599 1118 599 1208 c 0,26,27
 599 1261 599 1261 637 1297 c 128,-1,28
 675 1333 675 1333 728 1333 c 0,29,30
 783 1333 783 1333 820.5 1298 c 128,-1,31
 858 1263 858 1263 858 1208 c 0,32,33
 858 1161 858 1161 824 1124 c 1,34,-1
 1000 767 l 1,35,-1
 1186 1124 l 1,36,37
 1152 1161 1152 1161 1152 1208 c 0,38,39
 1152 1263 1152 1263 1189.5 1298 c 128,-1,40
 1227 1333 1227 1333 1282 1333 c 0,41,42
 1338 1333 1338 1333 1375.5 1298 c 128,-1,43
 1413 1263 1413 1263 1413 1208 c 0,44,45
 1413 1119 1413 1119 1323 1089 c 1,46,-1
 1451 565 l 1,47,-1
 1703 759 l 1,48,49
 1688 783 1688 783 1688 813 c 0,50,51
 1688 859 1688 859 1719.5 890.5 c 128,-1,52
 1751 922 1751 922 1797 922 c 0,53,54
 1842 922 1842 922 1873.5 890 c 128,-1,55
 1905 858 1905 858 1905 813 c 256,0,1
1506 45 m 0,56,57
 1506 71 1506 71 1453 85 c 0,58,59
 1385 102 1385 102 1385 62 c 0,60,61
 1385 37 1385 37 1438 22 c 0,62,63
 1506 2 1506 2 1506 45 c 0,56,57
1513 275 m 0,64,65
 1499 304 1499 304 1382 339 c 0,66,67
 1231 384 1231 384 1000 384 c 256,68,69
 769 384 769 384 618 339 c 0,70,71
 501 304 501 304 487 275 c 0,72,73
 479 259 479 259 479 243 c 0,74,75
 479 202 479 202 512 196 c 1,76,77
 503 198 503 198 645 235 c 0,78,79
 799 275 799 275 1000 275 c 256,80,81
 1201 275 1201 275 1355 235 c 0,82,83
 1497 198 1497 198 1488 196 c 1,84,85
 1521 202 1521 202 1521 243 c 0,86,87
 1521 259 1521 259 1513 275 c 0,64,65
1104 133 m 0,88,89
 1104 187 1104 187 1000 187 c 256,90,91
 896 187 896 187 896 133 c 0,92,93
 896 77 896 77 1000 77 c 256,94,95
 1104 77 1104 77 1104 133 c 0,88,89
1000 -9 m 256,96,97
 860 -9 860 -9 751 -24 c 0,98,99
 548 -52 548 -52 548 -121 c 0,100,101
 548 -163 548 -163 578 -168 c 1,102,103
 569 -166 569 -166 678 -139 c 0,104,105
 800 -109 800 -109 1000 -109 c 256,106,107
 1200 -109 1200 -109 1322 -139 c 0,108,109
 1431 -166 1431 -166 1422 -168 c 1,110,111
 1452 -163 1452 -163 1452 -121 c 0,112,113
 1452 -52 1452 -52 1249 -24 c 0,114,115
 1140 -9 1140 -9 1000 -9 c 256,96,97
553 85 m 0,116,117
 500 71 500 71 500 45 c 0,118,119
 500 2 500 2 568 22 c 0,120,121
 621 37 621 37 621 62 c 0,122,123
 621 102 621 102 553 85 c 0,116,117
EndSplineSet
EndChar
StartChar: J
Encoding: 74 74 23
Width: 2000
Flags: W
Fore
1884 1500 m 1,0,-1
 1513 1129 l 1,1,-1
 1521 1205 l 1,2,-1
 1816 1500 l 1,3,-1
 1884 1500 l 1,0,-1
2000 1074 m 1,4,-1
 1922 996 l 1,5,-1
 1879 1021 l 1,6,-1
 2000 1142 l 1,7,-1
 2000 1074 l 1,4,-1
1614 1500 m 1,8,-1
 1483 1369 l 1,9,-1
 1451 1405 l 1,10,-1
 1546 1500 l 1,11,-1
 1614 1500 l 1,8,-1
2000 1344 m 1,12,-1
 1509 853 l 1,13,-1
 1495 907 l 1,14,-1
 2000 1412 l 1,15,-1
 2000 1344 l 1,12,-1
1344 1500 m 1,16,-1
 1296 1452 l 1,17,-1
 1225 1449 l 1,18,-1
 1276 1500 l 1,19,-1
 1344 1500 l 1,16,-1
1074 1500 m 1,20,-1
 944 1370 l 1,21,-1
 912 1406 l 1,22,-1
 1006 1500 l 1,23,-1
 1074 1500 l 1,20,-1
2000 534 m 1,24,-1
 1730 264 l 1,25,-1
 1736 338 l 1,26,-1
 2000 602 l 1,27,-1
 2000 534 l 1,24,-1
1078 1302 m 1,28,-1
 1055 1211 l 1,29,-1
 960 1116 l 1,30,-1
 964 1188 l 1,31,-1
 1078 1302 l 1,28,-1
804 1500 m 1,32,-1
 747 1443 l 1,33,-1
 667 1431 l 1,34,-1
 736 1500 l 1,35,-1
 804 1500 l 1,32,-1
2000 264 m 1,36,-1
 1706 -30 l 1,37,-1
 1712 44 l 1,38,-1
 2000 332 l 1,39,-1
 2000 264 l 1,36,-1
264 1500 m 1,40,-1
 0 1236 l 1,41,-1
 0 1304 l 1,42,-1
 196 1500 l 1,43,-1
 264 1500 l 1,40,-1
534 1500 m 1,44,-1
 0 966 l 1,45,-1
 0 1034 l 1,46,-1
 466 1500 l 1,47,-1
 534 1500 l 1,44,-1
479 1175 m 1,48,-1
 320 1016 l 1,49,-1
 266 1030 l 1,50,-1
 475 1239 l 1,51,-1
 479 1175 l 1,48,-1
2000 -6 m 1,52,-1
 1506 -500 l 1,53,-1
 1438 -500 l 1,54,-1
 2000 62 l 1,55,-1
 2000 -6 l 1,52,-1
2000 -276 m 1,56,-1
 1776 -500 l 1,57,-1
 1708 -500 l 1,58,-1
 2000 -208 l 1,59,-1
 2000 -276 l 1,56,-1
1905 813 m 256,60,61
 1905 768 1905 768 1873.5 735.5 c 128,-1,62
 1842 703 1842 703 1797 703 c 1,63,-1
 1597 264 l 1,64,-1
 1551 -211 l 1,65,66
 1366 -347 1366 -347 1000 -347 c 0,67,68
 603 -347 603 -347 459 -211 c 1,69,-1
 403 264 l 1,70,-1
 213 703 l 1,71,72
 168 703 168 703 136.5 735.5 c 128,-1,73
 105 768 105 768 105 813 c 256,74,75
 105 858 105 858 136.5 890 c 128,-1,76
 168 922 168 922 213 922 c 0,77,78
 259 922 259 922 290.5 890.5 c 128,-1,79
 322 859 322 859 322 813 c 0,80,81
 322 783 322 783 307 759 c 1,82,-1
 549 565 l 1,83,-1
 687 1089 l 1,84,85
 599 1118 599 1118 599 1208 c 0,86,87
 599 1261 599 1261 637 1297 c 128,-1,88
 675 1333 675 1333 728 1333 c 0,89,90
 783 1333 783 1333 820.5 1298 c 128,-1,91
 858 1263 858 1263 858 1208 c 0,92,93
 858 1161 858 1161 824 1124 c 1,94,-1
 1000 767 l 1,95,-1
 1186 1124 l 1,96,97
 1152 1161 1152 1161 1152 1208 c 0,98,99
 1152 1263 1152 1263 1189.5 1298 c 128,-1,100
 1227 1333 1227 1333 1282 1333 c 0,101,102
 1338 1333 1338 1333 1375.5 1298 c 128,-1,103
 1413 1263 1413 1263 1413 1208 c 0,104,105
 1413 1119 1413 1119 1323 1089 c 1,106,-1
 1451 565 l 1,107,-1
 1703 759 l 1,108,109
 1688 783 1688 783 1688 813 c 0,110,111
 1688 859 1688 859 1719.5 890.5 c 128,-1,112
 1751 922 1751 922 1797 922 c 0,113,114
 1842 922 1842 922 1873.5 890 c 128,-1,115
 1905 858 1905 858 1905 813 c 256,60,61
575 1001 m 1,116,-1
 425 851 l 1,117,-1
 420 914 l 1,118,-1
 543 1037 l 1,119,-1
 575 1001 l 1,116,-1
1304 -432 m 1,120,-1
 1236 -500 l 1,121,-1
 1168 -500 l 1,122,-1
 1220 -448 l 1,123,-1
 1304 -432 l 1,120,-1
19 715 m 1,124,-1
 0 696 l 1,125,-1
 0 764 l 1,126,-1
 19 715 l 1,124,-1
140 566 m 1,127,-1
 0 426 l 1,128,-1
 0 494 l 1,129,-1
 121 615 l 1,130,-1
 140 566 l 1,127,-1
1000 -466 m 1,131,-1
 966 -500 l 1,132,-1
 898 -500 l 1,133,-1
 930 -468 l 1,134,-1
 1000 -466 l 1,131,-1
214 370 m 1,135,-1
 0 156 l 1,136,-1
 0 224 l 1,137,-1
 195 419 l 1,138,-1
 214 370 l 1,135,-1
738 -458 m 1,139,-1
 696 -500 l 1,140,-1
 628 -500 l 1,141,-1
 679 -449 l 1,142,-1
 738 -458 l 1,139,-1
275 161 m 1,143,-1
 0 -114 l 1,144,-1
 0 -46 l 1,145,-1
 268 222 l 1,146,-1
 275 161 l 1,143,-1
507 -419 m 1,147,-1
 426 -500 l 1,148,-1
 358 -500 l 1,149,-1
 463 -395 l 1,150,-1
 507 -419 l 1,147,-1
302 -82 m 1,151,-1
 0 -384 l 1,152,-1
 0 -316 l 1,153,-1
 295 -21 l 1,154,-1
 302 -82 l 1,151,-1
330 -326 m 1,155,-1
 156 -500 l 1,156,-1
 88 -500 l 1,157,-1
 323 -265 l 1,158,-1
 330 -326 l 1,155,-1
1506 45 m 0,159,160
 1506 71 1506 71 1453 85 c 0,161,162
 1385 102 1385 102 1385 62 c 0,163,164
 1385 37 1385 37 1438 22 c 0,165,166
 1506 2 1506 2 1506 45 c 0,159,160
1513 275 m 0,167,168
 1499 304 1499 304 1382 339 c 0,169,170
 1231 384 1231 384 1000 384 c 256,171,172
 769 384 769 384 618 339 c 0,173,174
 501 304 501 304 487 275 c 0,175,176
 479 259 479 259 479 243 c 0,177,178
 479 202 479 202 512 196 c 1,179,180
 503 198 503 198 645 235 c 0,181,182
 799 275 799 275 1000 275 c 256,183,184
 1201 275 1201 275 1355 235 c 0,185,186
 1497 198 1497 198 1488 196 c 1,187,188
 1521 202 1521 202 1521 243 c 0,189,190
 1521 259 1521 259 1513 275 c 0,167,168
1104 133 m 0,191,192
 1104 187 1104 187 1000 187 c 256,193,194
 896 187 896 187 896 133 c 0,195,196
 896 77 896 77 1000 77 c 256,197,198
 1104 77 1104 77 1104 133 c 0,191,192
1000 -9 m 256,199,200
 860 -9 860 -9 751 -24 c 0,201,202
 548 -52 548 -52 548 -121 c 0,203,204
 548 -163 548 -163 578 -168 c 1,205,206
 569 -166 569 -166 678 -139 c 0,207,208
 800 -109 800 -109 1000 -109 c 256,209,210
 1200 -109 1200 -109 1322 -139 c 0,211,212
 1431 -166 1431 -166 1422 -168 c 1,213,214
 1452 -163 1452 -163 1452 -121 c 0,215,216
 1452 -52 1452 -52 1249 -24 c 0,217,218
 1140 -9 1140 -9 1000 -9 c 256,199,200
553 85 m 0,219,220
 500 71 500 71 500 45 c 0,221,222
 500 2 500 2 568 22 c 0,223,224
 621 37 621 37 621 62 c 0,225,226
 621 102 621 102 553 85 c 0,219,220
EndSplineSet
EndChar
StartChar: K
Encoding: 75 75 24
Width: 2000
Flags: W
Fore
153 500 m 0,0,1
 153 897 153 897 289 1041 c 1,2,-1
 764 1097 l 1,3,-1
 1203 1287 l 1,4,5
 1203 1332 1203 1332 1235.5 1363.5 c 128,-1,6
 1268 1395 1268 1395 1313 1395 c 256,7,8
 1358 1395 1358 1395 1390 1363.5 c 128,-1,9
 1422 1332 1422 1332 1422 1287 c 0,10,11
 1422 1241 1422 1241 1390.5 1209.5 c 128,-1,12
 1359 1178 1359 1178 1313 1178 c 0,13,14
 1283 1178 1283 1178 1259 1193 c 1,15,-1
 1065 951 l 1,16,-1
 1589 813 l 1,17,18
 1618 901 1618 901 1708 901 c 0,19,20
 1761 901 1761 901 1797 863 c 128,-1,21
 1833 825 1833 825 1833 772 c 0,22,23
 1833 717 1833 717 1798 679.5 c 128,-1,24
 1763 642 1763 642 1708 642 c 0,25,26
 1661 642 1661 642 1624 676 c 1,27,-1
 1267 500 l 1,28,-1
 1624 314 l 1,29,30
 1661 348 1661 348 1708 348 c 0,31,32
 1763 348 1763 348 1798 310.5 c 128,-1,33
 1833 273 1833 273 1833 218 c 0,34,35
 1833 162 1833 162 1798 124.5 c 128,-1,36
 1763 87 1763 87 1708 87 c 0,37,38
 1619 87 1619 87 1589 177 c 1,39,-1
 1065 49 l 1,40,-1
 1259 -203 l 1,41,42
 1283 -188 1283 -188 1313 -188 c 0,43,44
 1359 -188 1359 -188 1390.5 -219.5 c 128,-1,45
 1422 -251 1422 -251 1422 -297 c 0,46,47
 1422 -342 1422 -342 1390 -373.5 c 128,-1,48
 1358 -405 1358 -405 1313 -405 c 256,49,50
 1268 -405 1268 -405 1235.5 -373.5 c 128,-1,51
 1203 -342 1203 -342 1203 -297 c 1,52,-1
 764 -97 l 1,53,-1
 289 -51 l 1,54,55
 153 134 153 134 153 500 c 0,0,1
218 500 m 0,56,57
 218 382 218 382 238 242 c 0,58,59
 268 31 268 31 330 31 c 256,60,61
 392 31 392 31 423 242 c 0,62,63
 443 378 443 378 443 500 c 0,64,65
 443 623 443 623 423 760 c 0,66,67
 392 972 392 972 330 972 c 256,68,69
 268 972 268 972 238 760 c 0,70,71
 218 619 218 619 218 500 c 0,56,57
1255 -295 m 256,72,73
 1255 -347 1255 -347 1307 -347 c 256,74,75
 1359 -347 1359 -347 1359 -295 c 256,76,77
 1359 -243 1359 -243 1307 -243 c 256,78,79
 1255 -243 1255 -243 1255 -295 c 256,72,73
405 8 m 1,80,-1
 504 8 l 1,81,-1
 614 106 l 1,82,-1
 614 -7 l 1,83,-1
 744 -17 l 1,84,85
 853 201 853 201 853 500 c 0,86,87
 853 796 853 796 744 1016 c 1,88,-1
 614 1007 l 1,89,-1
 614 893 l 1,90,-1
 504 991 l 1,91,-1
 406 991 l 1,92,93
 509 827 509 827 504 500 c 0,94,95
 499 143 499 143 405 8 c 1,80,-1
812 1045 m 1,96,97
 919 778 919 778 919 500 c 0,98,99
 919 202 919 202 812 -45 c 1,100,-1
 1199 -228 l 1,101,-1
 957 80 l 1,102,-1
 1566 237 l 1,103,-1
 1577 280 l 1,104,-1
 1130 500 l 1,105,-1
 1575 714 l 1,106,-1
 1566 751 l 1,107,-1
 957 919 l 1,108,-1
 1219 1233 l 1,109,-1
 812 1045 l 1,96,97
1641 218 m 0,110,111
 1641 150 1641 150 1708 150 c 0,112,113
 1773 150 1773 150 1773 218 c 0,114,115
 1773 283 1773 283 1708 283 c 0,116,117
 1641 283 1641 283 1641 218 c 0,110,111
1641 769 m 0,118,119
 1641 703 1641 703 1708 703 c 0,120,121
 1773 703 1773 703 1773 769 c 0,122,123
 1773 836 1773 836 1708 836 c 0,124,125
 1641 836 1641 836 1641 769 c 0,118,119
1261 1289 m 256,126,127
 1261 1237 1261 1237 1313 1237 c 256,128,129
 1365 1237 1365 1237 1365 1289 c 256,130,131
 1365 1341 1365 1341 1313 1341 c 256,132,133
 1261 1341 1261 1341 1261 1289 c 256,126,127
625 500 m 0,134,135
 625 612 625 612 670 612 c 256,136,137
 715 612 715 612 715 500 c 0,138,139
 715 387 715 387 670 387 c 256,140,141
 625 387 625 387 625 500 c 0,134,135
EndSplineSet
EndChar
StartChar: L
Encoding: 76 76 25
Width: 2000
Flags: W
Fore
0 -316 m 1,0,-1
 164 -152 l 1,1,-1
 222 -162 l 1,2,-1
 0 -384 l 1,3,-1
 0 -316 l 1,0,-1
88 -500 m 1,4,-1
 402 -186 l 1,5,-1
 465 -191 l 1,6,-1
 156 -500 l 1,7,-1
 88 -500 l 1,4,-1
0 -46 m 1,8,-1
 97 51 l 1,9,-1
 116 2 l 1,10,-1
 0 -114 l 1,11,-1
 0 -46 l 1,8,-1
358 -500 m 1,12,-1
 657 -201 l 1,13,-1
 704 -222 l 1,14,-1
 426 -500 l 1,15,-1
 358 -500 l 1,12,-1
0 224 m 1,16,-1
 56 280 l 1,17,-1
 63 219 l 1,18,-1
 0 156 l 1,19,-1
 0 224 l 1,16,-1
628 -500 m 1,20,-1
 847 -281 l 1,21,-1
 895 -301 l 1,22,-1
 696 -500 l 1,23,-1
 628 -500 l 1,20,-1
0 494 m 1,24,-1
 44 538 l 1,25,-1
 44 470 l 1,26,-1
 0 426 l 1,27,-1
 0 494 l 1,24,-1
898 -500 m 1,28,-1
 1035 -363 l 1,29,-1
 1083 -383 l 1,30,-1
 966 -500 l 1,31,-1
 898 -500 l 1,28,-1
1172 -500 m 1,32,-1
 1202 -470 l 1,33,-1
 1236 -500 l 1,34,-1
 1172 -500 l 1,32,-1
0 764 m 1,35,-1
 76 840 l 1,36,-1
 56 752 l 1,37,-1
 0 696 l 1,38,-1
 0 764 l 1,35,-1
1321 -77 m 1,39,-1
 1470 72 l 1,40,-1
 1503 37 l 1,41,-1
 1386 -80 l 1,42,-1
 1321 -77 l 1,39,-1
1501 -169 m 1,43,-1
 1641 -29 l 1,44,-1
 1703 -33 l 1,45,-1
 1515 -221 l 1,46,-1
 1501 -169 l 1,43,-1
153 500 m 0,47,48
 153 897 153 897 289 1041 c 1,49,-1
 764 1097 l 1,50,-1
 1203 1287 l 1,51,52
 1203 1332 1203 1332 1235.5 1363.5 c 128,-1,53
 1268 1395 1268 1395 1313 1395 c 256,54,55
 1358 1395 1358 1395 1390 1363.5 c 128,-1,56
 1422 1332 1422 1332 1422 1287 c 0,57,58
 1422 1241 1422 1241 1390.5 1209.5 c 128,-1,59
 1359 1178 1359 1178 1313 1178 c 0,60,61
 1283 1178 1283 1178 1259 1193 c 1,62,-1
 1065 951 l 1,63,-1
 1589 813 l 1,64,65
 1618 901 1618 901 1708 901 c 0,66,67
 1761 901 1761 901 1797 863 c 128,-1,68
 1833 825 1833 825 1833 772 c 0,69,70
 1833 717 1833 717 1798 679.5 c 128,-1,71
 1763 642 1763 642 1708 642 c 0,72,73
 1661 642 1661 642 1624 676 c 1,74,-1
 1267 500 l 1,75,-1
 1624 314 l 1,76,77
 1661 348 1661 348 1708 348 c 0,78,79
 1763 348 1763 348 1798 310.5 c 128,-1,80
 1833 273 1833 273 1833 218 c 0,81,82
 1833 162 1833 162 1798 124.5 c 128,-1,83
 1763 87 1763 87 1708 87 c 0,84,85
 1619 87 1619 87 1589 177 c 1,86,-1
 1065 49 l 1,87,-1
 1259 -203 l 1,88,89
 1283 -188 1283 -188 1313 -188 c 0,90,91
 1359 -188 1359 -188 1390.5 -219.5 c 128,-1,92
 1422 -251 1422 -251 1422 -297 c 0,93,94
 1422 -342 1422 -342 1390 -373.5 c 128,-1,95
 1358 -405 1358 -405 1313 -405 c 256,96,97
 1268 -405 1268 -405 1235.5 -373.5 c 128,-1,98
 1203 -342 1203 -342 1203 -297 c 1,99,-1
 764 -97 l 1,100,-1
 289 -51 l 1,101,102
 153 134 153 134 153 500 c 0,47,48
0 1034 m 1,103,-1
 466 1500 l 1,104,-1
 534 1500 l 1,105,-1
 0 966 l 1,106,-1
 0 1034 l 1,103,-1
0 1304 m 1,107,-1
 196 1500 l 1,108,-1
 264 1500 l 1,109,-1
 0 1236 l 1,110,-1
 0 1304 l 1,107,-1
1712 -500 m 1,111,-1
 2000 -208 l 1,112,-1
 2000 -276 l 1,113,-1
 1776 -500 l 1,114,-1
 1712 -500 l 1,111,-1
1442 -500 m 1,115,-1
 2000 62 l 1,116,-1
 2000 -6 l 1,117,-1
 1506 -500 l 1,118,-1
 1442 -500 l 1,115,-1
424 1188 m 1,119,-1
 736 1500 l 1,120,-1
 804 1500 l 1,121,-1
 504 1200 l 1,122,-1
 424 1188 l 1,119,-1
1606 478 m 1,123,-1
 1663 535 l 1,124,-1
 1741 545 l 1,125,-1
 1650 454 l 1,126,-1
 1606 478 l 1,123,-1
1948 212 m 1,127,-1
 1948 280 l 1,128,-1
 2000 332 l 1,129,-1
 2000 264 l 1,130,-1
 1948 212 l 1,127,-1
722 1216 m 1,131,-1
 1006 1500 l 1,132,-1
 1074 1500 l 1,133,-1
 820 1246 l 1,134,-1
 722 1216 l 1,131,-1
1841 443 m 1,135,-1
 2000 602 l 1,136,-1
 2000 534 l 1,137,-1
 1880 414 l 1,138,-1
 1841 443 l 1,135,-1
1935 739 m 1,139,-1
 1941 813 l 1,140,-1
 2000 872 l 1,141,-1
 2000 804 l 1,142,-1
 1935 739 l 1,139,-1
1331 1015 m 1,143,-1
 1816 1500 l 1,144,-1
 1884 1500 l 1,145,-1
 1384 1000 l 1,146,-1
 1331 1015 l 1,143,-1
1844 986 m 1,147,-1
 2000 1142 l 1,148,-1
 2000 1074 l 1,149,-1
 1883 957 l 1,150,-1
 1844 986 l 1,147,-1
1565 977 m 1,151,-1
 2000 1412 l 1,152,-1
 2000 1344 l 1,153,-1
 1647 991 l 1,154,-1
 1565 977 l 1,151,-1
1485 1439 m 1,155,-1
 1546 1500 l 1,156,-1
 1614 1500 l 1,157,-1
 1512 1398 l 1,158,-1
 1485 1439 l 1,155,-1
218 500 m 0,159,160
 218 382 218 382 238 242 c 0,161,162
 268 31 268 31 330 31 c 256,163,164
 392 31 392 31 423 242 c 0,165,166
 443 378 443 378 443 500 c 0,167,168
 443 623 443 623 423 760 c 0,169,170
 392 972 392 972 330 972 c 256,171,172
 268 972 268 972 238 760 c 0,173,174
 218 619 218 619 218 500 c 0,159,160
1255 -295 m 256,175,176
 1255 -347 1255 -347 1307 -347 c 256,177,178
 1359 -347 1359 -347 1359 -295 c 256,179,180
 1359 -243 1359 -243 1307 -243 c 256,181,182
 1255 -243 1255 -243 1255 -295 c 256,175,176
405 8 m 1,183,-1
 504 8 l 1,184,-1
 614 106 l 1,185,-1
 614 -7 l 1,186,-1
 744 -17 l 1,187,188
 853 201 853 201 853 500 c 0,189,190
 853 796 853 796 744 1016 c 1,191,-1
 614 1007 l 1,192,-1
 614 893 l 1,193,-1
 504 991 l 1,194,-1
 406 991 l 1,195,196
 509 827 509 827 504 500 c 0,197,198
 499 143 499 143 405 8 c 1,183,-1
812 1045 m 1,199,200
 919 778 919 778 919 500 c 0,201,202
 919 202 919 202 812 -45 c 1,203,-1
 1199 -228 l 1,204,-1
 957 80 l 1,205,-1
 1566 237 l 1,206,-1
 1577 280 l 1,207,-1
 1130 500 l 1,208,-1
 1575 714 l 1,209,-1
 1566 751 l 1,210,-1
 957 919 l 1,211,-1
 1219 1233 l 1,212,-1
 812 1045 l 1,199,200
1641 218 m 0,213,214
 1641 150 1641 150 1708 150 c 0,215,216
 1773 150 1773 150 1773 218 c 0,217,218
 1773 283 1773 283 1708 283 c 0,219,220
 1641 283 1641 283 1641 218 c 0,213,214
1641 769 m 0,221,222
 1641 703 1641 703 1708 703 c 0,223,224
 1773 703 1773 703 1773 769 c 0,225,226
 1773 836 1773 836 1708 836 c 0,227,228
 1641 836 1641 836 1641 769 c 0,221,222
1261 1289 m 256,229,230
 1261 1237 1261 1237 1313 1237 c 256,231,232
 1365 1237 1365 1237 1365 1289 c 256,233,234
 1365 1341 1365 1341 1313 1341 c 256,235,236
 1261 1341 1261 1341 1261 1289 c 256,229,230
625 500 m 0,237,238
 625 612 625 612 670 612 c 256,239,240
 715 612 715 612 715 500 c 0,241,242
 715 387 715 387 670 387 c 256,243,244
 625 387 625 387 625 500 c 0,237,238
EndSplineSet
EndChar
StartChar: M
Encoding: 77 77 26
Width: 2000
Flags: W
Fore
153 500 m 0,0,1
 153 897 153 897 289 1041 c 1,2,-1
 764 1097 l 1,3,-1
 1203 1287 l 1,4,5
 1203 1332 1203 1332 1235.5 1363.5 c 128,-1,6
 1268 1395 1268 1395 1313 1395 c 256,7,8
 1358 1395 1358 1395 1390 1363.5 c 128,-1,9
 1422 1332 1422 1332 1422 1287 c 0,10,11
 1422 1241 1422 1241 1390.5 1209.5 c 128,-1,12
 1359 1178 1359 1178 1313 1178 c 0,13,14
 1283 1178 1283 1178 1259 1193 c 1,15,-1
 1065 951 l 1,16,-1
 1589 813 l 1,17,18
 1618 901 1618 901 1708 901 c 0,19,20
 1761 901 1761 901 1797 863 c 128,-1,21
 1833 825 1833 825 1833 772 c 0,22,23
 1833 717 1833 717 1798 679.5 c 128,-1,24
 1763 642 1763 642 1708 642 c 0,25,26
 1661 642 1661 642 1624 676 c 1,27,-1
 1267 500 l 1,28,-1
 1624 314 l 1,29,30
 1661 348 1661 348 1708 348 c 0,31,32
 1763 348 1763 348 1798 310.5 c 128,-1,33
 1833 273 1833 273 1833 218 c 0,34,35
 1833 162 1833 162 1798 124.5 c 128,-1,36
 1763 87 1763 87 1708 87 c 0,37,38
 1619 87 1619 87 1589 177 c 1,39,-1
 1065 49 l 1,40,-1
 1259 -203 l 1,41,42
 1283 -188 1283 -188 1313 -188 c 0,43,44
 1359 -188 1359 -188 1390.5 -219.5 c 128,-1,45
 1422 -251 1422 -251 1422 -297 c 0,46,47
 1422 -342 1422 -342 1390 -373.5 c 128,-1,48
 1358 -405 1358 -405 1313 -405 c 256,49,50
 1268 -405 1268 -405 1235.5 -373.5 c 128,-1,51
 1203 -342 1203 -342 1203 -297 c 1,52,-1
 764 -97 l 1,53,-1
 289 -51 l 1,54,55
 153 134 153 134 153 500 c 0,0,1
522 62 m 0,56,57
 502 -6 502 -6 545 -6 c 0,58,59
 571 -6 571 -6 585 47 c 0,60,61
 602 115 602 115 562 115 c 0,62,63
 537 115 537 115 522 62 c 0,56,57
332 922 m 1,64,65
 334 931 334 931 361 822 c 0,66,67
 391 700 391 700 391 500 c 256,68,69
 391 300 391 300 361 178 c 0,70,71
 334 69 334 69 332 78 c 1,72,73
 337 48 337 48 379 48 c 0,74,75
 448 48 448 48 476 251 c 0,76,77
 491 360 491 360 491 500 c 256,78,79
 491 640 491 640 476 749 c 0,80,81
 448 952 448 952 379 952 c 0,82,83
 337 952 337 952 332 922 c 1,64,65
577 500 m 256,84,85
 577 396 577 396 633 396 c 0,86,87
 687 396 687 396 687 500 c 256,88,89
 687 604 687 604 633 604 c 0,90,91
 577 604 577 604 577 500 c 256,84,85
696 988 m 1,92,93
 698 997 698 997 735 855 c 0,94,95
 775 701 775 701 775 500 c 256,96,97
 775 299 775 299 735 145 c 0,98,99
 698 3 698 3 696 12 c 1,100,101
 702 -21 702 -21 743 -21 c 0,102,103
 759 -21 759 -21 775 -13 c 0,104,105
 804 1 804 1 839 118 c 0,106,107
 884 269 884 269 884 500 c 256,108,109
 884 731 884 731 839 882 c 0,110,111
 804 999 804 999 775 1013 c 0,112,113
 759 1021 759 1021 743 1021 c 0,114,115
 702 1021 702 1021 696 988 c 1,92,93
522 932 m 0,116,117
 537 879 537 879 562 879 c 0,118,119
 602 879 602 879 585 947 c 0,120,121
 571 1000 571 1000 545 1000 c 0,122,123
 502 1000 502 1000 522 932 c 0,116,117
EndSplineSet
EndChar
StartChar: N
Encoding: 78 78 27
Width: 2000
Flags: W
Fore
0 -316 m 1,0,-1
 164 -152 l 1,1,-1
 222 -162 l 1,2,-1
 0 -384 l 1,3,-1
 0 -316 l 1,0,-1
88 -500 m 1,4,-1
 402 -186 l 1,5,-1
 465 -191 l 1,6,-1
 156 -500 l 1,7,-1
 88 -500 l 1,4,-1
0 -46 m 1,8,-1
 97 51 l 1,9,-1
 116 2 l 1,10,-1
 0 -114 l 1,11,-1
 0 -46 l 1,8,-1
358 -500 m 1,12,-1
 657 -201 l 1,13,-1
 704 -222 l 1,14,-1
 426 -500 l 1,15,-1
 358 -500 l 1,12,-1
0 224 m 1,16,-1
 56 280 l 1,17,-1
 63 219 l 1,18,-1
 0 156 l 1,19,-1
 0 224 l 1,16,-1
628 -500 m 1,20,-1
 847 -281 l 1,21,-1
 895 -301 l 1,22,-1
 696 -500 l 1,23,-1
 628 -500 l 1,20,-1
0 494 m 1,24,-1
 44 538 l 1,25,-1
 44 470 l 1,26,-1
 0 426 l 1,27,-1
 0 494 l 1,24,-1
898 -500 m 1,28,-1
 1035 -363 l 1,29,-1
 1083 -383 l 1,30,-1
 966 -500 l 1,31,-1
 898 -500 l 1,28,-1
1172 -500 m 1,32,-1
 1202 -470 l 1,33,-1
 1236 -500 l 1,34,-1
 1172 -500 l 1,32,-1
0 764 m 1,35,-1
 76 840 l 1,36,-1
 56 752 l 1,37,-1
 0 696 l 1,38,-1
 0 764 l 1,35,-1
1321 -77 m 1,39,-1
 1470 72 l 1,40,-1
 1503 37 l 1,41,-1
 1386 -80 l 1,42,-1
 1321 -77 l 1,39,-1
1501 -169 m 1,43,-1
 1641 -29 l 1,44,-1
 1703 -33 l 1,45,-1
 1515 -221 l 1,46,-1
 1501 -169 l 1,43,-1
153 500 m 0,47,48
 153 897 153 897 289 1041 c 1,49,-1
 764 1097 l 1,50,-1
 1203 1287 l 1,51,52
 1203 1332 1203 1332 1235.5 1363.5 c 128,-1,53
 1268 1395 1268 1395 1313 1395 c 256,54,55
 1358 1395 1358 1395 1390 1363.5 c 128,-1,56
 1422 1332 1422 1332 1422 1287 c 0,57,58
 1422 1241 1422 1241 1390.5 1209.5 c 128,-1,59
 1359 1178 1359 1178 1313 1178 c 0,60,61
 1283 1178 1283 1178 1259 1193 c 1,62,-1
 1065 951 l 1,63,-1
 1589 813 l 1,64,65
 1618 901 1618 901 1708 901 c 0,66,67
 1761 901 1761 901 1797 863 c 128,-1,68
 1833 825 1833 825 1833 772 c 0,69,70
 1833 717 1833 717 1798 679.5 c 128,-1,71
 1763 642 1763 642 1708 642 c 0,72,73
 1661 642 1661 642 1624 676 c 1,74,-1
 1267 500 l 1,75,-1
 1624 314 l 1,76,77
 1661 348 1661 348 1708 348 c 0,78,79
 1763 348 1763 348 1798 310.5 c 128,-1,80
 1833 273 1833 273 1833 218 c 0,81,82
 1833 162 1833 162 1798 124.5 c 128,-1,83
 1763 87 1763 87 1708 87 c 0,84,85
 1619 87 1619 87 1589 177 c 1,86,-1
 1065 49 l 1,87,-1
 1259 -203 l 1,88,89
 1283 -188 1283 -188 1313 -188 c 0,90,91
 1359 -188 1359 -188 1390.5 -219.5 c 128,-1,92
 1422 -251 1422 -251 1422 -297 c 0,93,94
 1422 -342 1422 -342 1390 -373.5 c 128,-1,95
 1358 -405 1358 -405 1313 -405 c 256,96,97
 1268 -405 1268 -405 1235.5 -373.5 c 128,-1,98
 1203 -342 1203 -342 1203 -297 c 1,99,-1
 764 -97 l 1,100,-1
 289 -51 l 1,101,102
 153 134 153 134 153 500 c 0,47,48
0 1304 m 1,103,-1
 196 1500 l 1,104,-1
 264 1500 l 1,105,-1
 0 1236 l 1,106,-1
 0 1304 l 1,103,-1
0 1034 m 1,107,-1
 466 1500 l 1,108,-1
 534 1500 l 1,109,-1
 0 966 l 1,110,-1
 0 1034 l 1,107,-1
1712 -500 m 1,111,-1
 2000 -208 l 1,112,-1
 2000 -276 l 1,113,-1
 1776 -500 l 1,114,-1
 1712 -500 l 1,111,-1
1442 -500 m 1,115,-1
 2000 62 l 1,116,-1
 2000 -6 l 1,117,-1
 1506 -500 l 1,118,-1
 1442 -500 l 1,115,-1
424 1188 m 1,119,-1
 736 1500 l 1,120,-1
 804 1500 l 1,121,-1
 504 1200 l 1,122,-1
 424 1188 l 1,119,-1
1606 478 m 1,123,-1
 1663 535 l 1,124,-1
 1741 545 l 1,125,-1
 1650 454 l 1,126,-1
 1606 478 l 1,123,-1
1948 212 m 1,127,-1
 1948 280 l 1,128,-1
 2000 332 l 1,129,-1
 2000 264 l 1,130,-1
 1948 212 l 1,127,-1
722 1216 m 1,131,-1
 1006 1500 l 1,132,-1
 1074 1500 l 1,133,-1
 820 1246 l 1,134,-1
 722 1216 l 1,131,-1
1841 443 m 1,135,-1
 2000 602 l 1,136,-1
 2000 534 l 1,137,-1
 1880 414 l 1,138,-1
 1841 443 l 1,135,-1
1935 739 m 1,139,-1
 1941 813 l 1,140,-1
 2000 872 l 1,141,-1
 2000 804 l 1,142,-1
 1935 739 l 1,139,-1
1331 1015 m 1,143,-1
 1816 1500 l 1,144,-1
 1884 1500 l 1,145,-1
 1384 1000 l 1,146,-1
 1331 1015 l 1,143,-1
1844 986 m 1,147,-1
 2000 1142 l 1,148,-1
 2000 1074 l 1,149,-1
 1883 957 l 1,150,-1
 1844 986 l 1,147,-1
1565 977 m 1,151,-1
 2000 1412 l 1,152,-1
 2000 1344 l 1,153,-1
 1647 991 l 1,154,-1
 1565 977 l 1,151,-1
1485 1439 m 1,155,-1
 1546 1500 l 1,156,-1
 1614 1500 l 1,157,-1
 1512 1398 l 1,158,-1
 1485 1439 l 1,155,-1
522 62 m 0,159,160
 502 -6 502 -6 545 -6 c 0,161,162
 571 -6 571 -6 585 47 c 0,163,164
 602 115 602 115 562 115 c 0,165,166
 537 115 537 115 522 62 c 0,159,160
332 922 m 1,167,168
 334 931 334 931 361 822 c 0,169,170
 391 700 391 700 391 500 c 256,171,172
 391 300 391 300 361 178 c 0,173,174
 334 69 334 69 332 78 c 1,175,176
 337 48 337 48 379 48 c 0,177,178
 448 48 448 48 476 251 c 0,179,180
 491 360 491 360 491 500 c 256,181,182
 491 640 491 640 476 749 c 0,183,184
 448 952 448 952 379 952 c 0,185,186
 337 952 337 952 332 922 c 1,167,168
577 500 m 256,187,188
 577 396 577 396 633 396 c 0,189,190
 687 396 687 396 687 500 c 256,191,192
 687 604 687 604 633 604 c 0,193,194
 577 604 577 604 577 500 c 256,187,188
696 988 m 1,195,196
 698 997 698 997 735 855 c 0,197,198
 775 701 775 701 775 500 c 256,199,200
 775 299 775 299 735 145 c 0,201,202
 698 3 698 3 696 12 c 1,203,204
 702 -21 702 -21 743 -21 c 0,205,206
 759 -21 759 -21 775 -13 c 0,207,208
 804 1 804 1 839 118 c 0,209,210
 884 269 884 269 884 500 c 256,211,212
 884 731 884 731 839 882 c 0,213,214
 804 999 804 999 775 1013 c 0,215,216
 759 1021 759 1021 743 1021 c 0,217,218
 702 1021 702 1021 696 988 c 1,195,196
522 932 m 0,219,220
 537 879 537 879 562 879 c 0,221,222
 602 879 602 879 585 947 c 0,223,224
 571 1000 571 1000 545 1000 c 0,225,226
 502 1000 502 1000 522 932 c 0,219,220
EndSplineSet
EndChar
StartChar: O
Encoding: 79 79 28
Width: 2000
Flags: W
Fore
1905 173 m 256,0,1
 1905 218 1905 218 1873.5 250.5 c 128,-1,2
 1842 283 1842 283 1797 283 c 1,3,-1
 1597 722 l 1,4,-1
 1551 1197 l 1,5,6
 1365 1333 1365 1333 1000 1333 c 0,7,8
 603 1333 603 1333 459 1197 c 1,9,-1
 403 722 l 1,10,-1
 213 283 l 1,11,12
 168 283 168 283 136.5 250.5 c 128,-1,13
 105 218 105 218 105 173 c 256,14,15
 105 128 105 128 136.5 96 c 128,-1,16
 168 64 168 64 213 64 c 0,17,18
 259 64 259 64 290.5 95.5 c 128,-1,19
 322 127 322 127 322 173 c 0,20,21
 322 203 322 203 307 227 c 1,22,-1
 549 421 l 1,23,-1
 687 -103 l 1,24,25
 599 -133 599 -133 599 -222 c 0,26,27
 599 -275 599 -275 637 -311 c 128,-1,28
 675 -347 675 -347 728 -347 c 0,29,30
 783 -347 783 -347 820.5 -312 c 128,-1,31
 858 -277 858 -277 858 -222 c 0,32,33
 858 -175 858 -175 824 -138 c 1,34,-1
 1000 219 l 1,35,-1
 1186 -138 l 1,36,37
 1152 -175 1152 -175 1152 -222 c 0,38,39
 1152 -277 1152 -277 1189.5 -312 c 128,-1,40
 1227 -347 1227 -347 1282 -347 c 0,41,42
 1338 -347 1338 -347 1375.5 -312 c 128,-1,43
 1413 -277 1413 -277 1413 -222 c 0,44,45
 1413 -133 1413 -133 1323 -103 c 1,46,-1
 1451 421 l 1,47,-1
 1703 227 l 1,48,49
 1688 203 1688 203 1688 173 c 0,50,51
 1688 127 1688 127 1719.5 95.5 c 128,-1,52
 1751 64 1751 64 1797 64 c 0,53,54
 1842 64 1842 64 1873.5 96 c 128,-1,55
 1905 128 1905 128 1905 173 c 256,0,1
1847 179 m 256,56,57
 1847 127 1847 127 1795 127 c 256,58,59
 1743 127 1743 127 1743 179 c 256,60,61
 1743 231 1743 231 1795 231 c 256,62,63
 1847 231 1847 231 1847 179 c 256,56,57
1350 -222 m 0,64,65
 1350 -287 1350 -287 1282 -287 c 0,66,67
 1217 -287 1217 -287 1217 -222 c 0,68,69
 1217 -155 1217 -155 1282 -155 c 0,70,71
 1350 -155 1350 -155 1350 -222 c 0,64,65
797 -222 m 0,72,73
 797 -287 797 -287 731 -287 c 0,74,75
 704 -287 704 -287 684 -268 c 128,-1,76
 664 -249 664 -249 664 -222 c 0,77,78
 664 -155 664 -155 731 -155 c 0,79,80
 797 -155 797 -155 797 -222 c 0,72,73
1728 287 m 1,81,-1
 1420 529 l 1,82,-1
 1263 -80 l 1,83,-1
 1220 -91 l 1,84,-1
 1000 356 l 1,85,-1
 786 -89 l 1,86,-1
 749 -80 l 1,87,-1
 581 529 l 1,88,-1
 267 267 l 1,89,-1
 455 674 l 1,90,91
 723 567 723 567 1000 567 c 0,92,93
 1297 567 1297 567 1545 674 c 1,94,-1
 1728 287 l 1,81,-1
1517 742 m 1,95,96
 1299 633 1299 633 1000 633 c 0,97,98
 704 633 704 633 484 742 c 1,99,-1
 493 872 l 1,100,-1
 607 872 l 1,101,-1
 509 982 l 1,102,-1
 509 1080 l 1,103,104
 672 977 672 977 1000 982 c 0,105,106
 1356 987 1356 987 1492 1081 c 1,107,-1
 1492 982 l 1,108,-1
 1394 872 l 1,109,-1
 1507 872 l 1,110,-1
 1517 742 l 1,95,96
263 173 m 256,111,112
 263 121 263 121 211 121 c 256,113,114
 159 121 159 121 159 173 c 256,115,116
 159 225 159 225 211 225 c 256,117,118
 263 225 263 225 263 173 c 256,111,112
1469 1156 m 256,119,120
 1469 1094 1469 1094 1258 1063 c 0,121,122
 1122 1043 1122 1043 1000 1043 c 0,123,124
 877 1043 877 1043 740 1063 c 0,125,126
 528 1094 528 1094 528 1156 c 256,127,128
 528 1218 528 1218 740 1248 c 0,129,130
 881 1268 881 1268 1000 1268 c 0,131,132
 1118 1268 1118 1268 1258 1248 c 0,133,134
 1469 1218 1469 1218 1469 1156 c 256,119,120
1113 816 m 256,135,136
 1113 861 1113 861 1000 861 c 0,137,138
 888 861 888 861 888 816 c 256,139,140
 888 771 888 771 1000 771 c 0,141,142
 1113 771 1113 771 1113 816 c 256,135,136
EndSplineSet
EndChar
StartChar: P
Encoding: 80 80 29
Width: 2000
Flags: W
Fore
116 -500 m 1,0,-1
 487 -129 l 1,1,-1
 479 -205 l 1,2,-1
 184 -500 l 1,3,-1
 116 -500 l 1,0,-1
0 -74 m 1,4,-1
 78 4 l 1,5,-1
 121 -21 l 1,6,-1
 0 -142 l 1,7,-1
 0 -74 l 1,4,-1
386 -500 m 1,8,-1
 517 -369 l 1,9,-1
 549 -405 l 1,10,-1
 454 -500 l 1,11,-1
 386 -500 l 1,8,-1
0 -344 m 1,12,-1
 491 147 l 1,13,-1
 505 93 l 1,14,-1
 0 -412 l 1,15,-1
 0 -344 l 1,12,-1
656 -500 m 1,16,-1
 704 -452 l 1,17,-1
 775 -449 l 1,18,-1
 724 -500 l 1,19,-1
 656 -500 l 1,16,-1
926 -500 m 1,20,-1
 1056 -370 l 1,21,-1
 1088 -406 l 1,22,-1
 994 -500 l 1,23,-1
 926 -500 l 1,20,-1
0 466 m 1,24,-1
 270 736 l 1,25,-1
 264 662 l 1,26,-1
 0 398 l 1,27,-1
 0 466 l 1,24,-1
922 -302 m 1,28,-1
 945 -211 l 1,29,-1
 1040 -116 l 1,30,-1
 1036 -188 l 1,31,-1
 922 -302 l 1,28,-1
1196 -500 m 1,32,-1
 1253 -443 l 1,33,-1
 1333 -431 l 1,34,-1
 1264 -500 l 1,35,-1
 1196 -500 l 1,32,-1
0 736 m 1,36,-1
 294 1030 l 1,37,-1
 288 956 l 1,38,-1
 0 668 l 1,39,-1
 0 736 l 1,36,-1
1736 -500 m 1,40,-1
 2000 -236 l 1,41,-1
 2000 -304 l 1,42,-1
 1804 -500 l 1,43,-1
 1736 -500 l 1,40,-1
1466 -500 m 1,44,-1
 2000 34 l 1,45,-1
 2000 -34 l 1,46,-1
 1534 -500 l 1,47,-1
 1466 -500 l 1,44,-1
1521 -175 m 1,48,-1
 1680 -16 l 1,49,-1
 1734 -30 l 1,50,-1
 1525 -239 l 1,51,-1
 1521 -175 l 1,48,-1
0 1006 m 1,52,-1
 494 1500 l 1,53,-1
 562 1500 l 1,54,-1
 0 938 l 1,55,-1
 0 1006 l 1,52,-1
0 1276 m 1,56,-1
 224 1500 l 1,57,-1
 292 1500 l 1,58,-1
 0 1208 l 1,59,-1
 0 1276 l 1,56,-1
95 187 m 256,60,61
 95 232 95 232 126.5 264.5 c 128,-1,62
 158 297 158 297 203 297 c 1,63,-1
 403 736 l 1,64,-1
 449 1211 l 1,65,66
 634 1347 634 1347 1000 1347 c 0,67,68
 1397 1347 1397 1347 1541 1211 c 1,69,-1
 1597 736 l 1,70,-1
 1787 297 l 1,71,72
 1832 297 1832 297 1863.5 264.5 c 128,-1,73
 1895 232 1895 232 1895 187 c 256,74,75
 1895 142 1895 142 1863.5 110 c 128,-1,76
 1832 78 1832 78 1787 78 c 0,77,78
 1741 78 1741 78 1709.5 109.5 c 128,-1,79
 1678 141 1678 141 1678 187 c 0,80,81
 1678 217 1678 217 1693 241 c 1,82,-1
 1451 435 l 1,83,-1
 1313 -89 l 1,84,85
 1401 -118 1401 -118 1401 -208 c 0,86,87
 1401 -261 1401 -261 1363 -297 c 128,-1,88
 1325 -333 1325 -333 1272 -333 c 0,89,90
 1217 -333 1217 -333 1179.5 -298 c 128,-1,91
 1142 -263 1142 -263 1142 -208 c 0,92,93
 1142 -161 1142 -161 1176 -124 c 1,94,-1
 1000 233 l 1,95,-1
 814 -124 l 1,96,97
 848 -161 848 -161 848 -208 c 0,98,99
 848 -263 848 -263 810.5 -298 c 128,-1,100
 773 -333 773 -333 718 -333 c 0,101,102
 662 -333 662 -333 624.5 -298 c 128,-1,103
 587 -263 587 -263 587 -208 c 0,104,105
 587 -119 587 -119 677 -89 c 1,106,-1
 549 435 l 1,107,-1
 297 241 l 1,108,109
 312 217 312 217 312 187 c 0,110,111
 312 141 312 141 280.5 109.5 c 128,-1,112
 249 78 249 78 203 78 c 0,113,114
 158 78 158 78 126.5 110 c 128,-1,115
 95 142 95 142 95 187 c 256,60,61
1425 -1 m 1,116,-1
 1575 149 l 1,117,-1
 1580 86 l 1,118,-1
 1457 -37 l 1,119,-1
 1425 -1 l 1,116,-1
696 1432 m 1,120,-1
 764 1500 l 1,121,-1
 832 1500 l 1,122,-1
 780 1448 l 1,123,-1
 696 1432 l 1,120,-1
1981 285 m 1,124,-1
 2000 304 l 1,125,-1
 2000 236 l 1,126,-1
 1981 285 l 1,124,-1
1860 434 m 1,127,-1
 2000 574 l 1,128,-1
 2000 506 l 1,129,-1
 1879 385 l 1,130,-1
 1860 434 l 1,127,-1
1000 1466 m 1,131,-1
 1034 1500 l 1,132,-1
 1102 1500 l 1,133,-1
 1070 1468 l 1,134,-1
 1000 1466 l 1,131,-1
1786 630 m 1,135,-1
 2000 844 l 1,136,-1
 2000 776 l 1,137,-1
 1805 581 l 1,138,-1
 1786 630 l 1,135,-1
1262 1458 m 1,139,-1
 1304 1500 l 1,140,-1
 1372 1500 l 1,141,-1
 1321 1449 l 1,142,-1
 1262 1458 l 1,139,-1
1725 839 m 1,143,-1
 2000 1114 l 1,144,-1
 2000 1046 l 1,145,-1
 1732 778 l 1,146,-1
 1725 839 l 1,143,-1
1493 1419 m 1,147,-1
 1574 1500 l 1,148,-1
 1642 1500 l 1,149,-1
 1537 1395 l 1,150,-1
 1493 1419 l 1,147,-1
1698 1082 m 1,151,-1
 2000 1384 l 1,152,-1
 2000 1316 l 1,153,-1
 1705 1021 l 1,154,-1
 1698 1082 l 1,151,-1
1670 1326 m 1,155,-1
 1844 1500 l 1,156,-1
 1912 1500 l 1,157,-1
 1677 1265 l 1,158,-1
 1670 1326 l 1,155,-1
153 193 m 256,159,160
 153 141 153 141 205 141 c 256,161,162
 257 141 257 141 257 193 c 256,163,164
 257 245 257 245 205 245 c 256,165,166
 153 245 153 245 153 193 c 256,159,160
650 -208 m 0,167,168
 650 -273 650 -273 718 -273 c 0,169,170
 783 -273 783 -273 783 -208 c 0,171,172
 783 -141 783 -141 718 -141 c 0,173,174
 650 -141 650 -141 650 -208 c 0,167,168
1203 -208 m 0,175,176
 1203 -273 1203 -273 1269 -273 c 0,177,178
 1336 -273 1336 -273 1336 -208 c 0,179,180
 1336 -141 1336 -141 1269 -141 c 0,181,182
 1203 -141 1203 -141 1203 -208 c 0,175,176
272 301 m 1,183,-1
 580 543 l 1,184,-1
 737 -66 l 1,185,-1
 780 -77 l 1,186,-1
 1000 370 l 1,187,-1
 1214 -75 l 1,188,-1
 1251 -66 l 1,189,-1
 1419 543 l 1,190,-1
 1733 281 l 1,191,-1
 1545 688 l 1,192,193
 1278 581 1278 581 1000 581 c 0,194,195
 702 581 702 581 455 688 c 1,196,-1
 272 301 l 1,183,-1
483 756 m 1,197,198
 701 647 701 647 1000 647 c 0,199,200
 1296 647 1296 647 1516 756 c 1,201,-1
 1507 886 l 1,202,-1
 1393 886 l 1,203,-1
 1491 996 l 1,204,-1
 1491 1094 l 1,205,206
 1327 991 1327 991 1000 996 c 0,207,208
 643 1001 643 1001 508 1095 c 1,209,-1
 508 996 l 1,210,-1
 606 886 l 1,211,-1
 493 886 l 1,212,-1
 483 756 l 1,197,198
1737 187 m 256,213,214
 1737 135 1737 135 1789 135 c 256,215,216
 1841 135 1841 135 1841 187 c 256,217,218
 1841 239 1841 239 1789 239 c 256,219,220
 1737 239 1737 239 1737 187 c 256,213,214
531 1170 m 256,221,222
 531 1108 531 1108 742 1077 c 0,223,224
 878 1057 878 1057 1000 1057 c 0,225,226
 1123 1057 1123 1057 1260 1077 c 0,227,228
 1472 1108 1472 1108 1472 1170 c 256,229,230
 1472 1232 1472 1232 1260 1262 c 0,231,232
 1119 1282 1119 1282 1000 1282 c 0,233,234
 882 1282 882 1282 742 1262 c 0,235,236
 531 1232 531 1232 531 1170 c 256,221,222
887 830 m 256,237,238
 887 875 887 875 1000 875 c 0,239,240
 1112 875 1112 875 1112 830 c 256,241,242
 1112 785 1112 785 1000 785 c 0,243,244
 887 785 887 785 887 830 c 256,237,238
EndSplineSet
EndChar
StartChar: Q
Encoding: 81 81 30
Width: 2000
Flags: W
Fore
1905 173 m 256,0,1
 1905 218 1905 218 1873.5 250.5 c 128,-1,2
 1842 283 1842 283 1797 283 c 1,3,-1
 1597 722 l 1,4,-1
 1551 1197 l 1,5,6
 1366 1333 1366 1333 1000 1333 c 0,7,8
 603 1333 603 1333 459 1197 c 1,9,-1
 403 722 l 1,10,-1
 213 283 l 1,11,12
 168 283 168 283 136.5 250.5 c 128,-1,13
 105 218 105 218 105 173 c 256,14,15
 105 128 105 128 136.5 96 c 128,-1,16
 168 64 168 64 213 64 c 0,17,18
 259 64 259 64 290.5 95.5 c 128,-1,19
 322 127 322 127 322 173 c 0,20,21
 322 203 322 203 307 227 c 1,22,-1
 549 421 l 1,23,-1
 687 -103 l 1,24,25
 599 -132 599 -132 599 -222 c 0,26,27
 599 -275 599 -275 637 -311 c 128,-1,28
 675 -347 675 -347 728 -347 c 0,29,30
 783 -347 783 -347 820.5 -312 c 128,-1,31
 858 -277 858 -277 858 -222 c 0,32,33
 858 -175 858 -175 824 -138 c 1,34,-1
 1000 219 l 1,35,-1
 1186 -138 l 1,36,37
 1152 -175 1152 -175 1152 -222 c 0,38,39
 1152 -277 1152 -277 1189.5 -312 c 128,-1,40
 1227 -347 1227 -347 1282 -347 c 0,41,42
 1338 -347 1338 -347 1375.5 -312 c 128,-1,43
 1413 -277 1413 -277 1413 -222 c 0,44,45
 1413 -133 1413 -133 1323 -103 c 1,46,-1
 1451 421 l 1,47,-1
 1703 227 l 1,48,49
 1688 203 1688 203 1688 173 c 0,50,51
 1688 127 1688 127 1719.5 95.5 c 128,-1,52
 1751 64 1751 64 1797 64 c 0,53,54
 1842 64 1842 64 1873.5 96 c 128,-1,55
 1905 128 1905 128 1905 173 c 256,0,1
1506 941 m 0,56,57
 1506 915 1506 915 1453 901 c 0,58,59
 1385 884 1385 884 1385 924 c 0,60,61
 1385 949 1385 949 1438 964 c 0,62,63
 1506 984 1506 984 1506 941 c 0,56,57
1513 711 m 0,64,65
 1499 682 1499 682 1382 647 c 0,66,67
 1231 602 1231 602 1000 602 c 256,68,69
 769 602 769 602 618 647 c 0,70,71
 501 682 501 682 487 711 c 0,72,73
 479 727 479 727 479 743 c 0,74,75
 479 784 479 784 512 790 c 1,76,77
 503 788 503 788 645 751 c 0,78,79
 799 711 799 711 1000 711 c 256,80,81
 1201 711 1201 711 1355 751 c 0,82,83
 1497 788 1497 788 1488 790 c 1,84,85
 1521 784 1521 784 1521 743 c 0,86,87
 1521 727 1521 727 1513 711 c 0,64,65
1104 853 m 0,88,89
 1104 799 1104 799 1000 799 c 256,90,91
 896 799 896 799 896 853 c 0,92,93
 896 909 896 909 1000 909 c 256,94,95
 1104 909 1104 909 1104 853 c 0,88,89
1000 995 m 256,96,97
 860 995 860 995 751 1010 c 0,98,99
 548 1038 548 1038 548 1107 c 0,100,101
 548 1149 548 1149 578 1154 c 1,102,103
 569 1152 569 1152 678 1125 c 0,104,105
 800 1095 800 1095 1000 1095 c 256,106,107
 1200 1095 1200 1095 1322 1125 c 0,108,109
 1431 1152 1431 1152 1422 1154 c 1,110,111
 1452 1149 1452 1149 1452 1107 c 0,112,113
 1452 1038 1452 1038 1249 1010 c 0,114,115
 1140 995 1140 995 1000 995 c 256,96,97
553 901 m 0,116,117
 500 915 500 915 500 941 c 0,118,119
 500 984 500 984 568 964 c 0,120,121
 621 949 621 949 621 924 c 0,122,123
 621 884 621 884 553 901 c 0,116,117
EndSplineSet
EndChar
StartChar: R
Encoding: 82 82 31
Width: 2000
Flags: W
Fore
116 -500 m 1,0,-1
 487 -129 l 1,1,-1
 479 -205 l 1,2,-1
 184 -500 l 1,3,-1
 116 -500 l 1,0,-1
0 -74 m 1,4,-1
 78 4 l 1,5,-1
 121 -21 l 1,6,-1
 0 -142 l 1,7,-1
 0 -74 l 1,4,-1
386 -500 m 1,8,-1
 517 -369 l 1,9,-1
 549 -405 l 1,10,-1
 454 -500 l 1,11,-1
 386 -500 l 1,8,-1
0 -344 m 1,12,-1
 491 147 l 1,13,-1
 505 93 l 1,14,-1
 0 -412 l 1,15,-1
 0 -344 l 1,12,-1
656 -500 m 1,16,-1
 704 -452 l 1,17,-1
 775 -449 l 1,18,-1
 724 -500 l 1,19,-1
 656 -500 l 1,16,-1
926 -500 m 1,20,-1
 1056 -370 l 1,21,-1
 1088 -406 l 1,22,-1
 994 -500 l 1,23,-1
 926 -500 l 1,20,-1
0 466 m 1,24,-1
 270 736 l 1,25,-1
 264 662 l 1,26,-1
 0 398 l 1,27,-1
 0 466 l 1,24,-1
922 -302 m 1,28,-1
 945 -211 l 1,29,-1
 1040 -116 l 1,30,-1
 1036 -188 l 1,31,-1
 922 -302 l 1,28,-1
1196 -500 m 1,32,-1
 1253 -443 l 1,33,-1
 1333 -431 l 1,34,-1
 1264 -500 l 1,35,-1
 1196 -500 l 1,32,-1
0 736 m 1,36,-1
 294 1030 l 1,37,-1
 288 956 l 1,38,-1
 0 668 l 1,39,-1
 0 736 l 1,36,-1
1736 -500 m 1,40,-1
 2000 -236 l 1,41,-1
 2000 -304 l 1,42,-1
 1804 -500 l 1,43,-1
 1736 -500 l 1,40,-1
1466 -500 m 1,44,-1
 2000 34 l 1,45,-1
 2000 -34 l 1,46,-1
 1534 -500 l 1,47,-1
 1466 -500 l 1,44,-1
1521 -175 m 1,48,-1
 1680 -16 l 1,49,-1
 1734 -30 l 1,50,-1
 1525 -239 l 1,51,-1
 1521 -175 l 1,48,-1
0 1006 m 1,52,-1
 494 1500 l 1,53,-1
 562 1500 l 1,54,-1
 0 938 l 1,55,-1
 0 1006 l 1,52,-1
0 1276 m 1,56,-1
 224 1500 l 1,57,-1
 292 1500 l 1,58,-1
 0 1208 l 1,59,-1
 0 1276 l 1,56,-1
95 187 m 256,60,61
 95 232 95 232 126.5 264.5 c 128,-1,62
 158 297 158 297 203 297 c 1,63,-1
 403 736 l 1,64,-1
 449 1211 l 1,65,66
 634 1347 634 1347 1000 1347 c 0,67,68
 1397 1347 1397 1347 1541 1211 c 1,69,-1
 1597 736 l 1,70,-1
 1787 297 l 1,71,72
 1832 297 1832 297 1863.5 264.5 c 128,-1,73
 1895 232 1895 232 1895 187 c 256,74,75
 1895 142 1895 142 1863.5 110 c 128,-1,76
 1832 78 1832 78 1787 78 c 0,77,78
 1741 78 1741 78 1709.5 109.5 c 128,-1,79
 1678 141 1678 141 1678 187 c 0,80,81
 1678 217 1678 217 1693 241 c 1,82,-1
 1451 435 l 1,83,-1
 1313 -89 l 1,84,85
 1401 -118 1401 -118 1401 -208 c 0,86,87
 1401 -261 1401 -261 1363 -297 c 128,-1,88
 1325 -333 1325 -333 1272 -333 c 0,89,90
 1217 -333 1217 -333 1179.5 -298 c 128,-1,91
 1142 -263 1142 -263 1142 -208 c 0,92,93
 1142 -161 1142 -161 1176 -124 c 1,94,-1
 1000 233 l 1,95,-1
 814 -124 l 1,96,97
 848 -161 848 -161 848 -208 c 0,98,99
 848 -263 848 -263 810.5 -298 c 128,-1,100
 773 -333 773 -333 718 -333 c 0,101,102
 662 -333 662 -333 624.5 -298 c 128,-1,103
 587 -263 587 -263 587 -208 c 0,104,105
 587 -119 587 -119 677 -89 c 1,106,-1
 549 435 l 1,107,-1
 297 241 l 1,108,109
 312 217 312 217 312 187 c 0,110,111
 312 141 312 141 280.5 109.5 c 128,-1,112
 249 78 249 78 203 78 c 0,113,114
 158 78 158 78 126.5 110 c 128,-1,115
 95 142 95 142 95 187 c 256,60,61
1425 -1 m 1,116,-1
 1575 149 l 1,117,-1
 1580 86 l 1,118,-1
 1457 -37 l 1,119,-1
 1425 -1 l 1,116,-1
696 1432 m 1,120,-1
 764 1500 l 1,121,-1
 832 1500 l 1,122,-1
 780 1448 l 1,123,-1
 696 1432 l 1,120,-1
1981 285 m 1,124,-1
 2000 304 l 1,125,-1
 2000 236 l 1,126,-1
 1981 285 l 1,124,-1
1860 434 m 1,127,-1
 2000 574 l 1,128,-1
 2000 506 l 1,129,-1
 1879 385 l 1,130,-1
 1860 434 l 1,127,-1
1000 1466 m 1,131,-1
 1034 1500 l 1,132,-1
 1102 1500 l 1,133,-1
 1070 1468 l 1,134,-1
 1000 1466 l 1,131,-1
1786 630 m 1,135,-1
 2000 844 l 1,136,-1
 2000 776 l 1,137,-1
 1805 581 l 1,138,-1
 1786 630 l 1,135,-1
1262 1458 m 1,139,-1
 1304 1500 l 1,140,-1
 1372 1500 l 1,141,-1
 1321 1449 l 1,142,-1
 1262 1458 l 1,139,-1
1725 839 m 1,143,-1
 2000 1114 l 1,144,-1
 2000 1046 l 1,145,-1
 1732 778 l 1,146,-1
 1725 839 l 1,143,-1
1493 1419 m 1,147,-1
 1574 1500 l 1,148,-1
 1642 1500 l 1,149,-1
 1537 1395 l 1,150,-1
 1493 1419 l 1,147,-1
1698 1082 m 1,151,-1
 2000 1384 l 1,152,-1
 2000 1316 l 1,153,-1
 1705 1021 l 1,154,-1
 1698 1082 l 1,151,-1
1670 1326 m 1,155,-1
 1844 1500 l 1,156,-1
 1912 1500 l 1,157,-1
 1677 1265 l 1,158,-1
 1670 1326 l 1,155,-1
494 955 m 0,159,160
 494 929 494 929 547 915 c 0,161,162
 615 898 615 898 615 938 c 0,163,164
 615 963 615 963 562 978 c 0,165,166
 494 998 494 998 494 955 c 0,159,160
487 725 m 0,167,168
 501 696 501 696 618 661 c 0,169,170
 769 616 769 616 1000 616 c 256,171,172
 1231 616 1231 616 1382 661 c 0,173,174
 1499 696 1499 696 1513 725 c 0,175,176
 1521 741 1521 741 1521 757 c 0,177,178
 1521 798 1521 798 1488 804 c 1,179,180
 1497 802 1497 802 1355 765 c 0,181,182
 1201 725 1201 725 1000 725 c 256,183,184
 799 725 799 725 645 765 c 0,185,186
 503 802 503 802 512 804 c 1,187,188
 479 798 479 798 479 757 c 0,189,190
 479 741 479 741 487 725 c 0,167,168
896 867 m 0,191,192
 896 813 896 813 1000 813 c 256,193,194
 1104 813 1104 813 1104 867 c 0,195,196
 1104 923 1104 923 1000 923 c 256,197,198
 896 923 896 923 896 867 c 0,191,192
1000 1009 m 256,199,200
 1140 1009 1140 1009 1249 1024 c 0,201,202
 1452 1052 1452 1052 1452 1121 c 0,203,204
 1452 1163 1452 1163 1422 1168 c 1,205,206
 1431 1166 1431 1166 1322 1139 c 0,207,208
 1200 1109 1200 1109 1000 1109 c 256,209,210
 800 1109 800 1109 678 1139 c 0,211,212
 569 1166 569 1166 578 1168 c 1,213,214
 548 1163 548 1163 548 1121 c 0,215,216
 548 1052 548 1052 751 1024 c 0,217,218
 860 1009 860 1009 1000 1009 c 256,199,200
1447 915 m 0,219,220
 1500 929 1500 929 1500 955 c 0,221,222
 1500 998 1500 998 1432 978 c 0,223,224
 1379 963 1379 963 1379 938 c 0,225,226
 1379 898 1379 898 1447 915 c 0,219,220
EndSplineSet
EndChar
StartChar: S
Encoding: 83 83 32
Width: 2000
Flags: W
Fore
1833 500 m 0,0,1
 1833 897 1833 897 1697 1041 c 1,2,-1
 1222 1097 l 1,3,-1
 783 1287 l 1,4,5
 783 1332 783 1332 750.5 1363.5 c 128,-1,6
 718 1395 718 1395 673 1395 c 256,7,8
 628 1395 628 1395 596 1363.5 c 128,-1,9
 564 1332 564 1332 564 1287 c 0,10,11
 564 1241 564 1241 595.5 1209.5 c 128,-1,12
 627 1178 627 1178 673 1178 c 0,13,14
 703 1178 703 1178 727 1193 c 1,15,-1
 921 951 l 1,16,-1
 397 813 l 1,17,18
 368 901 368 901 278 901 c 0,19,20
 225 901 225 901 189 863 c 128,-1,21
 153 825 153 825 153 772 c 0,22,23
 153 717 153 717 188 679.5 c 128,-1,24
 223 642 223 642 278 642 c 0,25,26
 325 642 325 642 362 676 c 1,27,-1
 719 500 l 1,28,-1
 362 314 l 1,29,30
 325 348 325 348 278 348 c 0,31,32
 223 348 223 348 188 310.5 c 128,-1,33
 153 273 153 273 153 218 c 0,34,35
 153 162 153 162 188 124.5 c 128,-1,36
 223 87 223 87 278 87 c 0,37,38
 367 87 367 87 397 177 c 1,39,-1
 921 49 l 1,40,-1
 727 -203 l 1,41,42
 703 -188 703 -188 673 -188 c 0,43,44
 627 -188 627 -188 595.5 -219.5 c 128,-1,45
 564 -251 564 -251 564 -297 c 0,46,47
 564 -342 564 -342 596 -373.5 c 128,-1,48
 628 -405 628 -405 673 -405 c 256,49,50
 718 -405 718 -405 750.5 -373.5 c 128,-1,51
 783 -342 783 -342 783 -297 c 1,52,-1
 1222 -97 l 1,53,-1
 1697 -51 l 1,54,55
 1833 134 1833 134 1833 500 c 0,0,1
1768 500 m 0,56,57
 1768 382 1768 382 1748 242 c 0,58,59
 1718 31 1718 31 1656 31 c 256,60,61
 1594 31 1594 31 1563 242 c 0,62,63
 1543 378 1543 378 1543 500 c 0,64,65
 1543 623 1543 623 1563 760 c 0,66,67
 1594 972 1594 972 1656 972 c 256,68,69
 1718 972 1718 972 1748 760 c 0,70,71
 1768 619 1768 619 1768 500 c 0,56,57
731 -295 m 256,72,73
 731 -347 731 -347 679 -347 c 256,74,75
 627 -347 627 -347 627 -295 c 256,76,77
 627 -243 627 -243 679 -243 c 256,78,79
 731 -243 731 -243 731 -295 c 256,72,73
1581 8 m 1,80,-1
 1482 8 l 1,81,-1
 1372 106 l 1,82,-1
 1372 -7 l 1,83,-1
 1242 -17 l 1,84,85
 1133 201 1133 201 1133 500 c 0,86,87
 1133 796 1133 796 1242 1016 c 1,88,-1
 1372 1007 l 1,89,-1
 1372 893 l 1,90,-1
 1482 991 l 1,91,-1
 1580 991 l 1,92,93
 1477 827 1477 827 1482 500 c 0,94,95
 1487 143 1487 143 1581 8 c 1,80,-1
1174 1045 m 1,96,97
 1067 778 1067 778 1067 500 c 0,98,99
 1067 202 1067 202 1174 -45 c 1,100,-1
 787 -228 l 1,101,-1
 1029 80 l 1,102,-1
 420 237 l 1,103,-1
 409 280 l 1,104,-1
 856 500 l 1,105,-1
 411 714 l 1,106,-1
 420 751 l 1,107,-1
 1029 919 l 1,108,-1
 767 1233 l 1,109,-1
 1174 1045 l 1,96,97
345 218 m 0,110,111
 345 150 345 150 278 150 c 0,112,113
 213 150 213 150 213 218 c 0,114,115
 213 283 213 283 278 283 c 0,116,117
 345 283 345 283 345 218 c 0,110,111
345 769 m 0,118,119
 345 703 345 703 278 703 c 0,120,121
 213 703 213 703 213 769 c 0,122,123
 213 836 213 836 278 836 c 0,124,125
 345 836 345 836 345 769 c 0,118,119
725 1289 m 256,126,127
 725 1237 725 1237 673 1237 c 256,128,129
 621 1237 621 1237 621 1289 c 256,130,131
 621 1341 621 1341 673 1341 c 256,132,133
 725 1341 725 1341 725 1289 c 256,126,127
1361 500 m 0,134,135
 1361 612 1361 612 1316 612 c 256,136,137
 1271 612 1271 612 1271 500 c 0,138,139
 1271 387 1271 387 1316 387 c 256,140,141
 1361 387 1361 387 1361 500 c 0,134,135
EndSplineSet
EndChar
StartChar: T
Encoding: 84 84 33
Width: 2000
Flags: W
Fore
2000 1316 m 1,0,-1
 1836 1152 l 1,1,-1
 1778 1162 l 1,2,-1
 2000 1384 l 1,3,-1
 2000 1316 l 1,0,-1
1912 1500 m 1,4,-1
 1598 1186 l 1,5,-1
 1535 1191 l 1,6,-1
 1844 1500 l 1,7,-1
 1912 1500 l 1,4,-1
2000 1046 m 1,8,-1
 1903 949 l 1,9,-1
 1884 998 l 1,10,-1
 2000 1114 l 1,11,-1
 2000 1046 l 1,8,-1
1642 1500 m 1,12,-1
 1343 1201 l 1,13,-1
 1296 1222 l 1,14,-1
 1574 1500 l 1,15,-1
 1642 1500 l 1,12,-1
2000 776 m 1,16,-1
 1944 720 l 1,17,-1
 1937 781 l 1,18,-1
 2000 844 l 1,19,-1
 2000 776 l 1,16,-1
1372 1500 m 1,20,-1
 1153 1281 l 1,21,-1
 1105 1301 l 1,22,-1
 1304 1500 l 1,23,-1
 1372 1500 l 1,20,-1
2000 506 m 1,24,-1
 1956 462 l 1,25,-1
 1956 530 l 1,26,-1
 2000 574 l 1,27,-1
 2000 506 l 1,24,-1
1102 1500 m 1,28,-1
 965 1363 l 1,29,-1
 917 1383 l 1,30,-1
 1034 1500 l 1,31,-1
 1102 1500 l 1,28,-1
828 1500 m 1,32,-1
 798 1470 l 1,33,-1
 764 1500 l 1,34,-1
 828 1500 l 1,32,-1
2000 236 m 1,35,-1
 1924 160 l 1,36,-1
 1944 248 l 1,37,-1
 2000 304 l 1,38,-1
 2000 236 l 1,35,-1
679 1077 m 1,39,-1
 530 928 l 1,40,-1
 497 963 l 1,41,-1
 614 1080 l 1,42,-1
 679 1077 l 1,39,-1
499 1169 m 1,43,-1
 359 1029 l 1,44,-1
 297 1033 l 1,45,-1
 485 1221 l 1,46,-1
 499 1169 l 1,43,-1
1847 500 m 0,47,48
 1847 103 1847 103 1711 -41 c 1,49,-1
 1236 -97 l 1,50,-1
 797 -287 l 1,51,52
 797 -332 797 -332 764.5 -363.5 c 128,-1,53
 732 -395 732 -395 687 -395 c 256,54,55
 642 -395 642 -395 610 -363.5 c 128,-1,56
 578 -332 578 -332 578 -287 c 0,57,58
 578 -241 578 -241 609.5 -209.5 c 128,-1,59
 641 -178 641 -178 687 -178 c 0,60,61
 717 -178 717 -178 741 -193 c 1,62,-1
 935 49 l 1,63,-1
 411 187 l 1,64,65
 382 99 382 99 292 99 c 0,66,67
 239 99 239 99 203 137 c 128,-1,68
 167 175 167 175 167 228 c 0,69,70
 167 283 167 283 202 320.5 c 128,-1,71
 237 358 237 358 292 358 c 0,72,73
 339 358 339 358 376 324 c 1,74,-1
 733 500 l 1,75,-1
 376 686 l 1,76,77
 339 652 339 652 292 652 c 0,78,79
 237 652 237 652 202 689.5 c 128,-1,80
 167 727 167 727 167 782 c 0,81,82
 167 838 167 838 202 875.5 c 128,-1,83
 237 913 237 913 292 913 c 0,84,85
 381 913 381 913 411 823 c 1,86,-1
 935 951 l 1,87,-1
 741 1203 l 1,88,89
 717 1188 717 1188 687 1188 c 0,90,91
 641 1188 641 1188 609.5 1219.5 c 128,-1,92
 578 1251 578 1251 578 1297 c 0,93,94
 578 1342 578 1342 610 1373.5 c 128,-1,95
 642 1405 642 1405 687 1405 c 256,96,97
 732 1405 732 1405 764.5 1373.5 c 128,-1,98
 797 1342 797 1342 797 1297 c 1,99,-1
 1236 1097 l 1,100,-1
 1711 1051 l 1,101,102
 1847 866 1847 866 1847 500 c 0,47,48
2000 -34 m 1,103,-1
 1534 -500 l 1,104,-1
 1466 -500 l 1,105,-1
 2000 34 l 1,106,-1
 2000 -34 l 1,103,-1
2000 -304 m 1,107,-1
 1804 -500 l 1,108,-1
 1736 -500 l 1,109,-1
 2000 -236 l 1,110,-1
 2000 -304 l 1,107,-1
288 1500 m 1,111,-1
 0 1208 l 1,112,-1
 0 1276 l 1,113,-1
 224 1500 l 1,114,-1
 288 1500 l 1,111,-1
558 1500 m 1,115,-1
 0 938 l 1,116,-1
 0 1006 l 1,117,-1
 494 1500 l 1,118,-1
 558 1500 l 1,115,-1
1576 -188 m 1,119,-1
 1264 -500 l 1,120,-1
 1196 -500 l 1,121,-1
 1496 -200 l 1,122,-1
 1576 -188 l 1,119,-1
394 522 m 1,123,-1
 337 465 l 1,124,-1
 259 455 l 1,125,-1
 350 546 l 1,126,-1
 394 522 l 1,123,-1
52 788 m 1,127,-1
 52 720 l 1,128,-1
 0 668 l 1,129,-1
 0 736 l 1,130,-1
 52 788 l 1,127,-1
1278 -216 m 1,131,-1
 994 -500 l 1,132,-1
 926 -500 l 1,133,-1
 1180 -246 l 1,134,-1
 1278 -216 l 1,131,-1
159 557 m 1,135,-1
 0 398 l 1,136,-1
 0 466 l 1,137,-1
 120 586 l 1,138,-1
 159 557 l 1,135,-1
65 261 m 1,139,-1
 59 187 l 1,140,-1
 0 128 l 1,141,-1
 0 196 l 1,142,-1
 65 261 l 1,139,-1
669 -15 m 1,143,-1
 184 -500 l 1,144,-1
 116 -500 l 1,145,-1
 616 0 l 1,146,-1
 669 -15 l 1,143,-1
156 14 m 1,147,-1
 0 -142 l 1,148,-1
 0 -74 l 1,149,-1
 117 43 l 1,150,-1
 156 14 l 1,147,-1
435 23 m 1,151,-1
 0 -412 l 1,152,-1
 0 -344 l 1,153,-1
 353 9 l 1,154,-1
 435 23 l 1,151,-1
515 -439 m 1,155,-1
 454 -500 l 1,156,-1
 386 -500 l 1,157,-1
 488 -398 l 1,158,-1
 515 -439 l 1,155,-1
1782 500 m 0,159,160
 1782 618 1782 618 1762 758 c 0,161,162
 1732 969 1732 969 1670 969 c 256,163,164
 1608 969 1608 969 1577 758 c 0,165,166
 1557 622 1557 622 1557 500 c 0,167,168
 1557 377 1557 377 1577 240 c 0,169,170
 1608 28 1608 28 1670 28 c 256,171,172
 1732 28 1732 28 1762 240 c 0,173,174
 1782 381 1782 381 1782 500 c 0,159,160
745 1295 m 256,175,176
 745 1347 745 1347 693 1347 c 256,177,178
 641 1347 641 1347 641 1295 c 256,179,180
 641 1243 641 1243 693 1243 c 256,181,182
 745 1243 745 1243 745 1295 c 256,175,176
1595 992 m 1,183,-1
 1496 992 l 1,184,-1
 1386 894 l 1,185,-1
 1386 1007 l 1,186,-1
 1256 1017 l 1,187,188
 1147 799 1147 799 1147 500 c 0,189,190
 1147 204 1147 204 1256 -16 c 1,191,-1
 1386 -7 l 1,192,-1
 1386 107 l 1,193,-1
 1496 9 l 1,194,-1
 1594 9 l 1,195,196
 1491 173 1491 173 1496 500 c 0,197,198
 1501 857 1501 857 1595 992 c 1,183,-1
1188 -45 m 1,199,200
 1081 222 1081 222 1081 500 c 0,201,202
 1081 798 1081 798 1188 1045 c 1,203,-1
 801 1228 l 1,204,-1
 1043 920 l 1,205,-1
 434 763 l 1,206,-1
 423 720 l 1,207,-1
 870 500 l 1,208,-1
 425 286 l 1,209,-1
 434 249 l 1,210,-1
 1043 81 l 1,211,-1
 781 -233 l 1,212,-1
 1188 -45 l 1,199,200
359 782 m 0,213,214
 359 850 359 850 292 850 c 0,215,216
 227 850 227 850 227 782 c 0,217,218
 227 717 227 717 292 717 c 0,219,220
 359 717 359 717 359 782 c 0,213,214
359 231 m 0,221,222
 359 297 359 297 292 297 c 0,223,224
 227 297 227 297 227 231 c 0,225,226
 227 164 227 164 292 164 c 0,227,228
 359 164 359 164 359 231 c 0,221,222
739 -289 m 256,229,230
 739 -237 739 -237 687 -237 c 256,231,232
 635 -237 635 -237 635 -289 c 256,233,234
 635 -341 635 -341 687 -341 c 256,235,236
 739 -341 739 -341 739 -289 c 256,229,230
1375 500 m 0,237,238
 1375 388 1375 388 1330 388 c 256,239,240
 1285 388 1285 388 1285 500 c 0,241,242
 1285 613 1285 613 1330 613 c 256,243,244
 1375 613 1375 613 1375 500 c 0,237,238
EndSplineSet
EndChar
StartChar: U
Encoding: 85 85 34
Width: 2000
Flags: W
Fore
1833 500 m 0,0,1
 1833 897 1833 897 1697 1041 c 1,2,-1
 1222 1097 l 1,3,-1
 783 1287 l 1,4,5
 783 1332 783 1332 750.5 1363.5 c 128,-1,6
 718 1395 718 1395 673 1395 c 256,7,8
 628 1395 628 1395 596 1363.5 c 128,-1,9
 564 1332 564 1332 564 1287 c 0,10,11
 564 1241 564 1241 595.5 1209.5 c 128,-1,12
 627 1178 627 1178 673 1178 c 0,13,14
 703 1178 703 1178 727 1193 c 1,15,-1
 921 951 l 1,16,-1
 397 813 l 1,17,18
 368 901 368 901 278 901 c 0,19,20
 225 901 225 901 189 863 c 128,-1,21
 153 825 153 825 153 772 c 0,22,23
 153 717 153 717 188 679.5 c 128,-1,24
 223 642 223 642 278 642 c 0,25,26
 325 642 325 642 362 676 c 1,27,-1
 719 500 l 1,28,-1
 362 314 l 1,29,30
 325 348 325 348 278 348 c 0,31,32
 223 348 223 348 188 310.5 c 128,-1,33
 153 273 153 273 153 218 c 0,34,35
 153 162 153 162 188 124.5 c 128,-1,36
 223 87 223 87 278 87 c 0,37,38
 367 87 367 87 397 177 c 1,39,-1
 921 49 l 1,40,-1
 727 -203 l 1,41,42
 703 -188 703 -188 673 -188 c 0,43,44
 627 -188 627 -188 595.5 -219.5 c 128,-1,45
 564 -251 564 -251 564 -297 c 0,46,47
 564 -342 564 -342 596 -373.5 c 128,-1,48
 628 -405 628 -405 673 -405 c 256,49,50
 718 -405 718 -405 750.5 -373.5 c 128,-1,51
 783 -342 783 -342 783 -297 c 1,52,-1
 1222 -97 l 1,53,-1
 1697 -51 l 1,54,55
 1833 134 1833 134 1833 500 c 0,0,1
1464 62 m 0,56,57
 1484 -6 1484 -6 1441 -6 c 0,58,59
 1415 -6 1415 -6 1401 47 c 0,60,61
 1384 115 1384 115 1424 115 c 0,62,63
 1449 115 1449 115 1464 62 c 0,56,57
1654 922 m 1,64,65
 1652 931 1652 931 1625 822 c 0,66,67
 1595 700 1595 700 1595 500 c 256,68,69
 1595 300 1595 300 1625 178 c 0,70,71
 1652 69 1652 69 1654 78 c 1,72,73
 1649 48 1649 48 1607 48 c 0,74,75
 1538 48 1538 48 1510 251 c 0,76,77
 1495 360 1495 360 1495 500 c 256,78,79
 1495 640 1495 640 1510 749 c 0,80,81
 1538 952 1538 952 1607 952 c 0,82,83
 1649 952 1649 952 1654 922 c 1,64,65
1409 500 m 256,84,85
 1409 396 1409 396 1353 396 c 0,86,87
 1299 396 1299 396 1299 500 c 256,88,89
 1299 604 1299 604 1353 604 c 0,90,91
 1409 604 1409 604 1409 500 c 256,84,85
1290 988 m 1,92,93
 1288 997 1288 997 1251 855 c 0,94,95
 1211 701 1211 701 1211 500 c 256,96,97
 1211 299 1211 299 1251 145 c 0,98,99
 1288 3 1288 3 1290 12 c 1,100,101
 1284 -21 1284 -21 1243 -21 c 0,102,103
 1227 -21 1227 -21 1211 -13 c 0,104,105
 1182 1 1182 1 1147 118 c 0,106,107
 1102 269 1102 269 1102 500 c 256,108,109
 1102 731 1102 731 1147 882 c 0,110,111
 1182 999 1182 999 1211 1013 c 0,112,113
 1227 1021 1227 1021 1243 1021 c 0,114,115
 1284 1021 1284 1021 1290 988 c 1,92,93
1464 932 m 0,116,117
 1449 879 1449 879 1424 879 c 0,118,119
 1384 879 1384 879 1401 947 c 0,120,121
 1415 1000 1415 1000 1441 1000 c 0,122,123
 1484 1000 1484 1000 1464 932 c 0,116,117
EndSplineSet
EndChar
StartChar: V
Encoding: 86 86 35
Width: 2000
Flags: W
Fore
2000 1316 m 1,0,-1
 1836 1152 l 1,1,-1
 1778 1162 l 1,2,-1
 2000 1384 l 1,3,-1
 2000 1316 l 1,0,-1
1912 1500 m 1,4,-1
 1598 1186 l 1,5,-1
 1535 1191 l 1,6,-1
 1844 1500 l 1,7,-1
 1912 1500 l 1,4,-1
2000 1046 m 1,8,-1
 1903 949 l 1,9,-1
 1884 998 l 1,10,-1
 2000 1114 l 1,11,-1
 2000 1046 l 1,8,-1
1642 1500 m 1,12,-1
 1343 1201 l 1,13,-1
 1296 1222 l 1,14,-1
 1574 1500 l 1,15,-1
 1642 1500 l 1,12,-1
2000 776 m 1,16,-1
 1944 720 l 1,17,-1
 1937 781 l 1,18,-1
 2000 844 l 1,19,-1
 2000 776 l 1,16,-1
1372 1500 m 1,20,-1
 1153 1281 l 1,21,-1
 1105 1301 l 1,22,-1
 1304 1500 l 1,23,-1
 1372 1500 l 1,20,-1
2000 506 m 1,24,-1
 1956 462 l 1,25,-1
 1956 530 l 1,26,-1
 2000 574 l 1,27,-1
 2000 506 l 1,24,-1
1102 1500 m 1,28,-1
 965 1363 l 1,29,-1
 917 1383 l 1,30,-1
 1034 1500 l 1,31,-1
 1102 1500 l 1,28,-1
828 1500 m 1,32,-1
 798 1470 l 1,33,-1
 764 1500 l 1,34,-1
 828 1500 l 1,32,-1
2000 236 m 1,35,-1
 1924 160 l 1,36,-1
 1944 248 l 1,37,-1
 2000 304 l 1,38,-1
 2000 236 l 1,35,-1
679 1077 m 1,39,-1
 530 928 l 1,40,-1
 497 963 l 1,41,-1
 614 1080 l 1,42,-1
 679 1077 l 1,39,-1
499 1169 m 1,43,-1
 359 1029 l 1,44,-1
 297 1033 l 1,45,-1
 485 1221 l 1,46,-1
 499 1169 l 1,43,-1
1847 500 m 0,47,48
 1847 103 1847 103 1711 -41 c 1,49,-1
 1236 -97 l 1,50,-1
 797 -287 l 1,51,52
 797 -332 797 -332 764.5 -363.5 c 128,-1,53
 732 -395 732 -395 687 -395 c 256,54,55
 642 -395 642 -395 610 -363.5 c 128,-1,56
 578 -332 578 -332 578 -287 c 0,57,58
 578 -241 578 -241 609.5 -209.5 c 128,-1,59
 641 -178 641 -178 687 -178 c 0,60,61
 717 -178 717 -178 741 -193 c 1,62,-1
 935 49 l 1,63,-1
 411 187 l 1,64,65
 382 99 382 99 292 99 c 0,66,67
 239 99 239 99 203 137 c 128,-1,68
 167 175 167 175 167 228 c 0,69,70
 167 283 167 283 202 320.5 c 128,-1,71
 237 358 237 358 292 358 c 0,72,73
 339 358 339 358 376 324 c 1,74,-1
 733 500 l 1,75,-1
 376 686 l 1,76,77
 339 652 339 652 292 652 c 0,78,79
 237 652 237 652 202 689.5 c 128,-1,80
 167 727 167 727 167 782 c 0,81,82
 167 838 167 838 202 875.5 c 128,-1,83
 237 913 237 913 292 913 c 0,84,85
 381 913 381 913 411 823 c 1,86,-1
 935 951 l 1,87,-1
 741 1203 l 1,88,89
 717 1188 717 1188 687 1188 c 0,90,91
 641 1188 641 1188 609.5 1219.5 c 128,-1,92
 578 1251 578 1251 578 1297 c 0,93,94
 578 1342 578 1342 610 1373.5 c 128,-1,95
 642 1405 642 1405 687 1405 c 256,96,97
 732 1405 732 1405 764.5 1373.5 c 128,-1,98
 797 1342 797 1342 797 1297 c 1,99,-1
 1236 1097 l 1,100,-1
 1711 1051 l 1,101,102
 1847 866 1847 866 1847 500 c 0,47,48
2000 -304 m 1,103,-1
 1804 -500 l 1,104,-1
 1736 -500 l 1,105,-1
 2000 -236 l 1,106,-1
 2000 -304 l 1,103,-1
2000 -34 m 1,107,-1
 1534 -500 l 1,108,-1
 1466 -500 l 1,109,-1
 2000 34 l 1,110,-1
 2000 -34 l 1,107,-1
288 1500 m 1,111,-1
 0 1208 l 1,112,-1
 0 1276 l 1,113,-1
 224 1500 l 1,114,-1
 288 1500 l 1,111,-1
558 1500 m 1,115,-1
 0 938 l 1,116,-1
 0 1006 l 1,117,-1
 494 1500 l 1,118,-1
 558 1500 l 1,115,-1
1576 -188 m 1,119,-1
 1264 -500 l 1,120,-1
 1196 -500 l 1,121,-1
 1496 -200 l 1,122,-1
 1576 -188 l 1,119,-1
394 522 m 1,123,-1
 337 465 l 1,124,-1
 259 455 l 1,125,-1
 350 546 l 1,126,-1
 394 522 l 1,123,-1
52 788 m 1,127,-1
 52 720 l 1,128,-1
 0 668 l 1,129,-1
 0 736 l 1,130,-1
 52 788 l 1,127,-1
1278 -216 m 1,131,-1
 994 -500 l 1,132,-1
 926 -500 l 1,133,-1
 1180 -246 l 1,134,-1
 1278 -216 l 1,131,-1
159 557 m 1,135,-1
 0 398 l 1,136,-1
 0 466 l 1,137,-1
 120 586 l 1,138,-1
 159 557 l 1,135,-1
65 261 m 1,139,-1
 59 187 l 1,140,-1
 0 128 l 1,141,-1
 0 196 l 1,142,-1
 65 261 l 1,139,-1
669 -15 m 1,143,-1
 184 -500 l 1,144,-1
 116 -500 l 1,145,-1
 616 0 l 1,146,-1
 669 -15 l 1,143,-1
156 14 m 1,147,-1
 0 -142 l 1,148,-1
 0 -74 l 1,149,-1
 117 43 l 1,150,-1
 156 14 l 1,147,-1
435 23 m 1,151,-1
 0 -412 l 1,152,-1
 0 -344 l 1,153,-1
 353 9 l 1,154,-1
 435 23 l 1,151,-1
515 -439 m 1,155,-1
 454 -500 l 1,156,-1
 386 -500 l 1,157,-1
 488 -398 l 1,158,-1
 515 -439 l 1,155,-1
1478 938 m 0,159,160
 1498 1006 1498 1006 1455 1006 c 0,161,162
 1429 1006 1429 1006 1415 953 c 0,163,164
 1398 885 1398 885 1438 885 c 0,165,166
 1463 885 1463 885 1478 938 c 0,159,160
1668 78 m 1,167,168
 1666 69 1666 69 1639 178 c 0,169,170
 1609 300 1609 300 1609 500 c 256,171,172
 1609 700 1609 700 1639 822 c 0,173,174
 1666 931 1666 931 1668 922 c 1,175,176
 1663 952 1663 952 1621 952 c 0,177,178
 1552 952 1552 952 1524 749 c 0,179,180
 1509 640 1509 640 1509 500 c 256,181,182
 1509 360 1509 360 1524 251 c 0,183,184
 1552 48 1552 48 1621 48 c 0,185,186
 1663 48 1663 48 1668 78 c 1,167,168
1423 500 m 256,187,188
 1423 604 1423 604 1367 604 c 0,189,190
 1313 604 1313 604 1313 500 c 256,191,192
 1313 396 1313 396 1367 396 c 0,193,194
 1423 396 1423 396 1423 500 c 256,187,188
1304 12 m 1,195,196
 1302 3 1302 3 1265 145 c 0,197,198
 1225 299 1225 299 1225 500 c 256,199,200
 1225 701 1225 701 1265 855 c 0,201,202
 1302 997 1302 997 1304 988 c 1,203,204
 1298 1021 1298 1021 1257 1021 c 0,205,206
 1241 1021 1241 1021 1225 1013 c 0,207,208
 1196 999 1196 999 1161 882 c 0,209,210
 1116 731 1116 731 1116 500 c 256,211,212
 1116 269 1116 269 1161 118 c 0,213,214
 1196 1 1196 1 1225 -13 c 0,215,216
 1241 -21 1241 -21 1257 -21 c 0,217,218
 1298 -21 1298 -21 1304 12 c 1,195,196
1478 68 m 0,219,220
 1463 121 1463 121 1438 121 c 0,221,222
 1398 121 1398 121 1415 53 c 0,223,224
 1429 0 1429 0 1455 0 c 0,225,226
 1498 0 1498 0 1478 68 c 0,219,220
EndSplineSet
EndChar
StartChar: W
Encoding: 87 87 36
Width: 2000
Flags: W
Fore
399 992 m 1,0,-1
 399 1325 l 1,1,-1
 633 1325 l 1,2,-1
 633 1171 l 1,3,-1
 843 1171 l 1,4,-1
 843 1326 l 1,5,-1
 1157 1326 l 1,6,-1
 1157 1171 l 1,7,-1
 1367 1171 l 1,8,-1
 1367 1325 l 1,9,-1
 1601 1325 l 1,10,-1
 1601 992 l 1,11,-1
 1445 837 l 1,12,-1
 1445 178 l 1,13,-1
 1574 46 l 1,14,-1
 1574 -6 l 1,15,-1
 1680 -106 l 1,16,-1
 1680 -332 l 1,17,-1
 320 -332 l 1,18,-1
 320 -106 l 1,19,-1
 426 -6 l 1,20,-1
 426 46 l 1,21,-1
 555 178 l 1,22,-1
 555 837 l 1,23,-1
 399 992 l 1,0,-1
635 211 m 1,24,-1
 1365 211 l 1,25,-1
 1365 814 l 1,26,-1
 635 814 l 1,27,-1
 635 211 l 1,24,-1
476 1013 m 1,28,-1
 606 889 l 1,29,-1
 1390 889 l 1,30,-1
 1524 1013 l 1,31,-1
 1524 1252 l 1,32,-1
 1442 1252 l 1,33,-1
 1442 1102 l 1,34,-1
 1079 1102 l 1,35,-1
 1079 1252 l 1,36,-1
 921 1252 l 1,37,-1
 921 1102 l 1,38,-1
 558 1102 l 1,39,-1
 558 1252 l 1,40,-1
 476 1252 l 1,41,-1
 476 1013 l 1,28,-1
510 46 m 1,42,-1
 510 -6 l 1,43,-1
 403 -106 l 1,44,-1
 403 -254 l 1,45,-1
 1599 -254 l 1,46,-1
 1599 -106 l 1,47,-1
 1490 -6 l 1,48,-1
 1490 46 l 1,49,-1
 1394 140 l 1,50,-1
 606 140 l 1,51,-1
 510 46 l 1,42,-1
EndSplineSet
EndChar
StartChar: X
Encoding: 88 88 37
Width: 2000
Flags: W
Fore
1884 1500 m 1,0,-1
 1717 1333 l 1,1,-1
 1717 1401 l 1,2,-1
 1816 1500 l 1,3,-1
 1884 1500 l 1,0,-1
2000 1344 m 1,4,-1
 1717 1061 l 1,5,-1
 1717 1129 l 1,6,-1
 2000 1412 l 1,7,-1
 2000 1344 l 1,4,-1
1614 1500 m 1,8,-1
 1554 1440 l 1,9,-1
 1486 1440 l 1,10,-1
 1546 1500 l 1,11,-1
 1614 1500 l 1,8,-1
1344 1500 m 1,12,-1
 1284 1440 l 1,13,-1
 1216 1440 l 1,14,-1
 1276 1500 l 1,15,-1
 1344 1500 l 1,12,-1
2000 1074 m 1,16,-1
 1578 652 l 1,17,-1
 1578 720 l 1,18,-1
 2000 1142 l 1,19,-1
 2000 1074 l 1,16,-1
1074 1500 m 1,20,-1
 1014 1440 l 1,21,-1
 946 1440 l 1,22,-1
 1006 1500 l 1,23,-1
 1074 1500 l 1,20,-1
2000 804 m 1,24,-1
 1578 382 l 1,25,-1
 1578 450 l 1,26,-1
 2000 872 l 1,27,-1
 2000 804 l 1,24,-1
804 1500 m 1,28,-1
 744 1440 l 1,29,-1
 676 1440 l 1,30,-1
 736 1500 l 1,31,-1
 804 1500 l 1,28,-1
2000 534 m 1,32,-1
 1631 165 l 1,33,-1
 1598 200 l 1,34,-1
 2000 602 l 1,35,-1
 2000 534 l 1,32,-1
2000 264 m 1,36,-1
 1737 1 l 1,37,-1
 1701 33 l 1,38,-1
 2000 332 l 1,39,-1
 2000 264 l 1,36,-1
534 1500 m 1,40,-1
 474 1440 l 1,41,-1
 406 1440 l 1,42,-1
 466 1500 l 1,43,-1
 534 1500 l 1,40,-1
2000 -6 m 1,44,-1
 1799 -207 l 1,45,-1
 1801 -137 l 1,46,-1
 2000 62 l 1,47,-1
 2000 -6 l 1,44,-1
264 1500 m 1,48,-1
 0 1236 l 1,49,-1
 0 1304 l 1,50,-1
 196 1500 l 1,51,-1
 264 1500 l 1,48,-1
2000 -276 m 1,52,-1
 1776 -500 l 1,53,-1
 1708 -500 l 1,54,-1
 2000 -208 l 1,55,-1
 2000 -276 l 1,52,-1
1680 -332 m 1,56,-1
 320 -332 l 1,57,-1
 320 -106 l 1,58,-1
 426 -6 l 1,59,-1
 426 46 l 1,60,-1
 555 178 l 1,61,-1
 555 837 l 1,62,-1
 399 992 l 1,63,-1
 399 1325 l 1,64,-1
 633 1325 l 1,65,-1
 633 1171 l 1,66,-1
 843 1171 l 1,67,-1
 843 1326 l 1,68,-1
 1157 1326 l 1,69,-1
 1157 1171 l 1,70,-1
 1367 1171 l 1,71,-1
 1367 1325 l 1,72,-1
 1601 1325 l 1,73,-1
 1601 992 l 1,74,-1
 1445 837 l 1,75,-1
 1445 178 l 1,76,-1
 1574 46 l 1,77,-1
 1574 -6 l 1,78,-1
 1680 -106 l 1,79,-1
 1680 -332 l 1,56,-1
278 1244 m 1,80,-1
 0 966 l 1,81,-1
 0 1034 l 1,82,-1
 278 1312 l 1,83,-1
 278 1244 l 1,80,-1
1564 -442 m 1,84,-1
 1506 -500 l 1,85,-1
 1438 -500 l 1,86,-1
 1496 -442 l 1,87,-1
 1564 -442 l 1,84,-1
278 974 m 1,88,-1
 0 696 l 1,89,-1
 0 764 l 1,90,-1
 278 1042 l 1,91,-1
 278 974 l 1,88,-1
392 818 m 1,92,-1
 0 426 l 1,93,-1
 0 494 l 1,94,-1
 356 850 l 1,95,-1
 392 818 l 1,92,-1
1294 -442 m 1,96,-1
 1236 -500 l 1,97,-1
 1168 -500 l 1,98,-1
 1226 -442 l 1,99,-1
 1294 -442 l 1,96,-1
429 585 m 1,100,-1
 0 156 l 1,101,-1
 0 224 l 1,102,-1
 429 653 l 1,103,-1
 429 585 l 1,100,-1
1024 -442 m 1,104,-1
 966 -500 l 1,105,-1
 898 -500 l 1,106,-1
 956 -442 l 1,107,-1
 1024 -442 l 1,104,-1
429 315 m 1,108,-1
 0 -114 l 1,109,-1
 0 -46 l 1,110,-1
 429 383 l 1,111,-1
 429 315 l 1,108,-1
754 -442 m 1,112,-1
 696 -500 l 1,113,-1
 628 -500 l 1,114,-1
 686 -442 l 1,115,-1
 754 -442 l 1,112,-1
484 -442 m 1,116,-1
 426 -500 l 1,117,-1
 358 -500 l 1,118,-1
 416 -442 l 1,119,-1
 484 -442 l 1,116,-1
205 -179 m 1,120,-1
 0 -384 l 1,121,-1
 0 -316 l 1,122,-1
 205 -111 l 1,123,-1
 205 -179 l 1,120,-1
205 -451 m 1,124,-1
 156 -500 l 1,125,-1
 88 -500 l 1,126,-1
 205 -383 l 1,127,-1
 205 -451 l 1,124,-1
1524 1013 m 1,128,-1
 1524 1252 l 1,129,-1
 1442 1252 l 1,130,-1
 1442 1102 l 1,131,-1
 1079 1102 l 1,132,-1
 1079 1252 l 1,133,-1
 921 1252 l 1,134,-1
 921 1102 l 1,135,-1
 558 1102 l 1,136,-1
 558 1252 l 1,137,-1
 476 1252 l 1,138,-1
 476 1013 l 1,139,-1
 606 889 l 1,140,-1
 1390 889 l 1,141,-1
 1524 1013 l 1,128,-1
1365 211 m 1,142,-1
 1365 814 l 1,143,-1
 635 814 l 1,144,-1
 635 211 l 1,145,-1
 1365 211 l 1,142,-1
1599 -254 m 1,146,-1
 1599 -106 l 1,147,-1
 1490 -6 l 1,148,-1
 1490 46 l 1,149,-1
 1394 140 l 1,150,-1
 606 140 l 1,151,-1
 510 46 l 1,152,-1
 510 -6 l 1,153,-1
 403 -106 l 1,154,-1
 403 -254 l 1,155,-1
 1599 -254 l 1,146,-1
EndSplineSet
EndChar
StartChar: Y
Encoding: 89 89 38
Width: 2000
Flags: W
Fore
1680 -332 m 1,0,-1
 320 -332 l 1,1,-1
 320 -106 l 1,2,-1
 426 -6 l 1,3,-1
 426 46 l 1,4,-1
 555 178 l 1,5,-1
 555 837 l 1,6,-1
 399 992 l 1,7,-1
 399 1325 l 1,8,-1
 633 1325 l 1,9,-1
 633 1171 l 1,10,-1
 843 1171 l 1,11,-1
 843 1326 l 1,12,-1
 1157 1326 l 1,13,-1
 1157 1171 l 1,14,-1
 1367 1171 l 1,15,-1
 1367 1325 l 1,16,-1
 1601 1325 l 1,17,-1
 1601 992 l 1,18,-1
 1445 837 l 1,19,-1
 1445 178 l 1,20,-1
 1574 46 l 1,21,-1
 1574 -6 l 1,22,-1
 1680 -106 l 1,23,-1
 1680 -332 l 1,0,-1
1363 780 m 1,24,-1
 1363 913 l 1,25,-1
 633 913 l 1,26,-1
 633 780 l 1,27,-1
 1363 780 l 1,24,-1
1363 106 m 1,28,-1
 1363 239 l 1,29,-1
 633 239 l 1,30,-1
 633 106 l 1,31,-1
 1363 106 l 1,28,-1
EndSplineSet
EndChar
StartChar: Z
Encoding: 90 90 39
Width: 2000
Flags: W
Fore
1884 1500 m 1,0,-1
 1717 1333 l 1,1,-1
 1717 1401 l 1,2,-1
 1816 1500 l 1,3,-1
 1884 1500 l 1,0,-1
2000 1344 m 1,4,-1
 1717 1061 l 1,5,-1
 1717 1129 l 1,6,-1
 2000 1412 l 1,7,-1
 2000 1344 l 1,4,-1
1614 1500 m 1,8,-1
 1554 1440 l 1,9,-1
 1486 1440 l 1,10,-1
 1546 1500 l 1,11,-1
 1614 1500 l 1,8,-1
1344 1500 m 1,12,-1
 1284 1440 l 1,13,-1
 1216 1440 l 1,14,-1
 1276 1500 l 1,15,-1
 1344 1500 l 1,12,-1
2000 1074 m 1,16,-1
 1578 652 l 1,17,-1
 1578 720 l 1,18,-1
 2000 1142 l 1,19,-1
 2000 1074 l 1,16,-1
1074 1500 m 1,20,-1
 1014 1440 l 1,21,-1
 946 1440 l 1,22,-1
 1006 1500 l 1,23,-1
 1074 1500 l 1,20,-1
2000 804 m 1,24,-1
 1578 382 l 1,25,-1
 1578 450 l 1,26,-1
 2000 872 l 1,27,-1
 2000 804 l 1,24,-1
804 1500 m 1,28,-1
 744 1440 l 1,29,-1
 676 1440 l 1,30,-1
 736 1500 l 1,31,-1
 804 1500 l 1,28,-1
2000 534 m 1,32,-1
 1631 165 l 1,33,-1
 1598 200 l 1,34,-1
 2000 602 l 1,35,-1
 2000 534 l 1,32,-1
2000 264 m 1,36,-1
 1737 1 l 1,37,-1
 1701 33 l 1,38,-1
 2000 332 l 1,39,-1
 2000 264 l 1,36,-1
534 1500 m 1,40,-1
 474 1440 l 1,41,-1
 406 1440 l 1,42,-1
 466 1500 l 1,43,-1
 534 1500 l 1,40,-1
2000 -6 m 1,44,-1
 1799 -207 l 1,45,-1
 1801 -137 l 1,46,-1
 2000 62 l 1,47,-1
 2000 -6 l 1,44,-1
264 1500 m 1,48,-1
 0 1236 l 1,49,-1
 0 1304 l 1,50,-1
 196 1500 l 1,51,-1
 264 1500 l 1,48,-1
2000 -276 m 1,52,-1
 1776 -500 l 1,53,-1
 1708 -500 l 1,54,-1
 2000 -208 l 1,55,-1
 2000 -276 l 1,52,-1
1680 -332 m 1,56,-1
 320 -332 l 1,57,-1
 320 -106 l 1,58,-1
 426 -6 l 1,59,-1
 426 46 l 1,60,-1
 555 178 l 1,61,-1
 555 837 l 1,62,-1
 399 992 l 1,63,-1
 399 1325 l 1,64,-1
 633 1325 l 1,65,-1
 633 1171 l 1,66,-1
 843 1171 l 1,67,-1
 843 1326 l 1,68,-1
 1157 1326 l 1,69,-1
 1157 1171 l 1,70,-1
 1367 1171 l 1,71,-1
 1367 1325 l 1,72,-1
 1601 1325 l 1,73,-1
 1601 992 l 1,74,-1
 1445 837 l 1,75,-1
 1445 178 l 1,76,-1
 1574 46 l 1,77,-1
 1574 -6 l 1,78,-1
 1680 -106 l 1,79,-1
 1680 -332 l 1,56,-1
278 1244 m 1,80,-1
 0 966 l 1,81,-1
 0 1034 l 1,82,-1
 278 1312 l 1,83,-1
 278 1244 l 1,80,-1
1564 -442 m 1,84,-1
 1506 -500 l 1,85,-1
 1438 -500 l 1,86,-1
 1496 -442 l 1,87,-1
 1564 -442 l 1,84,-1
278 974 m 1,88,-1
 0 696 l 1,89,-1
 0 764 l 1,90,-1
 278 1042 l 1,91,-1
 278 974 l 1,88,-1
392 818 m 1,92,-1
 0 426 l 1,93,-1
 0 494 l 1,94,-1
 356 850 l 1,95,-1
 392 818 l 1,92,-1
1294 -442 m 1,96,-1
 1236 -500 l 1,97,-1
 1168 -500 l 1,98,-1
 1226 -442 l 1,99,-1
 1294 -442 l 1,96,-1
429 585 m 1,100,-1
 0 156 l 1,101,-1
 0 224 l 1,102,-1
 429 653 l 1,103,-1
 429 585 l 1,100,-1
1024 -442 m 1,104,-1
 966 -500 l 1,105,-1
 898 -500 l 1,106,-1
 956 -442 l 1,107,-1
 1024 -442 l 1,104,-1
429 315 m 1,108,-1
 0 -114 l 1,109,-1
 0 -46 l 1,110,-1
 429 383 l 1,111,-1
 429 315 l 1,108,-1
754 -442 m 1,112,-1
 696 -500 l 1,113,-1
 628 -500 l 1,114,-1
 686 -442 l 1,115,-1
 754 -442 l 1,112,-1
484 -442 m 1,116,-1
 426 -500 l 1,117,-1
 358 -500 l 1,118,-1
 416 -442 l 1,119,-1
 484 -442 l 1,116,-1
205 -179 m 1,120,-1
 0 -384 l 1,121,-1
 0 -316 l 1,122,-1
 205 -111 l 1,123,-1
 205 -179 l 1,120,-1
205 -451 m 1,124,-1
 156 -500 l 1,125,-1
 88 -500 l 1,126,-1
 205 -383 l 1,127,-1
 205 -451 l 1,124,-1
1363 780 m 1,128,-1
 1363 913 l 1,129,-1
 633 913 l 1,130,-1
 633 780 l 1,131,-1
 1363 780 l 1,128,-1
1363 106 m 1,132,-1
 1363 239 l 1,133,-1
 633 239 l 1,134,-1
 633 106 l 1,135,-1
 1363 106 l 1,132,-1
EndSplineSet
EndChar
StartChar: a
Encoding: 97 97 40
Width: 2000
Flags: W
Fore
168 1180 m 1,0,-1
 394 1180 l 1,1,-1
 494 1074 l 1,2,-1
 546 1074 l 1,3,-1
 678 945 l 1,4,-1
 1337 945 l 1,5,-1
 1492 1101 l 1,6,-1
 1825 1101 l 1,7,-1
 1825 867 l 1,8,-1
 1671 867 l 1,9,-1
 1671 657 l 1,10,-1
 1826 657 l 1,11,-1
 1826 343 l 1,12,-1
 1671 343 l 1,13,-1
 1671 133 l 1,14,-1
 1825 133 l 1,15,-1
 1825 -101 l 1,16,-1
 1492 -101 l 1,17,-1
 1337 55 l 1,18,-1
 678 55 l 1,19,-1
 546 -74 l 1,20,-1
 494 -74 l 1,21,-1
 394 -180 l 1,22,-1
 168 -180 l 1,23,-1
 168 1180 l 1,0,-1
246 1097 m 1,24,-1
 246 -99 l 1,25,-1
 394 -99 l 1,26,-1
 494 10 l 1,27,-1
 546 10 l 1,28,-1
 640 106 l 1,29,-1
 640 894 l 1,30,-1
 546 990 l 1,31,-1
 494 990 l 1,32,-1
 394 1097 l 1,33,-1
 246 1097 l 1,24,-1
711 865 m 1,34,-1
 711 135 l 1,35,-1
 1314 135 l 1,36,-1
 1314 865 l 1,37,-1
 711 865 l 1,34,-1
1389 894 m 1,38,-1
 1389 110 l 1,39,-1
 1513 -24 l 1,40,-1
 1752 -24 l 1,41,-1
 1752 58 l 1,42,-1
 1602 58 l 1,43,-1
 1602 421 l 1,44,-1
 1752 421 l 1,45,-1
 1752 579 l 1,46,-1
 1602 579 l 1,47,-1
 1602 942 l 1,48,-1
 1752 942 l 1,49,-1
 1752 1024 l 1,50,-1
 1513 1024 l 1,51,-1
 1389 894 l 1,38,-1
EndSplineSet
EndChar
StartChar: b
Encoding: 98 98 41
Width: 2000
Flags: W
Fore
0 -316 m 1,0,-1
 48 -268 l 1,1,-1
 48 -336 l 1,2,-1
 0 -384 l 1,3,-1
 0 -316 l 1,0,-1
88 -500 m 1,4,-1
 305 -283 l 1,5,-1
 373 -283 l 1,6,-1
 156 -500 l 1,7,-1
 88 -500 l 1,4,-1
0 -46 m 1,8,-1
 47 1 l 1,9,-1
 47 -67 l 1,10,-1
 0 -114 l 1,11,-1
 0 -46 l 1,8,-1
0 224 m 1,12,-1
 46 270 l 1,13,-1
 47 203 l 1,14,-1
 0 156 l 1,15,-1
 0 224 l 1,12,-1
358 -500 m 1,16,-1
 799 -59 l 1,17,-1
 867 -59 l 1,18,-1
 426 -500 l 1,19,-1
 358 -500 l 1,16,-1
0 494 m 1,20,-1
 46 540 l 1,21,-1
 46 472 l 1,22,-1
 0 426 l 1,23,-1
 0 494 l 1,20,-1
628 -500 m 1,24,-1
 1069 -59 l 1,25,-1
 1137 -59 l 1,26,-1
 696 -500 l 1,27,-1
 628 -500 l 1,24,-1
0 764 m 1,28,-1
 45 809 l 1,29,-1
 45 741 l 1,30,-1
 0 696 l 1,31,-1
 0 764 l 1,28,-1
898 -500 m 1,32,-1
 1309 -89 l 1,33,-1
 1340 -126 l 1,34,-1
 966 -500 l 1,35,-1
 898 -500 l 1,32,-1
1172 -500 m 1,36,-1
 1446 -225 l 1,37,-1
 1511 -225 l 1,38,-1
 1236 -500 l 1,39,-1
 1172 -500 l 1,36,-1
0 1034 m 1,40,-1
 44 1078 l 1,41,-1
 45 1011 l 1,42,-1
 0 966 l 1,43,-1
 0 1034 l 1,40,-1
1442 -500 m 1,44,-1
 1715 -225 l 1,45,-1
 1781 -225 l 1,46,-1
 1506 -500 l 1,47,-1
 1442 -500 l 1,44,-1
168 1180 m 1,48,-1
 394 1180 l 1,49,-1
 494 1074 l 1,50,-1
 546 1074 l 1,51,-1
 678 945 l 1,52,-1
 1337 945 l 1,53,-1
 1492 1101 l 1,54,-1
 1825 1101 l 1,55,-1
 1825 867 l 1,56,-1
 1671 867 l 1,57,-1
 1671 657 l 1,58,-1
 1826 657 l 1,59,-1
 1826 343 l 1,60,-1
 1671 343 l 1,61,-1
 1671 133 l 1,62,-1
 1825 133 l 1,63,-1
 1825 -101 l 1,64,-1
 1492 -101 l 1,65,-1
 1337 55 l 1,66,-1
 678 55 l 1,67,-1
 546 -74 l 1,68,-1
 494 -74 l 1,69,-1
 394 -180 l 1,70,-1
 168 -180 l 1,71,-1
 168 1180 l 1,48,-1
0 1304 m 1,72,-1
 196 1500 l 1,73,-1
 264 1500 l 1,74,-1
 0 1236 l 1,75,-1
 0 1304 l 1,72,-1
1712 -500 m 1,76,-1
 2000 -208 l 1,77,-1
 2000 -276 l 1,78,-1
 1776 -500 l 1,79,-1
 1712 -500 l 1,76,-1
262 1296 m 1,80,-1
 466 1500 l 1,81,-1
 534 1500 l 1,82,-1
 331 1297 l 1,83,-1
 262 1296 l 1,80,-1
1944 -62 m 1,84,-1
 1944 6 l 1,85,-1
 2000 62 l 1,86,-1
 2000 -6 l 1,87,-1
 1944 -62 l 1,84,-1
485 1249 m 1,88,-1
 736 1500 l 1,89,-1
 804 1500 l 1,90,-1
 519 1215 l 1,91,-1
 485 1249 l 1,88,-1
644 1138 m 1,92,-1
 1006 1500 l 1,93,-1
 1074 1500 l 1,94,-1
 679 1105 l 1,95,-1
 644 1138 l 1,92,-1
1944 276 m 1,96,-1
 2000 332 l 1,97,-1
 2000 264 l 1,98,-1
 1944 208 l 1,99,-1
 1944 276 l 1,96,-1
853 1077 m 1,100,-1
 1276 1500 l 1,101,-1
 1344 1500 l 1,102,-1
 921 1077 l 1,103,-1
 853 1077 l 1,100,-1
1944 546 m 1,104,-1
 2000 602 l 1,105,-1
 2000 534 l 1,106,-1
 1944 478 l 1,107,-1
 1944 546 l 1,104,-1
1123 1077 m 1,108,-1
 1546 1500 l 1,109,-1
 1614 1500 l 1,110,-1
 1191 1077 l 1,111,-1
 1123 1077 l 1,108,-1
1944 748 m 1,112,-1
 1944 816 l 1,113,-1
 2000 872 l 1,114,-1
 2000 804 l 1,115,-1
 1944 748 l 1,112,-1
1944 1086 m 1,116,-1
 2000 1142 l 1,117,-1
 2000 1074 l 1,118,-1
 1944 1018 l 1,119,-1
 1944 1086 l 1,116,-1
1541 1225 m 1,120,-1
 1816 1500 l 1,121,-1
 1884 1500 l 1,122,-1
 1609 1225 l 1,123,-1
 1541 1225 l 1,120,-1
1813 1225 m 1,124,-1
 2000 1412 l 1,125,-1
 2000 1344 l 1,126,-1
 1881 1225 l 1,127,-1
 1813 1225 l 1,124,-1
246 1097 m 1,128,-1
 246 -99 l 1,129,-1
 394 -99 l 1,130,-1
 494 10 l 1,131,-1
 546 10 l 1,132,-1
 640 106 l 1,133,-1
 640 894 l 1,134,-1
 546 990 l 1,135,-1
 494 990 l 1,136,-1
 394 1097 l 1,137,-1
 246 1097 l 1,128,-1
711 865 m 1,138,-1
 711 135 l 1,139,-1
 1314 135 l 1,140,-1
 1314 865 l 1,141,-1
 711 865 l 1,138,-1
1389 894 m 1,142,-1
 1389 110 l 1,143,-1
 1513 -24 l 1,144,-1
 1752 -24 l 1,145,-1
 1752 58 l 1,146,-1
 1602 58 l 1,147,-1
 1602 421 l 1,148,-1
 1752 421 l 1,149,-1
 1752 579 l 1,150,-1
 1602 579 l 1,151,-1
 1602 942 l 1,152,-1
 1752 942 l 1,153,-1
 1752 1024 l 1,154,-1
 1513 1024 l 1,155,-1
 1389 894 l 1,142,-1
EndSplineSet
EndChar
StartChar: c
Encoding: 99 99 42
Width: 2000
Flags: W
Fore
168 1180 m 1,0,-1
 394 1180 l 1,1,-1
 494 1074 l 1,2,-1
 546 1074 l 1,3,-1
 678 945 l 1,4,-1
 1337 945 l 1,5,-1
 1492 1101 l 1,6,-1
 1825 1101 l 1,7,-1
 1825 867 l 1,8,-1
 1671 867 l 1,9,-1
 1671 657 l 1,10,-1
 1826 657 l 1,11,-1
 1826 343 l 1,12,-1
 1671 343 l 1,13,-1
 1671 133 l 1,14,-1
 1825 133 l 1,15,-1
 1825 -101 l 1,16,-1
 1492 -101 l 1,17,-1
 1337 55 l 1,18,-1
 678 55 l 1,19,-1
 546 -74 l 1,20,-1
 494 -74 l 1,21,-1
 394 -180 l 1,22,-1
 168 -180 l 1,23,-1
 168 1180 l 1,0,-1
606 867 m 1,24,-1
 606 137 l 1,25,-1
 739 137 l 1,26,-1
 739 867 l 1,27,-1
 606 867 l 1,24,-1
1280 867 m 1,28,-1
 1280 137 l 1,29,-1
 1413 137 l 1,30,-1
 1413 867 l 1,31,-1
 1280 867 l 1,28,-1
EndSplineSet
EndChar
StartChar: d
Encoding: 100 100 43
Width: 2000
Flags: W
Fore
0 -316 m 1,0,-1
 48 -268 l 1,1,-1
 48 -336 l 1,2,-1
 0 -384 l 1,3,-1
 0 -316 l 1,0,-1
88 -500 m 1,4,-1
 305 -283 l 1,5,-1
 373 -283 l 1,6,-1
 156 -500 l 1,7,-1
 88 -500 l 1,4,-1
0 -46 m 1,8,-1
 47 1 l 1,9,-1
 47 -67 l 1,10,-1
 0 -114 l 1,11,-1
 0 -46 l 1,8,-1
0 224 m 1,12,-1
 46 270 l 1,13,-1
 47 203 l 1,14,-1
 0 156 l 1,15,-1
 0 224 l 1,12,-1
358 -500 m 1,16,-1
 799 -59 l 1,17,-1
 867 -59 l 1,18,-1
 426 -500 l 1,19,-1
 358 -500 l 1,16,-1
0 494 m 1,20,-1
 46 540 l 1,21,-1
 46 472 l 1,22,-1
 0 426 l 1,23,-1
 0 494 l 1,20,-1
628 -500 m 1,24,-1
 1069 -59 l 1,25,-1
 1137 -59 l 1,26,-1
 696 -500 l 1,27,-1
 628 -500 l 1,24,-1
0 764 m 1,28,-1
 45 809 l 1,29,-1
 45 741 l 1,30,-1
 0 696 l 1,31,-1
 0 764 l 1,28,-1
898 -500 m 1,32,-1
 1309 -89 l 1,33,-1
 1340 -126 l 1,34,-1
 966 -500 l 1,35,-1
 898 -500 l 1,32,-1
1172 -500 m 1,36,-1
 1446 -225 l 1,37,-1
 1511 -225 l 1,38,-1
 1236 -500 l 1,39,-1
 1172 -500 l 1,36,-1
0 1034 m 1,40,-1
 44 1078 l 1,41,-1
 45 1011 l 1,42,-1
 0 966 l 1,43,-1
 0 1034 l 1,40,-1
1442 -500 m 1,44,-1
 1715 -225 l 1,45,-1
 1781 -225 l 1,46,-1
 1506 -500 l 1,47,-1
 1442 -500 l 1,44,-1
168 1180 m 1,48,-1
 394 1180 l 1,49,-1
 494 1074 l 1,50,-1
 546 1074 l 1,51,-1
 678 945 l 1,52,-1
 1337 945 l 1,53,-1
 1492 1101 l 1,54,-1
 1825 1101 l 1,55,-1
 1825 867 l 1,56,-1
 1671 867 l 1,57,-1
 1671 657 l 1,58,-1
 1826 657 l 1,59,-1
 1826 343 l 1,60,-1
 1671 343 l 1,61,-1
 1671 133 l 1,62,-1
 1825 133 l 1,63,-1
 1825 -101 l 1,64,-1
 1492 -101 l 1,65,-1
 1337 55 l 1,66,-1
 678 55 l 1,67,-1
 546 -74 l 1,68,-1
 494 -74 l 1,69,-1
 394 -180 l 1,70,-1
 168 -180 l 1,71,-1
 168 1180 l 1,48,-1
-8 1304 m 1,72,-1
 196 1500 l 1,73,-1
 264 1500 l 1,74,-1
 0 1236 l 1,75,-1
 -8 1304 l 1,72,-1
1712 -500 m 1,76,-1
 2000 -208 l 1,77,-1
 2000 -276 l 1,78,-1
 1776 -500 l 1,79,-1
 1712 -500 l 1,76,-1
262 1296 m 1,80,-1
 466 1500 l 1,81,-1
 534 1500 l 1,82,-1
 331 1297 l 1,83,-1
 262 1296 l 1,80,-1
1944 -62 m 1,84,-1
 1944 6 l 1,85,-1
 2000 62 l 1,86,-1
 2000 -6 l 1,87,-1
 1944 -62 l 1,84,-1
485 1249 m 1,88,-1
 736 1512 l 1,89,-1
 804 1500 l 1,90,-1
 519 1215 l 1,91,-1
 485 1249 l 1,88,-1
644 1138 m 1,92,-1
 1006 1500 l 1,93,-1
 1074 1500 l 1,94,-1
 688 1120 l 1,95,-1
 644 1138 l 1,92,-1
1944 276 m 1,96,-1
 2000 332 l 1,97,-1
 2000 264 l 1,98,-1
 1944 208 l 1,99,-1
 1944 276 l 1,96,-1
853 1077 m 1,100,-1
 1276 1500 l 1,101,-1
 1344 1500 l 1,102,-1
 921 1077 l 1,103,-1
 853 1077 l 1,100,-1
1944 546 m 1,104,-1
 2000 602 l 1,105,-1
 2000 534 l 1,106,-1
 1944 478 l 1,107,-1
 1944 546 l 1,104,-1
1123 1077 m 1,108,-1
 1546 1500 l 1,109,-1
 1614 1500 l 1,110,-1
 1191 1077 l 1,111,-1
 1123 1077 l 1,108,-1
1944 748 m 1,112,-1
 1944 816 l 1,113,-1
 2000 872 l 1,114,-1
 2000 804 l 1,115,-1
 1944 748 l 1,112,-1
1944 1086 m 1,116,-1
 2000 1142 l 1,117,-1
 2000 1074 l 1,118,-1
 1944 1018 l 1,119,-1
 1944 1086 l 1,116,-1
1541 1225 m 1,120,-1
 1808 1504 l 1,121,-1
 1884 1500 l 1,122,-1
 1609 1225 l 1,123,-1
 1541 1225 l 1,120,-1
1813 1225 m 1,124,-1
 2000 1412 l 1,125,-1
 2000 1344 l 1,126,-1
 1881 1225 l 1,127,-1
 1813 1225 l 1,124,-1
606 867 m 1,128,-1
 606 137 l 1,129,-1
 739 137 l 1,130,-1
 739 867 l 1,131,-1
 606 867 l 1,128,-1
1280 867 m 1,132,-1
 1280 137 l 1,133,-1
 1413 137 l 1,134,-1
 1413 867 l 1,135,-1
 1280 867 l 1,132,-1
EndSplineSet
EndChar
StartChar: e
Encoding: 101 101 44
Width: 2000
Flags: W
Fore
399 2 m 1,0,-1
 399 -331 l 1,1,-1
 633 -331 l 1,2,-1
 633 -177 l 1,3,-1
 843 -177 l 1,4,-1
 843 -332 l 1,5,-1
 1157 -332 l 1,6,-1
 1157 -177 l 1,7,-1
 1367 -177 l 1,8,-1
 1367 -331 l 1,9,-1
 1601 -331 l 1,10,-1
 1601 2 l 1,11,-1
 1445 157 l 1,12,-1
 1445 816 l 1,13,-1
 1574 948 l 1,14,-1
 1574 1000 l 1,15,-1
 1680 1100 l 1,16,-1
 1680 1326 l 1,17,-1
 320 1326 l 1,18,-1
 320 1100 l 1,19,-1
 426 1000 l 1,20,-1
 426 948 l 1,21,-1
 555 816 l 1,22,-1
 555 157 l 1,23,-1
 399 2 l 1,0,-1
635 783 m 1,24,-1
 1365 783 l 1,25,-1
 1365 180 l 1,26,-1
 635 180 l 1,27,-1
 635 783 l 1,24,-1
476 -19 m 1,28,-1
 606 105 l 1,29,-1
 1390 105 l 1,30,-1
 1524 -19 l 1,31,-1
 1524 -258 l 1,32,-1
 1442 -258 l 1,33,-1
 1442 -108 l 1,34,-1
 1079 -108 l 1,35,-1
 1079 -258 l 1,36,-1
 921 -258 l 1,37,-1
 921 -108 l 1,38,-1
 558 -108 l 1,39,-1
 558 -258 l 1,40,-1
 476 -258 l 1,41,-1
 476 -19 l 1,28,-1
510 948 m 1,42,-1
 510 1000 l 1,43,-1
 403 1100 l 1,44,-1
 403 1248 l 1,45,-1
 1599 1248 l 1,46,-1
 1599 1100 l 1,47,-1
 1490 1000 l 1,48,-1
 1490 948 l 1,49,-1
 1394 854 l 1,50,-1
 606 854 l 1,51,-1
 510 948 l 1,42,-1
EndSplineSet
EndChar
StartChar: f
Encoding: 102 102 45
Width: 2000
Flags: W
Fore
116 -500 m 1,0,-1
 283 -333 l 1,1,-1
 283 -401 l 1,2,-1
 184 -500 l 1,3,-1
 116 -500 l 1,0,-1
0 -344 m 1,4,-1
 283 -61 l 1,5,-1
 283 -129 l 1,6,-1
 0 -412 l 1,7,-1
 0 -344 l 1,4,-1
386 -500 m 1,8,-1
 446 -440 l 1,9,-1
 514 -440 l 1,10,-1
 454 -500 l 1,11,-1
 386 -500 l 1,8,-1
656 -500 m 1,12,-1
 716 -440 l 1,13,-1
 784 -440 l 1,14,-1
 724 -500 l 1,15,-1
 656 -500 l 1,12,-1
0 -74 m 1,16,-1
 422 348 l 1,17,-1
 422 280 l 1,18,-1
 0 -142 l 1,19,-1
 0 -74 l 1,16,-1
926 -500 m 1,20,-1
 986 -440 l 1,21,-1
 1054 -440 l 1,22,-1
 994 -500 l 1,23,-1
 926 -500 l 1,20,-1
0 196 m 1,24,-1
 422 618 l 1,25,-1
 422 550 l 1,26,-1
 0 128 l 1,27,-1
 0 196 l 1,24,-1
1196 -500 m 1,28,-1
 1256 -440 l 1,29,-1
 1324 -440 l 1,30,-1
 1264 -500 l 1,31,-1
 1196 -500 l 1,28,-1
0 466 m 1,32,-1
 369 835 l 1,33,-1
 402 800 l 1,34,-1
 0 398 l 1,35,-1
 0 466 l 1,32,-1
0 736 m 1,36,-1
 263 999 l 1,37,-1
 299 967 l 1,38,-1
 0 668 l 1,39,-1
 0 736 l 1,36,-1
1466 -500 m 1,40,-1
 1526 -440 l 1,41,-1
 1594 -440 l 1,42,-1
 1534 -500 l 1,43,-1
 1466 -500 l 1,40,-1
0 1006 m 1,44,-1
 201 1207 l 1,45,-1
 199 1137 l 1,46,-1
 0 938 l 1,47,-1
 0 1006 l 1,44,-1
1736 -500 m 1,48,-1
 2000 -236 l 1,49,-1
 2000 -304 l 1,50,-1
 1804 -500 l 1,51,-1
 1736 -500 l 1,48,-1
0 1276 m 1,52,-1
 224 1500 l 1,53,-1
 292 1500 l 1,54,-1
 0 1208 l 1,55,-1
 0 1276 l 1,52,-1
320 1332 m 1,56,-1
 1680 1332 l 1,57,-1
 1680 1106 l 1,58,-1
 1574 1006 l 1,59,-1
 1574 954 l 1,60,-1
 1445 822 l 1,61,-1
 1445 163 l 1,62,-1
 1601 8 l 1,63,-1
 1601 -325 l 1,64,-1
 1367 -325 l 1,65,-1
 1367 -171 l 1,66,-1
 1157 -171 l 1,67,-1
 1157 -326 l 1,68,-1
 843 -326 l 1,69,-1
 843 -171 l 1,70,-1
 633 -171 l 1,71,-1
 633 -325 l 1,72,-1
 399 -325 l 1,73,-1
 399 8 l 1,74,-1
 555 163 l 1,75,-1
 555 822 l 1,76,-1
 426 954 l 1,77,-1
 426 1006 l 1,78,-1
 320 1106 l 1,79,-1
 320 1332 l 1,56,-1
1722 -244 m 1,80,-1
 2000 34 l 1,81,-1
 2000 -34 l 1,82,-1
 1722 -312 l 1,83,-1
 1722 -244 l 1,80,-1
436 1442 m 1,84,-1
 494 1500 l 1,85,-1
 562 1500 l 1,86,-1
 504 1442 l 1,87,-1
 436 1442 l 1,84,-1
1722 26 m 1,88,-1
 2000 304 l 1,89,-1
 2000 236 l 1,90,-1
 1722 -42 l 1,91,-1
 1722 26 l 1,88,-1
1608 182 m 1,92,-1
 2000 574 l 1,93,-1
 2000 506 l 1,94,-1
 1644 150 l 1,95,-1
 1608 182 l 1,92,-1
706 1442 m 1,96,-1
 764 1500 l 1,97,-1
 832 1500 l 1,98,-1
 774 1442 l 1,99,-1
 706 1442 l 1,96,-1
1571 415 m 1,100,-1
 2000 844 l 1,101,-1
 2000 776 l 1,102,-1
 1571 347 l 1,103,-1
 1571 415 l 1,100,-1
976 1442 m 1,104,-1
 1034 1500 l 1,105,-1
 1102 1500 l 1,106,-1
 1044 1442 l 1,107,-1
 976 1442 l 1,104,-1
1571 685 m 1,108,-1
 2000 1114 l 1,109,-1
 2000 1046 l 1,110,-1
 1571 617 l 1,111,-1
 1571 685 l 1,108,-1
1246 1442 m 1,112,-1
 1304 1500 l 1,113,-1
 1372 1500 l 1,114,-1
 1314 1442 l 1,115,-1
 1246 1442 l 1,112,-1
1516 1442 m 1,116,-1
 1574 1500 l 1,117,-1
 1642 1500 l 1,118,-1
 1584 1442 l 1,119,-1
 1516 1442 l 1,116,-1
1795 1179 m 1,120,-1
 2000 1384 l 1,121,-1
 2000 1316 l 1,122,-1
 1795 1111 l 1,123,-1
 1795 1179 l 1,120,-1
1795 1451 m 1,124,-1
 1844 1500 l 1,125,-1
 1912 1500 l 1,126,-1
 1795 1383 l 1,127,-1
 1795 1451 l 1,124,-1
476 -13 m 1,128,-1
 476 -252 l 1,129,-1
 558 -252 l 1,130,-1
 558 -102 l 1,131,-1
 921 -102 l 1,132,-1
 921 -252 l 1,133,-1
 1079 -252 l 1,134,-1
 1079 -102 l 1,135,-1
 1442 -102 l 1,136,-1
 1442 -252 l 1,137,-1
 1524 -252 l 1,138,-1
 1524 -13 l 1,139,-1
 1394 111 l 1,140,-1
 610 111 l 1,141,-1
 476 -13 l 1,128,-1
635 789 m 1,142,-1
 635 186 l 1,143,-1
 1365 186 l 1,144,-1
 1365 789 l 1,145,-1
 635 789 l 1,142,-1
401 1254 m 1,146,-1
 401 1106 l 1,147,-1
 510 1006 l 1,148,-1
 510 954 l 1,149,-1
 606 860 l 1,150,-1
 1394 860 l 1,151,-1
 1490 954 l 1,152,-1
 1490 1006 l 1,153,-1
 1597 1106 l 1,154,-1
 1597 1254 l 1,155,-1
 401 1254 l 1,146,-1
EndSplineSet
EndChar
StartChar: g
Encoding: 103 103 46
Width: 2000
Flags: W
Fore
1680 1326 m 1,0,-1
 320 1326 l 1,1,-1
 320 1100 l 1,2,-1
 426 1000 l 1,3,-1
 426 948 l 1,4,-1
 555 816 l 1,5,-1
 555 157 l 1,6,-1
 399 2 l 1,7,-1
 399 -331 l 1,8,-1
 633 -331 l 1,9,-1
 633 -177 l 1,10,-1
 843 -177 l 1,11,-1
 843 -332 l 1,12,-1
 1157 -332 l 1,13,-1
 1157 -177 l 1,14,-1
 1367 -177 l 1,15,-1
 1367 -331 l 1,16,-1
 1601 -331 l 1,17,-1
 1601 2 l 1,18,-1
 1445 157 l 1,19,-1
 1445 816 l 1,20,-1
 1574 948 l 1,21,-1
 1574 1000 l 1,22,-1
 1680 1100 l 1,23,-1
 1680 1326 l 1,0,-1
1363 214 m 1,24,-1
 1363 81 l 1,25,-1
 633 81 l 1,26,-1
 633 214 l 1,27,-1
 1363 214 l 1,24,-1
1363 888 m 1,28,-1
 1363 755 l 1,29,-1
 633 755 l 1,30,-1
 633 888 l 1,31,-1
 1363 888 l 1,28,-1
EndSplineSet
EndChar
StartChar: h
Encoding: 104 104 47
Width: 2000
Flags: W
Fore
116 -500 m 1,0,-1
 283 -333 l 1,1,-1
 283 -401 l 1,2,-1
 184 -500 l 1,3,-1
 116 -500 l 1,0,-1
0 -344 m 1,4,-1
 283 -61 l 1,5,-1
 283 -129 l 1,6,-1
 0 -412 l 1,7,-1
 0 -344 l 1,4,-1
386 -500 m 1,8,-1
 446 -440 l 1,9,-1
 514 -440 l 1,10,-1
 454 -500 l 1,11,-1
 386 -500 l 1,8,-1
656 -500 m 1,12,-1
 716 -440 l 1,13,-1
 784 -440 l 1,14,-1
 724 -500 l 1,15,-1
 656 -500 l 1,12,-1
0 -74 m 1,16,-1
 422 348 l 1,17,-1
 422 280 l 1,18,-1
 0 -142 l 1,19,-1
 0 -74 l 1,16,-1
926 -500 m 1,20,-1
 986 -440 l 1,21,-1
 1054 -440 l 1,22,-1
 994 -500 l 1,23,-1
 926 -500 l 1,20,-1
0 196 m 1,24,-1
 422 618 l 1,25,-1
 422 550 l 1,26,-1
 0 128 l 1,27,-1
 0 196 l 1,24,-1
1196 -500 m 1,28,-1
 1256 -440 l 1,29,-1
 1324 -440 l 1,30,-1
 1264 -500 l 1,31,-1
 1196 -500 l 1,28,-1
0 466 m 1,32,-1
 369 835 l 1,33,-1
 402 800 l 1,34,-1
 0 398 l 1,35,-1
 0 466 l 1,32,-1
0 736 m 1,36,-1
 263 999 l 1,37,-1
 299 967 l 1,38,-1
 0 668 l 1,39,-1
 0 736 l 1,36,-1
1466 -500 m 1,40,-1
 1526 -440 l 1,41,-1
 1594 -440 l 1,42,-1
 1534 -500 l 1,43,-1
 1466 -500 l 1,40,-1
0 1006 m 1,44,-1
 201 1207 l 1,45,-1
 199 1137 l 1,46,-1
 0 938 l 1,47,-1
 0 1006 l 1,44,-1
1736 -500 m 1,48,-1
 2000 -236 l 1,49,-1
 2000 -304 l 1,50,-1
 1804 -500 l 1,51,-1
 1736 -500 l 1,48,-1
0 1276 m 1,52,-1
 224 1500 l 1,53,-1
 292 1500 l 1,54,-1
 0 1208 l 1,55,-1
 0 1276 l 1,52,-1
320 1332 m 1,56,-1
 1680 1332 l 1,57,-1
 1680 1106 l 1,58,-1
 1574 1006 l 1,59,-1
 1574 954 l 1,60,-1
 1445 822 l 1,61,-1
 1445 163 l 1,62,-1
 1601 8 l 1,63,-1
 1601 -325 l 1,64,-1
 1367 -325 l 1,65,-1
 1367 -171 l 1,66,-1
 1157 -171 l 1,67,-1
 1157 -326 l 1,68,-1
 843 -326 l 1,69,-1
 843 -171 l 1,70,-1
 633 -171 l 1,71,-1
 633 -325 l 1,72,-1
 399 -325 l 1,73,-1
 399 8 l 1,74,-1
 555 163 l 1,75,-1
 555 822 l 1,76,-1
 426 954 l 1,77,-1
 426 1006 l 1,78,-1
 320 1106 l 1,79,-1
 320 1332 l 1,56,-1
1722 -244 m 1,80,-1
 2000 34 l 1,81,-1
 2000 -34 l 1,82,-1
 1722 -312 l 1,83,-1
 1722 -244 l 1,80,-1
436 1442 m 1,84,-1
 494 1500 l 1,85,-1
 562 1500 l 1,86,-1
 504 1442 l 1,87,-1
 436 1442 l 1,84,-1
1722 26 m 1,88,-1
 2000 304 l 1,89,-1
 2000 236 l 1,90,-1
 1722 -42 l 1,91,-1
 1722 26 l 1,88,-1
1608 182 m 1,92,-1
 2000 574 l 1,93,-1
 2000 506 l 1,94,-1
 1644 150 l 1,95,-1
 1608 182 l 1,92,-1
706 1442 m 1,96,-1
 764 1500 l 1,97,-1
 832 1500 l 1,98,-1
 774 1442 l 1,99,-1
 706 1442 l 1,96,-1
1571 415 m 1,100,-1
 2000 844 l 1,101,-1
 2000 776 l 1,102,-1
 1571 347 l 1,103,-1
 1571 415 l 1,100,-1
976 1442 m 1,104,-1
 1034 1500 l 1,105,-1
 1102 1500 l 1,106,-1
 1044 1442 l 1,107,-1
 976 1442 l 1,104,-1
1571 685 m 1,108,-1
 2000 1114 l 1,109,-1
 2000 1046 l 1,110,-1
 1571 617 l 1,111,-1
 1571 685 l 1,108,-1
1246 1442 m 1,112,-1
 1304 1500 l 1,113,-1
 1372 1500 l 1,114,-1
 1314 1442 l 1,115,-1
 1246 1442 l 1,112,-1
1516 1442 m 1,116,-1
 1574 1500 l 1,117,-1
 1642 1500 l 1,118,-1
 1584 1442 l 1,119,-1
 1516 1442 l 1,116,-1
1795 1179 m 1,120,-1
 2000 1384 l 1,121,-1
 2000 1316 l 1,122,-1
 1795 1111 l 1,123,-1
 1795 1179 l 1,120,-1
1795 1451 m 1,124,-1
 1844 1500 l 1,125,-1
 1912 1500 l 1,126,-1
 1795 1383 l 1,127,-1
 1795 1451 l 1,124,-1
637 220 m 1,128,-1
 637 87 l 1,129,-1
 1367 87 l 1,130,-1
 1367 220 l 1,131,-1
 637 220 l 1,128,-1
637 894 m 1,132,-1
 637 761 l 1,133,-1
 1367 761 l 1,134,-1
 1367 894 l 1,135,-1
 637 894 l 1,132,-1
EndSplineSet
EndChar
StartChar: i
Encoding: 105 105 48
Width: 2000
Flags: W
Fore
1826 1180 m 1,0,-1
 1600 1180 l 1,1,-1
 1500 1074 l 1,2,-1
 1448 1074 l 1,3,-1
 1316 945 l 1,4,-1
 657 945 l 1,5,-1
 502 1101 l 1,6,-1
 169 1101 l 1,7,-1
 169 867 l 1,8,-1
 323 867 l 1,9,-1
 323 657 l 1,10,-1
 168 657 l 1,11,-1
 168 343 l 1,12,-1
 323 343 l 1,13,-1
 323 133 l 1,14,-1
 169 133 l 1,15,-1
 169 -101 l 1,16,-1
 502 -101 l 1,17,-1
 657 55 l 1,18,-1
 1316 55 l 1,19,-1
 1448 -74 l 1,20,-1
 1500 -74 l 1,21,-1
 1600 -180 l 1,22,-1
 1826 -180 l 1,23,-1
 1826 1180 l 1,0,-1
1748 1097 m 1,24,-1
 1748 -99 l 1,25,-1
 1600 -99 l 1,26,-1
 1500 10 l 1,27,-1
 1448 10 l 1,28,-1
 1354 106 l 1,29,-1
 1354 894 l 1,30,-1
 1448 990 l 1,31,-1
 1500 990 l 1,32,-1
 1600 1097 l 1,33,-1
 1748 1097 l 1,24,-1
1283 865 m 1,34,-1
 1283 135 l 1,35,-1
 680 135 l 1,36,-1
 680 865 l 1,37,-1
 1283 865 l 1,34,-1
605 894 m 1,38,-1
 605 110 l 1,39,-1
 481 -24 l 1,40,-1
 242 -24 l 1,41,-1
 242 58 l 1,42,-1
 392 58 l 1,43,-1
 392 421 l 1,44,-1
 242 421 l 1,45,-1
 242 579 l 1,46,-1
 392 579 l 1,47,-1
 392 942 l 1,48,-1
 242 942 l 1,49,-1
 242 1024 l 1,50,-1
 481 1024 l 1,51,-1
 605 894 l 1,38,-1
EndSplineSet
EndChar
StartChar: j
Encoding: 106 106 49
Width: 2000
Flags: W
Fore
2000 1316 m 1,0,-1
 1952 1268 l 1,1,-1
 1952 1336 l 1,2,-1
 2000 1384 l 1,3,-1
 2000 1316 l 1,0,-1
1912 1500 m 1,4,-1
 1695 1283 l 1,5,-1
 1627 1283 l 1,6,-1
 1844 1500 l 1,7,-1
 1912 1500 l 1,4,-1
2000 1046 m 1,8,-1
 1953 999 l 1,9,-1
 1953 1067 l 1,10,-1
 2000 1114 l 1,11,-1
 2000 1046 l 1,8,-1
2000 776 m 1,12,-1
 1954 730 l 1,13,-1
 1953 797 l 1,14,-1
 2000 844 l 1,15,-1
 2000 776 l 1,12,-1
1642 1500 m 1,16,-1
 1201 1059 l 1,17,-1
 1133 1059 l 1,18,-1
 1574 1500 l 1,19,-1
 1642 1500 l 1,16,-1
2000 506 m 1,20,-1
 1954 460 l 1,21,-1
 1954 528 l 1,22,-1
 2000 574 l 1,23,-1
 2000 506 l 1,20,-1
1372 1500 m 1,24,-1
 931 1059 l 1,25,-1
 863 1059 l 1,26,-1
 1304 1500 l 1,27,-1
 1372 1500 l 1,24,-1
2000 236 m 1,28,-1
 1955 191 l 1,29,-1
 1955 259 l 1,30,-1
 2000 304 l 1,31,-1
 2000 236 l 1,28,-1
1102 1500 m 1,32,-1
 691 1089 l 1,33,-1
 660 1126 l 1,34,-1
 1034 1500 l 1,35,-1
 1102 1500 l 1,32,-1
828 1500 m 1,36,-1
 554 1225 l 1,37,-1
 489 1225 l 1,38,-1
 764 1500 l 1,39,-1
 828 1500 l 1,36,-1
2000 -34 m 1,40,-1
 1956 -78 l 1,41,-1
 1955 -11 l 1,42,-1
 2000 34 l 1,43,-1
 2000 -34 l 1,40,-1
558 1500 m 1,44,-1
 285 1225 l 1,45,-1
 219 1225 l 1,46,-1
 494 1500 l 1,47,-1
 558 1500 l 1,44,-1
1832 -180 m 1,48,-1
 1606 -180 l 1,49,-1
 1506 -74 l 1,50,-1
 1454 -74 l 1,51,-1
 1322 55 l 1,52,-1
 663 55 l 1,53,-1
 508 -101 l 1,54,-1
 175 -101 l 1,55,-1
 175 133 l 1,56,-1
 329 133 l 1,57,-1
 329 343 l 1,58,-1
 174 343 l 1,59,-1
 174 657 l 1,60,-1
 329 657 l 1,61,-1
 329 867 l 1,62,-1
 175 867 l 1,63,-1
 175 1101 l 1,64,-1
 508 1101 l 1,65,-1
 663 945 l 1,66,-1
 1322 945 l 1,67,-1
 1454 1074 l 1,68,-1
 1506 1074 l 1,69,-1
 1606 1180 l 1,70,-1
 1832 1180 l 1,71,-1
 1832 -180 l 1,48,-1
2000 -304 m 1,72,-1
 1804 -500 l 1,73,-1
 1736 -500 l 1,74,-1
 2000 -236 l 1,75,-1
 2000 -304 l 1,72,-1
288 1500 m 1,76,-1
 0 1208 l 1,77,-1
 0 1276 l 1,78,-1
 224 1500 l 1,79,-1
 288 1500 l 1,76,-1
1738 -296 m 1,80,-1
 1534 -500 l 1,81,-1
 1466 -500 l 1,82,-1
 1669 -297 l 1,83,-1
 1738 -296 l 1,80,-1
56 1062 m 1,84,-1
 56 994 l 1,85,-1
 0 938 l 1,86,-1
 0 1006 l 1,87,-1
 56 1062 l 1,84,-1
1515 -249 m 1,88,-1
 1264 -500 l 1,89,-1
 1196 -500 l 1,90,-1
 1481 -215 l 1,91,-1
 1515 -249 l 1,88,-1
1356 -138 m 1,92,-1
 994 -500 l 1,93,-1
 926 -500 l 1,94,-1
 1321 -105 l 1,95,-1
 1356 -138 l 1,92,-1
56 724 m 1,96,-1
 0 668 l 1,97,-1
 0 736 l 1,98,-1
 56 792 l 1,99,-1
 56 724 l 1,96,-1
1147 -77 m 1,100,-1
 724 -500 l 1,101,-1
 656 -500 l 1,102,-1
 1079 -77 l 1,103,-1
 1147 -77 l 1,100,-1
56 454 m 1,104,-1
 0 398 l 1,105,-1
 0 466 l 1,106,-1
 56 522 l 1,107,-1
 56 454 l 1,104,-1
877 -77 m 1,108,-1
 454 -500 l 1,109,-1
 386 -500 l 1,110,-1
 809 -77 l 1,111,-1
 877 -77 l 1,108,-1
56 252 m 1,112,-1
 56 184 l 1,113,-1
 0 128 l 1,114,-1
 0 196 l 1,115,-1
 56 252 l 1,112,-1
56 -86 m 1,116,-1
 0 -142 l 1,117,-1
 0 -74 l 1,118,-1
 56 -18 l 1,119,-1
 56 -86 l 1,116,-1
459 -225 m 1,120,-1
 184 -500 l 1,121,-1
 116 -500 l 1,122,-1
 391 -225 l 1,123,-1
 459 -225 l 1,120,-1
187 -225 m 1,124,-1
 0 -412 l 1,125,-1
 0 -344 l 1,126,-1
 119 -225 l 1,127,-1
 187 -225 l 1,124,-1
1754 -97 m 1,128,-1
 1754 1099 l 1,129,-1
 1606 1099 l 1,130,-1
 1506 990 l 1,131,-1
 1454 990 l 1,132,-1
 1360 894 l 1,133,-1
 1360 106 l 1,134,-1
 1454 10 l 1,135,-1
 1506 10 l 1,136,-1
 1606 -97 l 1,137,-1
 1754 -97 l 1,128,-1
1289 135 m 1,138,-1
 1289 865 l 1,139,-1
 686 865 l 1,140,-1
 686 135 l 1,141,-1
 1289 135 l 1,138,-1
611 106 m 1,142,-1
 611 890 l 1,143,-1
 487 1024 l 1,144,-1
 248 1024 l 1,145,-1
 248 942 l 1,146,-1
 398 942 l 1,147,-1
 398 579 l 1,148,-1
 248 579 l 1,149,-1
 248 421 l 1,150,-1
 398 421 l 1,151,-1
 398 58 l 1,152,-1
 248 58 l 1,153,-1
 248 -24 l 1,154,-1
 487 -24 l 1,155,-1
 611 106 l 1,142,-1
EndSplineSet
EndChar
StartChar: k
Encoding: 107 107 50
Width: 2000
Flags: W
Fore
1826 1180 m 1,0,-1
 1600 1180 l 1,1,-1
 1500 1074 l 1,2,-1
 1448 1074 l 1,3,-1
 1316 945 l 1,4,-1
 657 945 l 1,5,-1
 502 1101 l 1,6,-1
 169 1101 l 1,7,-1
 169 867 l 1,8,-1
 323 867 l 1,9,-1
 323 657 l 1,10,-1
 168 657 l 1,11,-1
 168 343 l 1,12,-1
 323 343 l 1,13,-1
 323 133 l 1,14,-1
 169 133 l 1,15,-1
 169 -101 l 1,16,-1
 502 -101 l 1,17,-1
 657 55 l 1,18,-1
 1316 55 l 1,19,-1
 1448 -74 l 1,20,-1
 1500 -74 l 1,21,-1
 1600 -180 l 1,22,-1
 1826 -180 l 1,23,-1
 1826 1180 l 1,0,-1
1388 867 m 1,24,-1
 1388 137 l 1,25,-1
 1255 137 l 1,26,-1
 1255 867 l 1,27,-1
 1388 867 l 1,24,-1
714 867 m 1,28,-1
 714 137 l 1,29,-1
 581 137 l 1,30,-1
 581 867 l 1,31,-1
 714 867 l 1,28,-1
EndSplineSet
EndChar
StartChar: l
Encoding: 108 108 51
Width: 2000
Flags: W
Fore
1992 1328 m 1,0,-1
 1944 1280 l 1,1,-1
 1944 1348 l 1,2,-1
 1992 1396 l 1,3,-1
 1992 1328 l 1,0,-1
1904 1512 m 1,4,-1
 1687 1295 l 1,5,-1
 1619 1295 l 1,6,-1
 1836 1512 l 1,7,-1
 1904 1512 l 1,4,-1
1992 1058 m 1,8,-1
 1945 1011 l 1,9,-1
 1945 1079 l 1,10,-1
 1992 1126 l 1,11,-1
 1992 1058 l 1,8,-1
1992 788 m 1,12,-1
 1946 742 l 1,13,-1
 1945 809 l 1,14,-1
 1992 856 l 1,15,-1
 1992 788 l 1,12,-1
1634 1512 m 1,16,-1
 1193 1071 l 1,17,-1
 1125 1071 l 1,18,-1
 1566 1512 l 1,19,-1
 1634 1512 l 1,16,-1
1992 518 m 1,20,-1
 1946 472 l 1,21,-1
 1946 540 l 1,22,-1
 1992 586 l 1,23,-1
 1992 518 l 1,20,-1
1364 1512 m 1,24,-1
 923 1071 l 1,25,-1
 855 1071 l 1,26,-1
 1296 1512 l 1,27,-1
 1364 1512 l 1,24,-1
1992 248 m 1,28,-1
 1947 203 l 1,29,-1
 1947 271 l 1,30,-1
 1992 316 l 1,31,-1
 1992 248 l 1,28,-1
1094 1512 m 1,32,-1
 683 1101 l 1,33,-1
 652 1138 l 1,34,-1
 1026 1512 l 1,35,-1
 1094 1512 l 1,32,-1
820 1512 m 1,36,-1
 546 1237 l 1,37,-1
 481 1237 l 1,38,-1
 756 1512 l 1,39,-1
 820 1512 l 1,36,-1
1992 -22 m 1,40,-1
 1948 -66 l 1,41,-1
 1947 1 l 1,42,-1
 1992 46 l 1,43,-1
 1992 -22 l 1,40,-1
550 1512 m 1,44,-1
 277 1237 l 1,45,-1
 211 1237 l 1,46,-1
 486 1512 l 1,47,-1
 550 1512 l 1,44,-1
1824 -168 m 1,48,-1
 1598 -168 l 1,49,-1
 1498 -62 l 1,50,-1
 1446 -62 l 1,51,-1
 1314 67 l 1,52,-1
 655 67 l 1,53,-1
 500 -89 l 1,54,-1
 167 -89 l 1,55,-1
 167 145 l 1,56,-1
 321 145 l 1,57,-1
 321 355 l 1,58,-1
 166 355 l 1,59,-1
 166 669 l 1,60,-1
 321 669 l 1,61,-1
 321 879 l 1,62,-1
 167 879 l 1,63,-1
 167 1113 l 1,64,-1
 500 1113 l 1,65,-1
 655 957 l 1,66,-1
 1314 957 l 1,67,-1
 1446 1086 l 1,68,-1
 1498 1086 l 1,69,-1
 1598 1192 l 1,70,-1
 1824 1192 l 1,71,-1
 1824 -168 l 1,48,-1
2000 -292 m 1,72,-1
 1796 -488 l 1,73,-1
 1728 -488 l 1,74,-1
 1992 -224 l 1,75,-1
 2000 -292 l 1,72,-1
280 1512 m 1,76,-1
 -8 1220 l 1,77,-1
 -8 1288 l 1,78,-1
 216 1512 l 1,79,-1
 280 1512 l 1,76,-1
1730 -284 m 1,80,-1
 1526 -488 l 1,81,-1
 1458 -488 l 1,82,-1
 1661 -285 l 1,83,-1
 1730 -284 l 1,80,-1
48 1074 m 1,84,-1
 48 1006 l 1,85,-1
 -8 950 l 1,86,-1
 -8 1018 l 1,87,-1
 48 1074 l 1,84,-1
1507 -237 m 1,88,-1
 1256 -500 l 1,89,-1
 1188 -488 l 1,90,-1
 1473 -203 l 1,91,-1
 1507 -237 l 1,88,-1
1348 -126 m 1,92,-1
 986 -488 l 1,93,-1
 918 -488 l 1,94,-1
 1304 -108 l 1,95,-1
 1348 -126 l 1,92,-1
48 736 m 1,96,-1
 -8 680 l 1,97,-1
 -8 748 l 1,98,-1
 48 804 l 1,99,-1
 48 736 l 1,96,-1
1139 -65 m 1,100,-1
 716 -488 l 1,101,-1
 648 -488 l 1,102,-1
 1071 -65 l 1,103,-1
 1139 -65 l 1,100,-1
48 466 m 1,104,-1
 -8 410 l 1,105,-1
 -8 478 l 1,106,-1
 48 534 l 1,107,-1
 48 466 l 1,104,-1
869 -65 m 1,108,-1
 446 -488 l 1,109,-1
 378 -488 l 1,110,-1
 801 -65 l 1,111,-1
 869 -65 l 1,108,-1
48 264 m 1,112,-1
 48 196 l 1,113,-1
 -8 140 l 1,114,-1
 -8 208 l 1,115,-1
 48 264 l 1,112,-1
48 -74 m 1,116,-1
 -8 -130 l 1,117,-1
 -8 -62 l 1,118,-1
 48 -6 l 1,119,-1
 48 -74 l 1,116,-1
451 -213 m 1,120,-1
 184 -492 l 1,121,-1
 108 -488 l 1,122,-1
 383 -213 l 1,123,-1
 451 -213 l 1,120,-1
179 -213 m 1,124,-1
 -8 -400 l 1,125,-1
 -8 -332 l 1,126,-1
 111 -213 l 1,127,-1
 179 -213 l 1,124,-1
1386 145 m 1,128,-1
 1386 875 l 1,129,-1
 1253 875 l 1,130,-1
 1253 145 l 1,131,-1
 1386 145 l 1,128,-1
712 145 m 1,132,-1
 712 875 l 1,133,-1
 579 875 l 1,134,-1
 579 145 l 1,135,-1
 712 145 l 1,132,-1
EndSplineSet
EndChar
StartChar: m
Encoding: 109 109 52
Width: 2000
Flags: W
Fore
1902 -401 m 1,0,1
 1777 -342 1777 -342 1509 -342 c 0,2,3
 1388 -342 1388 -342 1215 -349 c 1,4,5
 1167 -242 1167 -242 1002 -242 c 0,6,7
 833 -242 833 -242 785 -349 c 1,8,9
 612 -342 612 -342 491 -342 c 0,10,11
 223 -342 223 -342 98 -401 c 1,12,13
 80 -365 80 -365 80 -311 c 0,14,15
 80 -93 80 -93 397 -93 c 0,16,17
 499 -93 499 -93 633 -119 c 1,18,19
 610 -22 610 -22 610 64 c 0,20,21
 610 107 610 107 616 148 c 1,22,23
 574 207 574 207 537 296 c 0,24,25
 480 434 480 434 480 557 c 0,26,27
 480 565 480 565 482 592 c 0,28,29
 499 819 499 819 793 1166 c 1,30,31
 743 1189 743 1189 743 1262 c 0,32,33
 743 1308 743 1308 775.5 1340.5 c 128,-1,34
 808 1373 808 1373 854 1373 c 0,35,36
 901 1373 901 1373 933.5 1341 c 128,-1,37
 966 1309 966 1309 967 1262 c 0,38,39
 968 1198 968 1198 910 1166 c 1,40,41
 956 1106 956 1106 1004 1072 c 1,42,43
 1082 1137 1082 1137 1100 1179 c 1,44,45
 1060 1219 1060 1219 1060 1262 c 0,46,47
 1060 1309 1060 1309 1093.5 1341 c 128,-1,48
 1127 1373 1127 1373 1174 1373 c 0,49,50
 1222 1373 1222 1373 1253 1341 c 128,-1,51
 1284 1309 1284 1309 1286 1261 c 0,52,53
 1289 1201 1289 1201 1238 1179 c 1,54,55
 1492 872 1492 872 1488 582 c 0,56,57
 1486 460 1486 460 1450 319 c 0,58,59
 1418 195 1418 195 1384 148 c 1,60,61
 1390 107 1390 107 1390 64 c 0,62,63
 1390 -22 1390 -22 1367 -119 c 1,64,65
 1501 -93 1501 -93 1604 -93 c 0,66,67
 1920 -93 1920 -93 1920 -311 c 0,68,69
 1920 -365 1920 -365 1902 -401 c 1,0,1
1216 1267 m 0,70,71
 1216 1312 1216 1312 1174 1312 c 0,72,73
 1130 1312 1130 1312 1130 1267 c 0,74,75
 1130 1223 1130 1223 1174 1223 c 0,76,77
 1216 1223 1216 1223 1216 1267 c 0,70,71
896 1267 m 0,78,79
 896 1312 896 1312 854 1312 c 0,80,81
 810 1312 810 1312 810 1267 c 0,82,83
 810 1223 810 1223 854 1223 c 0,84,85
 896 1223 896 1223 896 1267 c 0,78,79
1413 569 m 0,86,87
 1415 717 1415 717 1343 872 c 0,88,89
 1292 982 1292 982 1174 1146 c 1,90,91
 1120 1085 1120 1085 1042 1006 c 1,92,93
 1079 966 1079 966 1126 912 c 0,94,95
 1352 653 1352 653 1371 348 c 1,96,97
 1411 420 1411 420 1413 569 c 0,86,87
1309 394 m 0,98,99
 1301 506 1301 506 1208 673 c 0,100,101
 1084 896 1084 896 854 1120 c 1,102,103
 752 1049 752 1049 651 851 c 128,-1,104
 550 653 550 653 550 527 c 0,105,106
 550 377 550 377 668 248 c 1,107,108
 764 285 764 285 850 295 c 0,109,110
 893 300 893 300 1000 300 c 0,111,112
 1177 300 1177 300 1280 244 c 1,113,114
 1316 298 1316 298 1309 394 c 0,98,99
1856 -297 m 1,115,116
 1857 -289 1857 -289 1857 -281 c 0,117,118
 1857 -162 1857 -162 1607 -162 c 0,119,120
 1427 -162 1427 -162 1154 -222 c 1,121,122
 1188 -274 1188 -274 1508 -285 c 2,123,-1
 1856 -297 l 1,115,116
1309 -42 m 1,124,-1
 1305 37 l 1,125,-1
 1252 83 l 1,126,-1
 1309 117 l 1,127,-1
 1309 167 l 1,128,129
 1236 225 1236 225 1000 225 c 256,130,131
 764 225 764 225 691 167 c 1,132,-1
 691 117 l 1,133,-1
 748 83 l 1,134,-1
 695 37 l 1,135,-1
 691 -42 l 1,136,137
 797 -11 797 -11 1000 -11 c 256,138,139
 1203 -11 1203 -11 1309 -42 c 1,124,-1
1265 -123 m 0,140,141
 1265 -71 1265 -71 1000 -71 c 256,142,143
 735 -71 735 -71 735 -123 c 0,144,145
 735 -174 735 -174 1000 -174 c 256,146,147
 1265 -174 1265 -174 1265 -123 c 0,140,141
846 -222 m 1,148,149
 573 -162 573 -162 393 -162 c 0,150,151
 143 -162 143 -162 143 -281 c 0,152,153
 143 -289 143 -289 144 -297 c 1,154,-1
 492 -285 l 2,155,156
 812 -274 812 -274 846 -222 c 1,148,149
1069 102 m 0,157,158
 1069 66 1069 66 1000 66 c 256,159,160
 931 66 931 66 931 102 c 0,161,162
 931 137 931 137 1000 137 c 256,163,164
 1069 137 1069 137 1069 102 c 0,157,158
EndSplineSet
EndChar
StartChar: n
Encoding: 110 110 53
Width: 2000
Flags: W
Fore
1884 1500 m 1,0,-1
 1469 1085 l 1,1,-1
 1443 1127 l 1,2,-1
 1816 1500 l 1,3,-1
 1884 1500 l 1,0,-1
2000 1344 m 1,4,-1
 1563 907 l 1,5,-1
 1541 953 l 1,6,-1
 2000 1412 l 1,7,-1
 2000 1344 l 1,4,-1
1614 1500 m 1,8,-1
 1399 1285 l 1,9,-1
 1392 1346 l 1,10,-1
 1546 1500 l 1,11,-1
 1614 1500 l 1,8,-1
1344 1500 m 1,12,-1
 1299 1455 l 1,13,-1
 1248 1472 l 1,14,-1
 1276 1500 l 1,15,-1
 1344 1500 l 1,12,-1
2000 1074 m 1,16,-1
 1599 673 l 1,17,-1
 1599 741 l 1,18,-1
 2000 1142 l 1,19,-1
 2000 1074 l 1,16,-1
1074 1500 m 1,20,-1
 1009 1435 l 1,21,-1
 972 1466 l 1,22,-1
 1006 1500 l 1,23,-1
 1074 1500 l 1,20,-1
2000 804 m 1,24,-1
 1594 398 l 1,25,-1
 1610 482 l 1,26,-1
 2000 872 l 1,27,-1
 2000 804 l 1,24,-1
2000 534 m 1,28,-1
 1505 39 l 1,29,-1
 1508 110 l 1,30,-1
 2000 602 l 1,31,-1
 2000 534 l 1,28,-1
2000 264 m 1,32,-1
 1752 16 l 1,33,-1
 1684 16 l 1,34,-1
 2000 332 l 1,35,-1
 2000 264 l 1,32,-1
2000 -6 m 1,36,-1
 1935 -71 l 1,37,-1
 1894 -44 l 1,38,-1
 2000 62 l 1,39,-1
 2000 -6 l 1,36,-1
264 1500 m 1,40,-1
 0 1236 l 1,41,-1
 0 1304 l 1,42,-1
 196 1500 l 1,43,-1
 264 1500 l 1,40,-1
534 1500 m 1,44,-1
 0 966 l 1,45,-1
 0 1034 l 1,46,-1
 466 1500 l 1,47,-1
 534 1500 l 1,44,-1
804 1500 m 1,48,-1
 0 696 l 1,49,-1
 0 764 l 1,50,-1
 736 1500 l 1,51,-1
 804 1500 l 1,48,-1
1902 -401 m 1,52,53
 1776 -341 1776 -341 1509 -341 c 0,54,55
 1388 -341 1388 -341 1215 -349 c 1,56,57
 1166 -242 1166 -242 1002 -242 c 0,58,59
 834 -242 834 -242 785 -349 c 1,60,61
 612 -341 612 -341 491 -341 c 0,62,63
 224 -341 224 -341 98 -401 c 1,64,65
 81 -365 81 -365 81 -311 c 0,66,67
 81 -94 81 -94 396 -94 c 0,68,69
 499 -94 499 -94 633 -119 c 1,70,71
 610 -23 610 -23 610 64 c 0,72,73
 610 107 610 107 616 148 c 1,74,75
 575 207 575 207 538 297 c 0,76,77
 481 435 481 435 481 558 c 0,78,79
 481 799 481 799 793 1166 c 1,80,81
 743 1190 743 1190 743 1262 c 0,82,83
 743 1308 743 1308 775.5 1340.5 c 128,-1,84
 808 1373 808 1373 854 1373 c 0,85,86
 901 1373 901 1373 933.5 1341 c 128,-1,87
 966 1309 966 1309 967 1262 c 0,88,89
 968 1198 968 1198 910 1166 c 1,90,91
 957 1107 957 1107 1004 1072 c 1,92,93
 1082 1137 1082 1137 1100 1179 c 1,94,95
 1060 1219 1060 1219 1060 1262 c 0,96,97
 1060 1309 1060 1309 1093.5 1341 c 128,-1,98
 1127 1373 1127 1373 1174 1373 c 0,99,100
 1223 1373 1223 1373 1253.5 1341.5 c 128,-1,101
 1284 1310 1284 1310 1286 1261 c 0,102,103
 1289 1200 1289 1200 1238 1179 c 1,104,105
 1491 872 1491 872 1488 582 c 0,106,107
 1487 454 1487 454 1450 318 c 0,108,109
 1417 196 1417 196 1384 148 c 1,110,111
 1390 107 1390 107 1390 64 c 0,112,113
 1390 -23 1390 -23 1367 -119 c 1,114,115
 1501 -94 1501 -94 1604 -94 c 0,116,117
 1919 -94 1919 -94 1919 -311 c 0,118,119
 1919 -365 1919 -365 1902 -401 c 1,52,53
1791 -485 m 1,120,-1
 1776 -500 l 1,121,-1
 1708 -500 l 1,122,-1
 1740 -468 l 1,123,-1
 1791 -485 l 1,120,-1
594 1088 m 1,124,-1
 476 902 l 1,125,-1
 0 426 l 1,126,-1
 0 494 l 1,127,-1
 594 1088 l 1,124,-1
1544 -462 m 1,128,-1
 1506 -500 l 1,129,-1
 1438 -500 l 1,130,-1
 1480 -458 l 1,131,-1
 1544 -462 l 1,128,-1
1277 -459 m 1,132,-1
 1236 -500 l 1,133,-1
 1168 -500 l 1,134,-1
 1210 -458 l 1,135,-1
 1277 -459 l 1,132,-1
379 603 m 1,136,-1
 370 526 l 1,137,-1
 0 156 l 1,138,-1
 0 224 l 1,139,-1
 379 603 l 1,136,-1
1069 -397 m 1,140,-1
 966 -500 l 1,141,-1
 898 -500 l 1,142,-1
 1030 -368 l 1,143,-1
 1069 -397 l 1,140,-1
493 109 m 1,144,-1
 384 0 l 1,145,-1
 316 0 l 1,146,-1
 471 155 l 1,147,-1
 493 109 l 1,144,-1
413 299 m 1,148,-1
 0 -114 l 1,149,-1
 0 -46 l 1,150,-1
 397 351 l 1,151,-1
 413 299 l 1,148,-1
737 -459 m 1,152,-1
 696 -500 l 1,153,-1
 628 -500 l 1,154,-1
 670 -458 l 1,155,-1
 737 -459 l 1,152,-1
465 -461 m 1,156,-1
 426 -500 l 1,157,-1
 358 -500 l 1,158,-1
 400 -458 l 1,159,-1
 465 -461 l 1,156,-1
188 -468 m 1,160,-1
 156 -500 l 1,161,-1
 88 -500 l 1,162,-1
 188 -468 l 1,160,-1
1216 1267 m 0,163,164
 1216 1312 1216 1312 1174 1312 c 0,165,166
 1130 1312 1130 1312 1130 1267 c 0,167,168
 1130 1223 1130 1223 1174 1223 c 0,169,170
 1216 1223 1216 1223 1216 1267 c 0,163,164
896 1267 m 0,171,172
 896 1312 896 1312 854 1312 c 0,173,174
 810 1312 810 1312 810 1267 c 0,175,176
 810 1223 810 1223 854 1223 c 0,177,178
 896 1223 896 1223 896 1267 c 0,171,172
1413 569 m 256,179,180
 1415 718 1415 718 1343 872 c 0,181,182
 1292 981 1292 981 1174 1146 c 1,183,184
 1120 1085 1120 1085 1042 1006 c 1,185,186
 1078 967 1078 967 1126 912 c 0,187,188
 1354 651 1354 651 1371 348 c 1,189,190
 1411 420 1411 420 1413 569 c 256,179,180
1309 394 m 0,191,192
 1302 504 1302 504 1208 673 c 0,193,194
 1083 897 1083 897 854 1120 c 1,195,196
 752 1050 752 1050 651 851 c 128,-1,197
 550 652 550 652 550 527 c 0,198,199
 550 376 550 376 668 248 c 1,200,201
 768 287 768 287 850 296 c 0,202,203
 886 300 886 300 1000 300 c 0,204,205
 1177 300 1177 300 1280 244 c 1,206,207
 1315 300 1315 300 1309 394 c 0,191,192
1856 -297 m 1,208,209
 1857 -289 1857 -289 1857 -281 c 0,210,211
 1857 -162 1857 -162 1607 -162 c 0,212,213
 1427 -162 1427 -162 1154 -222 c 1,214,215
 1186 -270 1186 -270 1508 -284 c 0,216,217
 1570 -287 1570 -287 1856 -297 c 1,208,209
1309 -42 m 1,218,-1
 1305 37 l 1,219,-1
 1252 83 l 1,220,-1
 1309 117 l 1,221,-1
 1309 167 l 1,222,223
 1235 225 1235 225 1000 225 c 256,224,225
 765 225 765 225 691 167 c 1,226,-1
 691 117 l 1,227,-1
 748 83 l 1,228,-1
 695 37 l 1,229,-1
 691 -42 l 1,230,231
 798 -11 798 -11 1000 -11 c 256,232,233
 1202 -11 1202 -11 1309 -42 c 1,218,-1
1265 -123 m 0,234,235
 1265 -71 1265 -71 1000 -71 c 256,236,237
 735 -71 735 -71 735 -123 c 0,238,239
 735 -174 735 -174 1000 -174 c 256,240,241
 1265 -174 1265 -174 1265 -123 c 0,234,235
846 -222 m 1,242,243
 573 -162 573 -162 393 -162 c 0,244,245
 143 -162 143 -162 143 -281 c 0,246,247
 143 -289 143 -289 144 -297 c 1,248,-1
 492 -284 l 2,249,250
 813 -272 813 -272 846 -222 c 1,242,243
1069 102 m 0,251,252
 1069 66 1069 66 1000 66 c 256,253,254
 931 66 931 66 931 102 c 0,255,256
 931 137 931 137 1000 137 c 256,257,258
 1069 137 1069 137 1069 102 c 0,251,252
EndSplineSet
EndChar
StartChar: o
Encoding: 111 111 54
Width: 2000
Flags: W
Fore
1902 -401 m 1,0,1
 1776 -341 1776 -341 1509 -341 c 0,2,3
 1388 -341 1388 -341 1215 -349 c 1,4,5
 1166 -242 1166 -242 1002 -242 c 0,6,7
 834 -242 834 -242 785 -349 c 1,8,9
 612 -341 612 -341 491 -341 c 0,10,11
 224 -341 224 -341 98 -401 c 1,12,13
 81 -365 81 -365 81 -311 c 0,14,15
 81 -94 81 -94 396 -94 c 0,16,17
 499 -94 499 -94 633 -119 c 1,18,19
 610 -23 610 -23 610 64 c 0,20,21
 610 107 610 107 616 148 c 1,22,23
 575 207 575 207 538 297 c 0,24,25
 481 435 481 435 481 558 c 0,26,27
 481 799 481 799 793 1166 c 1,28,29
 743 1190 743 1190 743 1262 c 0,30,31
 743 1308 743 1308 775.5 1340.5 c 128,-1,32
 808 1373 808 1373 854 1373 c 0,33,34
 901 1373 901 1373 933.5 1341 c 128,-1,35
 966 1309 966 1309 967 1262 c 0,36,37
 968 1198 968 1198 910 1166 c 1,38,39
 957 1107 957 1107 1004 1072 c 1,40,41
 1082 1137 1082 1137 1100 1179 c 1,42,43
 1060 1219 1060 1219 1060 1262 c 0,44,45
 1060 1309 1060 1309 1093.5 1341 c 128,-1,46
 1127 1373 1127 1373 1174 1373 c 0,47,48
 1223 1373 1223 1373 1253.5 1341.5 c 128,-1,49
 1284 1310 1284 1310 1286 1261 c 0,50,51
 1289 1200 1289 1200 1238 1179 c 1,52,53
 1491 872 1491 872 1488 582 c 0,54,55
 1487 454 1487 454 1450 318 c 0,56,57
 1417 196 1417 196 1384 148 c 1,58,59
 1390 107 1390 107 1390 64 c 0,60,61
 1390 -23 1390 -23 1367 -119 c 1,62,63
 1501 -94 1501 -94 1604 -94 c 0,64,65
 1919 -94 1919 -94 1919 -311 c 0,66,67
 1919 -365 1919 -365 1902 -401 c 1,0,1
1359 470 m 0,68,69
 1359 683 1359 683 1226 891 c 0,70,71
 1164 988 1164 988 1116 1010 c 0,72,73
 1086 1024 1086 1024 1060 1024 c 0,74,75
 1014 1024 1014 1024 1012 986 c 0,76,77
 1011 970 1011 970 1081 873 c 0,78,79
 1169 751 1169 751 1191 684 c 0,80,81
 1208 623 1208 623 1242 500 c 0,82,83
 1283 357 1283 357 1317 357 c 0,84,85
 1359 357 1359 357 1359 470 c 0,68,69
1309 101 m 1,86,87
 1316 119 1316 119 1282 128 c 0,88,89
 1251 136 1251 136 1244 118 c 1,90,91
 1241 98 1241 98 1273 89 c 0,92,93
 1306 80 1306 80 1309 101 c 1,86,87
1311 266 m 0,94,95
 1265 302 1265 302 1225 316 c 0,96,97
 1140 346 1140 346 1000 346 c 0,98,99
 791 346 791 346 689 266 c 0,100,101
 670 251 670 251 670 225 c 0,102,103
 670 175 670 175 704 175 c 1,104,-1
 712 177 l 1,105,106
 785 207 785 207 809 213 c 0,107,108
 884 233 884 233 1000 239 c 0,109,110
 1155 231 1155 231 1288 177 c 0,111,112
 1293 175 1293 175 1296 175 c 0,113,114
 1330 175 1330 175 1330 225 c 0,115,116
 1330 251 1330 251 1311 266 c 0,94,95
1082 147 m 0,117,118
 1082 177 1082 177 1000 177 c 256,119,120
 918 177 918 177 918 147 c 0,121,122
 918 116 918 116 1000 116 c 256,123,124
 1082 116 1082 116 1082 147 c 0,117,118
1281 -24 m 0,125,126
 1218 10 1218 10 1192 19 c 0,127,128
 1113 46 1113 46 1000 46 c 0,129,130
 845 46 845 46 719 -24 c 0,131,132
 697 -36 697 -36 697 -63 c 0,133,134
 697 -115 697 -115 733 -115 c 0,135,136
 738 -115 738 -115 742 -113 c 0,137,138
 815 -80 815 -80 836 -73 c 0,139,140
 900 -51 900 -51 1000 -51 c 256,141,142
 1100 -51 1100 -51 1164 -73 c 0,143,144
 1185 -80 1185 -80 1258 -113 c 0,145,146
 1262 -115 1262 -115 1267 -115 c 0,147,148
 1303 -115 1303 -115 1303 -63 c 0,149,150
 1303 -36 1303 -36 1281 -24 c 0,125,126
756 118 m 1,151,152
 749 136 749 136 718 128 c 0,153,154
 684 119 684 119 691 101 c 1,155,156
 694 80 694 80 727 89 c 0,157,158
 759 98 759 98 756 118 c 1,151,152
EndSplineSet
EndChar
StartChar: p
Encoding: 112 112 55
Width: 2000
Flags: W
Fore
1884 1500 m 1,0,-1
 1469 1085 l 1,1,-1
 1443 1127 l 1,2,-1
 1816 1500 l 1,3,-1
 1884 1500 l 1,0,-1
2000 1344 m 1,4,-1
 1563 907 l 1,5,-1
 1541 953 l 1,6,-1
 2000 1412 l 1,7,-1
 2000 1344 l 1,4,-1
1614 1500 m 1,8,-1
 1399 1285 l 1,9,-1
 1392 1346 l 1,10,-1
 1546 1500 l 1,11,-1
 1614 1500 l 1,8,-1
1344 1500 m 1,12,-1
 1299 1455 l 1,13,-1
 1248 1472 l 1,14,-1
 1276 1500 l 1,15,-1
 1344 1500 l 1,12,-1
2000 1074 m 1,16,-1
 1599 673 l 1,17,-1
 1599 741 l 1,18,-1
 2000 1142 l 1,19,-1
 2000 1074 l 1,16,-1
1074 1500 m 1,20,-1
 1009 1435 l 1,21,-1
 972 1466 l 1,22,-1
 1006 1500 l 1,23,-1
 1074 1500 l 1,20,-1
2000 804 m 1,24,-1
 1594 398 l 1,25,-1
 1610 482 l 1,26,-1
 2000 872 l 1,27,-1
 2000 804 l 1,24,-1
2000 534 m 1,28,-1
 1505 39 l 1,29,-1
 1508 110 l 1,30,-1
 2000 602 l 1,31,-1
 2000 534 l 1,28,-1
2000 264 m 1,32,-1
 1752 16 l 1,33,-1
 1684 16 l 1,34,-1
 2000 332 l 1,35,-1
 2000 264 l 1,32,-1
2000 -6 m 1,36,-1
 1935 -71 l 1,37,-1
 1894 -44 l 1,38,-1
 2000 62 l 1,39,-1
 2000 -6 l 1,36,-1
264 1500 m 1,40,-1
 0 1236 l 1,41,-1
 0 1304 l 1,42,-1
 196 1500 l 1,43,-1
 264 1500 l 1,40,-1
534 1500 m 1,44,-1
 0 966 l 1,45,-1
 0 1034 l 1,46,-1
 466 1500 l 1,47,-1
 534 1500 l 1,44,-1
804 1500 m 1,48,-1
 0 696 l 1,49,-1
 0 764 l 1,50,-1
 736 1500 l 1,51,-1
 804 1500 l 1,48,-1
1902 -401 m 1,52,53
 1776 -341 1776 -341 1509 -341 c 0,54,55
 1388 -341 1388 -341 1215 -349 c 1,56,57
 1166 -242 1166 -242 1002 -242 c 0,58,59
 834 -242 834 -242 785 -349 c 1,60,61
 612 -341 612 -341 491 -341 c 0,62,63
 224 -341 224 -341 98 -401 c 1,64,65
 81 -365 81 -365 81 -311 c 0,66,67
 81 -94 81 -94 396 -94 c 0,68,69
 499 -94 499 -94 633 -119 c 1,70,71
 610 -23 610 -23 610 64 c 0,72,73
 610 107 610 107 616 148 c 1,74,75
 575 207 575 207 538 297 c 0,76,77
 481 435 481 435 481 558 c 0,78,79
 481 799 481 799 793 1166 c 1,80,81
 743 1190 743 1190 743 1262 c 0,82,83
 743 1308 743 1308 775.5 1340.5 c 128,-1,84
 808 1373 808 1373 854 1373 c 0,85,86
 901 1373 901 1373 933.5 1341 c 128,-1,87
 966 1309 966 1309 967 1262 c 0,88,89
 968 1198 968 1198 910 1166 c 1,90,91
 957 1107 957 1107 1004 1072 c 1,92,93
 1082 1137 1082 1137 1100 1179 c 1,94,95
 1060 1219 1060 1219 1060 1262 c 0,96,97
 1060 1309 1060 1309 1093.5 1341 c 128,-1,98
 1127 1373 1127 1373 1174 1373 c 0,99,100
 1223 1373 1223 1373 1253.5 1341.5 c 128,-1,101
 1284 1310 1284 1310 1286 1261 c 0,102,103
 1289 1200 1289 1200 1238 1179 c 1,104,105
 1491 872 1491 872 1488 582 c 0,106,107
 1487 454 1487 454 1450 318 c 0,108,109
 1417 196 1417 196 1384 148 c 1,110,111
 1390 107 1390 107 1390 64 c 0,112,113
 1390 -23 1390 -23 1367 -119 c 1,114,115
 1501 -94 1501 -94 1604 -94 c 0,116,117
 1919 -94 1919 -94 1919 -311 c 0,118,119
 1919 -365 1919 -365 1902 -401 c 1,52,53
1791 -485 m 1,120,-1
 1776 -500 l 1,121,-1
 1708 -500 l 1,122,-1
 1740 -468 l 1,123,-1
 1791 -485 l 1,120,-1
594 1088 m 1,124,-1
 476 902 l 1,125,-1
 0 426 l 1,126,-1
 0 494 l 1,127,-1
 594 1088 l 1,124,-1
1544 -462 m 1,128,-1
 1506 -500 l 1,129,-1
 1438 -500 l 1,130,-1
 1480 -458 l 1,131,-1
 1544 -462 l 1,128,-1
1277 -459 m 1,132,-1
 1236 -500 l 1,133,-1
 1168 -500 l 1,134,-1
 1210 -458 l 1,135,-1
 1277 -459 l 1,132,-1
379 603 m 1,136,-1
 370 526 l 1,137,-1
 0 156 l 1,138,-1
 0 224 l 1,139,-1
 379 603 l 1,136,-1
1069 -397 m 1,140,-1
 966 -500 l 1,141,-1
 898 -500 l 1,142,-1
 1030 -368 l 1,143,-1
 1069 -397 l 1,140,-1
493 109 m 1,144,-1
 384 0 l 1,145,-1
 316 0 l 1,146,-1
 471 155 l 1,147,-1
 493 109 l 1,144,-1
413 299 m 1,148,-1
 0 -114 l 1,149,-1
 0 -46 l 1,150,-1
 397 351 l 1,151,-1
 413 299 l 1,148,-1
737 -459 m 1,152,-1
 696 -500 l 1,153,-1
 628 -500 l 1,154,-1
 670 -458 l 1,155,-1
 737 -459 l 1,152,-1
465 -461 m 1,156,-1
 426 -500 l 1,157,-1
 358 -500 l 1,158,-1
 400 -458 l 1,159,-1
 465 -461 l 1,156,-1
188 -468 m 1,160,-1
 156 -500 l 1,161,-1
 88 -500 l 1,162,-1
 188 -468 l 1,160,-1
1359 469 m 0,163,164
 1359 683 1359 683 1226 891 c 0,165,166
 1164 988 1164 988 1116 1010 c 0,167,168
 1086 1024 1086 1024 1060 1024 c 0,169,170
 1014 1024 1014 1024 1012 986 c 0,171,172
 1011 970 1011 970 1081 873 c 0,173,174
 1169 751 1169 751 1191 684 c 0,175,176
 1208 623 1208 623 1242 500 c 0,177,178
 1283 357 1283 357 1317 357 c 0,179,180
 1359 357 1359 357 1359 469 c 0,163,164
1309 101 m 1,181,182
 1316 119 1316 119 1282 128 c 0,183,184
 1251 136 1251 136 1244 118 c 1,185,186
 1241 98 1241 98 1273 89 c 0,187,188
 1306 80 1306 80 1309 101 c 1,181,182
1311 266 m 0,189,190
 1265 302 1265 302 1225 316 c 0,191,192
 1140 346 1140 346 1000 346 c 0,193,194
 791 346 791 346 689 266 c 0,195,196
 670 251 670 251 670 225 c 0,197,198
 670 175 670 175 704 175 c 1,199,-1
 712 177 l 1,200,201
 785 207 785 207 809 213 c 0,202,203
 884 233 884 233 1000 239 c 0,204,205
 1155 231 1155 231 1288 177 c 0,206,207
 1293 175 1293 175 1296 175 c 0,208,209
 1330 175 1330 175 1330 225 c 0,210,211
 1330 251 1330 251 1311 266 c 0,189,190
1082 147 m 0,212,213
 1082 177 1082 177 1000 177 c 256,214,215
 918 177 918 177 918 147 c 0,216,217
 918 116 918 116 1000 116 c 256,218,219
 1082 116 1082 116 1082 147 c 0,212,213
1281 -24 m 0,220,221
 1218 10 1218 10 1192 19 c 0,222,223
 1113 46 1113 46 1000 46 c 0,224,225
 845 46 845 46 719 -24 c 0,226,227
 697 -36 697 -36 697 -63 c 0,228,229
 697 -115 697 -115 733 -115 c 0,230,231
 738 -115 738 -115 742 -113 c 0,232,233
 815 -80 815 -80 836 -73 c 0,234,235
 900 -51 900 -51 1000 -51 c 256,236,237
 1100 -51 1100 -51 1164 -73 c 0,238,239
 1185 -80 1185 -80 1258 -113 c 0,240,241
 1262 -115 1262 -115 1267 -115 c 0,242,243
 1303 -115 1303 -115 1303 -63 c 0,244,245
 1303 -36 1303 -36 1281 -24 c 0,220,221
756 118 m 1,246,247
 749 136 749 136 718 128 c 0,248,249
 684 119 684 119 691 101 c 1,250,251
 694 80 694 80 727 89 c 0,252,253
 759 98 759 98 756 118 c 1,246,247
EndSplineSet
EndChar
StartChar: q
Encoding: 113 113 56
Width: 2000
Flags: W
Fore
1873 326 m 0,0,1
 1873 278 1873 278 1841.5 247 c 128,-1,2
 1810 216 1810 216 1761 214 c 0,3,4
 1700 211 1700 211 1679 262 c 1,5,6
 1372 9 1372 9 1082 12 c 0,7,8
 954 13 954 13 818 50 c 0,9,10
 696 83 696 83 648 116 c 1,11,12
 607 110 607 110 564 110 c 0,13,14
 477 110 477 110 381 133 c 1,15,16
 406 -1 406 -1 406 -104 c 0,17,18
 406 -419 406 -419 189 -419 c 0,19,20
 135 -419 135 -419 99 -402 c 1,21,22
 159 -276 159 -276 159 -9 c 0,23,24
 159 112 159 112 151 285 c 1,25,26
 258 334 258 334 258 498 c 0,27,28
 258 666 258 666 151 715 c 1,29,30
 159 888 159 888 159 1009 c 0,31,32
 159 1276 159 1276 99 1402 c 1,33,34
 135 1419 135 1419 189 1419 c 0,35,36
 406 1419 406 1419 406 1104 c 0,37,38
 406 1001 406 1001 381 867 c 1,39,40
 477 890 477 890 564 890 c 0,41,42
 607 890 607 890 648 884 c 1,43,44
 707 925 707 925 797 962 c 0,45,46
 935 1019 935 1019 1058 1019 c 0,47,48
 1299 1019 1299 1019 1666 707 c 1,49,50
 1690 757 1690 757 1762 757 c 0,51,52
 1808 757 1808 757 1840.5 724.5 c 128,-1,53
 1873 692 1873 692 1873 646 c 0,54,55
 1873 599 1873 599 1841 566.5 c 128,-1,56
 1809 534 1809 534 1762 533 c 0,57,58
 1698 532 1698 532 1666 590 c 1,59,60
 1607 543 1607 543 1572 496 c 1,61,62
 1637 418 1637 418 1679 400 c 1,63,64
 1719 440 1719 440 1762 440 c 0,65,66
 1809 440 1809 440 1841 406.5 c 128,-1,67
 1873 373 1873 373 1873 326 c 0,0,1
1812 646 m 0,68,69
 1812 690 1812 690 1767 690 c 0,70,71
 1723 690 1723 690 1723 646 c 0,72,73
 1723 604 1723 604 1767 604 c 0,74,75
 1812 604 1812 604 1812 646 c 0,68,69
1812 326 m 0,76,77
 1812 370 1812 370 1767 370 c 0,78,79
 1723 370 1723 370 1723 326 c 0,80,81
 1723 284 1723 284 1767 284 c 0,82,83
 1812 284 1812 284 1812 326 c 0,76,77
1620 646 m 1,84,85
 1550 748 1550 748 1351 849 c 128,-1,86
 1152 950 1152 950 1027 950 c 0,87,88
 876 950 876 950 748 832 c 1,89,90
 787 732 787 732 796 650 c 0,91,92
 800 614 800 614 800 500 c 0,93,94
 800 323 800 323 744 220 c 1,95,96
 803 185 803 185 894 191 c 0,97,98
 1005 199 1005 199 1174 292 c 0,99,100
 1393 413 1393 413 1620 646 c 1,84,85
1646 326 m 1,101,102
 1585 380 1585 380 1506 458 c 1,103,104
 1467 422 1467 422 1412 374 c 0,105,106
 1151 146 1151 146 848 129 c 1,107,108
 920 89 920 89 1069 87 c 256,109,110
 1218 85 1218 85 1372 157 c 0,111,112
 1481 208 1481 208 1646 326 c 1,101,102
203 1356 m 1,113,-1
 216 1008 l 2,114,115
 228 687 228 687 278 654 c 1,116,117
 338 927 338 927 338 1107 c 0,118,119
 338 1357 338 1357 219 1357 c 0,120,121
 211 1357 211 1357 203 1356 c 1,113,-1
725 500 m 256,122,123
 725 735 725 735 667 809 c 1,124,-1
 617 809 l 1,125,-1
 583 752 l 1,126,-1
 537 805 l 1,127,-1
 458 809 l 1,128,129
 489 702 489 702 489 500 c 256,130,131
 489 298 489 298 458 191 c 1,132,-1
 537 195 l 1,133,-1
 583 248 l 1,134,-1
 617 191 l 1,135,-1
 667 191 l 1,136,137
 725 265 725 265 725 500 c 256,122,123
429 500 m 256,138,139
 429 765 429 765 377 765 c 0,140,141
 326 765 326 765 326 500 c 256,142,143
 326 235 326 235 377 235 c 0,144,145
 429 235 429 235 429 500 c 256,138,139
338 -107 m 0,146,147
 338 73 338 73 278 346 c 1,148,149
 230 314 230 314 216 -8 c 0,150,151
 213 -70 213 -70 203 -356 c 1,152,153
 211 -357 211 -357 219 -357 c 0,154,155
 338 -357 338 -357 338 -107 c 0,146,147
637 500 m 256,156,157
 637 431 637 431 602 431 c 0,158,159
 566 431 566 431 566 500 c 256,160,161
 566 569 566 569 602 569 c 0,162,163
 637 569 637 569 637 500 c 256,156,157
EndSplineSet
EndChar
